<svg xmlns="http://www.w3.org/2000/svg" viewBox="0 0 1000 1000" preserveAspectRatio="xMidYMid slice" role="img" aria-label="Map of Laurel, Maryland">
  <!-- Generated from the Overpass API on 2026-07-23 — data © OpenStreetMap contributors, ODbL -->
  <style>
  text{font-family:Inter,system-ui,sans-serif;paint-order:stroke;stroke:rgba(255,255,255,.88);stroke-width:3px;letter-spacing:.02em}
  .wa{fill:#E3ECF8;stroke:#C9D8EF;stroke-width:1.4}
  .ww{fill:none;stroke:#BFD2ED;stroke-linecap:round;stroke-linejoin:round}
  .pk{fill:#E5EFE1;stroke:#BFD6B8;stroke-width:1.6}
  .cp{fill:#EEF0FA;stroke:#C3CAE4;stroke-width:1.8}
  .hw{fill:none;stroke:#AEB6C2;stroke-width:3.4;stroke-linecap:round;stroke-linejoin:round}
  .rd{fill:none;stroke:#C9CFD8;stroke-width:2.2;stroke-linecap:round;stroke-linejoin:round}
  .r2{fill:none;stroke:#DADFE6;stroke-width:1.5;stroke-linecap:round;stroke-linejoin:round}
  .rl{fill:none;stroke:#C6CBD4;stroke-width:1.4}
  .lb{font-size:12px;font-weight:500;fill:#98A0AB}
  .lb-water{fill:#8CA0C6;font-style:italic}
  .lb-park{fill:#85A07E}
  .lb-campus{fill:#767E92;font-weight:600}
  </style>
  <g class="layer" data-kind="waterarea">
    <path class="wa" d="M900 668.3L905.4 669.3L906.5 683.7L903.6 687.3L898.6 687.4L893.6 690.7L888.5 698.2L886.9 705L877.1 701.6L876.1 696.3L872.6 692.1L866.7 692.9L861.5 687.9L859.2 678.6L860.5 668.3L862.6 679.4L862.8 671.8L867.4 673.4L876.6 670.6L877.6 667.6L880.1 668L879.7 664.8L885.1 661.4L886.4 665.3L891.9 669L889.7 674L891.2 677L893.2 676.4L896.8 669.2L900 668.3Z" data-fill="1"/>
    <path class="wa" d="M8.5 430.9L5.3 431.8L4.4 426.9L0.1 423.6L-10.8 422.3L-27 424.3L-31.9 427.7L-29.9 425.2L-31.4 422L-49 416.4L-60.1 416.1L-62.6 413.3L-69.1 397L-69.3 381.3L-51.9 348.5L-51.4 338.6L-46.8 326.4L-48.9 322.5L-59.9 314.2L-74.5 316.8L-79.1 311L-86.9 310.8L-92.4 305.9L-98.5 306.3L-106.7 298.4L-123.7 295.2L-131.4 291.4L-145.4 290L-161.5 291.2L-169.2 288.3L-180.5 291.9L-185.6 291.5L-196.2 278.6L-209.3 266.8L-211.3 262.5L-210.1 257L-187.5 232.8L-192.6 227.3L-195.2 226.9L-219.1 234.8L-226.4 234.4L-229.9 232.1L-234.4 219.1L-232.4 216.9L-218.1 218.7L-200.9 212L-196.3 207.8L-197.2 204.3L-203.1 200.8L-207.3 201.6L-214.1 198.7L-228.9 197.7L-245.6 189.2L-251.7 177.9L-249 171.2L-246.6 170.9L-246.3 154.5L-239.9 150.2L-234.4 137.8L-234.4 132.9L-228 121.2L-228.5 115.8L-226.2 109.2L-227.2 100.2L-234 98.5L-229.6 94.1L-225.7 100.1L-225.1 108.9L-227.6 115.6L-226 118.9L-233 132.7L-233.4 139.7L-238.6 150.1L-245 154.7L-245.5 170.5L-250.8 177.3L-244.8 187.3L-230.9 195L-225.1 197.2L-202.4 199.9L-195.8 204.6L-195.1 207.6L-198.9 212.3L-216.7 219.6L-233.4 218.7L-227.3 232.2L-217.7 232.5L-193.1 225.7L-186 232.6L-186.7 235.3L-194.3 240.5L-201.1 250.5L-208.6 257.5L-209.8 262.7L-207.9 266.4L-185.4 289.8L-180.9 290.3L-169.4 287.1L-162.6 289.8L-130.7 290.1L-122.3 294.3L-108.5 295.7L-97.6 305.4L-92 304.1L-85.9 309.9L-79.3 309.4L-73.7 315.7L-60.7 312.5L-58.3 313.6L-46.1 323.3L-45.2 325.9L-50.2 341L-50.5 349.2L-67.3 382.8L-67 397L-60.7 413.8L-51.6 413.8L-50 412L-34.4 419L-23.4 420.8L-11.4 418.1L2.1 420.3L7.1 424.2L8.5 430.9Z" data-fill="1"/>
    <path class="wa" d="M681.8 169.2L677.4 167L680.7 164.3L688.9 163.6L690 157.3L695.2 153.2L693.3 159.9L695.2 164.3L699.7 165L705.3 162.9L716.9 165.6L731.9 156.7L741.7 156L752 151L719.3 173.9L711.3 172.3L686 175.2L681.8 169.2Z" data-fill="1"/>
    <path class="wa" d="M711 492.8L707.5 486.4L708.2 483.6L716 480.3L719 481.3L725.2 474.2L727.9 475.2L736.5 488.9L735.8 495.9L725 499.6L718.8 499.3L715.9 493.8L711 492.8Z" data-fill="1"/>
    <path class="wa" d="M-114.1 81.7L-120.2 66.8L-114.4 61.9L-108.7 63.5L-100.9 69L-102.9 78.5L-99.9 86L-102.3 85.1L-99.2 94.9L-105.9 96.8L-114.1 81.7Z" data-fill="1"/>
    <path class="wa" d="M566.3 -142.9L571.1 -137.9L571.1 -133.3L575.8 -134.2L579.5 -130.4L580.6 -123.5L591 -126L595.4 -122.3L594.8 -117.6L601 -124.2L608.3 -127.6L606.8 -132L600.5 -135.2L594.1 -135.7L591.6 -133.9L585 -135.2L576.1 -138.8L569.3 -145.8L566.2 -145.2L566.3 -142.9Z" data-fill="1"/>
    <path class="wa" d="M570.7 852.9L577.5 850.8L583.1 844.6L589.1 846.3L597.9 840.7L607.7 841.6L601 850.6L592.6 851.5L588.6 849.6L583.5 853L572.6 855.2L570.7 852.9Z" data-fill="1"/>
    <path class="wa" d="M708 430.4L710.9 433.4L715.2 448.7L711.8 452.1L699.4 455.4L698.7 465.3L715.6 472.7L719.7 471.7L721.1 467.5L716 460.2L715.2 455.3L721 452.1L726.3 453.4L738.1 467.2L737 479.9L754.7 490.7L762.3 505.5L753.4 491.2L736.4 480.8L736.3 467.2L724.8 454.2L720.7 453.3L716.5 455.8L722.7 468.8L720.2 472.9L715.1 473.8L698.1 467.1L698.6 454.4L712.2 450.6L714.1 448.2L708 430.4Z" data-fill="1"/>
    <path class="wa" d="M762.3 418.1L765.2 411.6L761 398.9L760.3 374.9L752.1 358.2L752 351.9L747.1 338.1L742.5 333.9L740 334.7L733.8 332.1L731 328.8L731.2 318.2L723.8 305.7L723.3 298.6L714.5 296.4L710.2 298.8L705.2 297.6L700.3 299.6L691.3 296L687.4 288L678.5 291.9L669.1 289.3L668 287.3L678.8 290.8L687.3 286.9L692.1 295.2L701 298.6L715.6 295.4L723.8 297.9L724.7 305.9L731.9 316.8L731.8 328.1L737.7 332.6L743.5 333.3L748.9 338.6L753.2 358.1L761 374L762.8 383.1L762.1 399.7L766.4 411.2L762.3 418.1Z" data-fill="1"/>
    <path class="wa" d="M1015.7 673.7L1027.5 679.9L1021.9 693.2L1018.4 691.5L1016.7 686L1009 683.9L1011.2 674.9L1015.7 673.7Z" data-fill="1"/>
    <path class="wa" d="M729.4 762.7L723.8 762.8L732.8 771.4L735.8 783.1L734.3 786.7L740.8 788L745.1 784L729.4 762.7Z" data-fill="1"/>
    <path class="wa" d="M422.1 1118.3L419.9 1116.1L411.3 1125.6L414.7 1121L413.3 1120.3L415.5 1119.1L414 1118.4L405.6 1130L424.7 1127.9L423.3 1127L425.8 1125L424.5 1122.5L422.8 1122.7L422.1 1118.3Z" data-fill="1"/>
    <path class="wa" d="M795.1 992.1L801.9 1007.8L812.4 1007.3L804.3 991.8L795.1 992.1Z" data-fill="1"/>
    <path class="wa" d="M753.7 973.1L758.6 975.3L765 975.2L770.1 971.1L774.9 970.1L775.9 968.6L773.5 960.2L771.2 963.9L768.6 963.8L768.7 965.5L760.7 970.7L753.9 970.9L753.7 973.1Z" data-fill="1"/>
    <path class="wa" d="M876 1132.4L870 1125L865.2 1122.7L852.2 1130.7L850.8 1133.4L852.8 1134.7L856.3 1132L864.6 1130.4L876 1132.4Z" data-fill="1"/>
    <path class="wa" d="M861.7 662.1L863.1 654.1L867.1 648.5L866.5 645.5L868.7 648.2L883.2 637.6L880.4 642.7L869.5 649.5L873.6 652.2L877.2 649.1L882.6 648.9L880.1 657.5L877.2 657.8L875.6 653.8L868.8 650.1L864.6 655.8L863.2 662.5L861.7 662.1Z" data-fill="1"/>
    <path class="wa" d="M387.6 1075.6L381.4 1076.8L380.6 1075.1L387 1057.6L391.3 1061.3L387.6 1075.6Z" data-fill="1"/>
    <path class="wa" d="M753.6 758.1L757.7 754.7L759.9 758.9L767.7 756.2L769.7 757.2L763.2 763.7L758 765.8L753.6 762.6L753.6 758.1Z" data-fill="1"/>
    <path class="wa" d="M536.1 1134.9L537.3 1129.6L542.2 1128.7L540.1 1127.1L542.7 1121.4L546.3 1122L544.3 1128.7L547.1 1133.3L542.9 1137L539.7 1135.8L538.3 1140L537 1138.6L534.7 1139.6L536.1 1134.9Z" data-fill="1"/>
  </g>
  <g class="layer" data-kind="waterway">
    <path class="ww" d="M-404.7 -158.4L-398.5 -145.1L-389.2 -139L-385.6 -132.7L-390 -103.9L-376.7 -102.2L-359.8 -91.7L-332 -58.3L-324.3 -56.6L-314.1 -49.3L-310.3 -36.5L-299.9 -23.2L-261.4 -10.9L-256.7 -4.4L-254.4 9.6L-261.7 38.6L-274.8 70.4L-274.4 80.8L-266.9 88.2L-251.2 87.1L-242.2 89.3L-232.6 93.9L-226.5 100.8L-227.2 120.3L-239.2 150.1L-245.7 154.8L-246.1 171L-249.7 173.3L-251 178.6L-245 188.1L-228.5 197.1L-202.8 200.4L-196.3 205.1L-196.3 208.7L-200.1 212L-218.3 219.5L-233.8 218.4L-228.4 233.1L-220.3 234.1L-194.8 226.4L-186.9 233L-209.3 257.4L-208.6 266.5L-185 290.5L-169.6 287.7L-161.3 290.4L-131.2 290.8L-105.9 298.1L-98 305.8L-90.8 305.4L-86.3 310.3L-78.7 310.4L-74.7 316.1L-59.7 313.3L-48.2 322.4L-46.1 326.9L-51.1 340.9L-51.2 348.8L-68.1 382.6L-68.5 395.2L-60.5 415L-48.4 414.9L-23.5 422.3L-8.8 420.6L2.4 423.1L5.9 426.2L12 443.7L26.4 448.7L53.9 450.4L74.4 439.7L83.3 450.2L86.5 456.9L84.9 460.3L73.5 461.6L68.4 465.8L72.4 475.9L71.8 491L59.1 495.6L46.5 506L37.6 522.3L37.1 530.2L39.4 533.5L88.6 561.1L98 564.1L108.8 563.6L125 541.2L131.4 539L146.7 541.4L154.2 539.1L171.7 527.4L180.1 511L205.7 497.2L215 497.8L213.8 506.5L219.5 520.1L231.7 528.6L267.6 546.4L274.3 559.8L284.3 570.2L287.6 583.4L296.5 585.7L319.9 583.6L337.7 597.5L352.4 596.3L371.6 587.5L384.9 587.1L394.2 578.6L414.8 567.8L439.9 546.4L446.5 545L457.7 548.9L460.4 554.7L457.3 564.1L465.5 584.9L504.2 628.5L513.2 652.1L530.5 673L535.7 672.9L541.5 676.5L544.9 686.3L582.5 699.8L587.3 704.2L597.7 700.7L624.3 701L631.1 705.9L639.2 706.2L653.9 713.9L666.7 712.8L675.1 720.8L693.9 725.6L712.6 740.1L714 754.5L719.6 759.9L724.6 770.1L732.2 774.2L733.4 784.4L729.6 790.2L732.7 803.2L743.5 804.2L753.1 810.9L760.6 808.2L762.5 816L770.5 813.6L774.9 818.1L779.9 812.1L788 819.1L791 831.8L788.5 837.8L792.4 857L784.7 861.7L783.1 866.8L776.5 868.6L776.8 875.1L771.2 879.5L767.5 878.6L747.2 907.1L755 940.1L761.7 957.7L757.5 957.3L750.1 961.6L749 968L742 968.7L739 975.1L733.8 971.8L730.2 975.9L732.7 982.8L731.4 987.9L734.5 993.5L733.4 1001.6L743.3 1017.5L756.9 1013.6L757.2 1005.7L767.7 1007.6L775.6 1019.2L776.4 1028.5L780.9 1031.4L795.7 1032L800.8 1038.4L806 1038.9L812.5 1045.1L817.4 1045.3L819.6 1050.3L827.8 1049.2L846.1 1062.4L851.2 1061.1L856.5 1055.4L861.9 1059.1L871.4 1057.2L879.3 1065.7L890.6 1068.3L906.2 1065.8L909 1062.5L926.2 1056.4L937.3 1079.7L937.6 1093.2L941.7 1106.5L948.4 1111.2L973.3 1115.3L974.6 1122.9L980.9 1126.3L987.7 1149.7L985.8 1154.2L986.8 1163.9L993 1177.8L1003.9 1180.9L1009.5 1185.4L1017 1185.1L1022.2 1189L1027 1185.6L1035.6 1185.7L1039.4 1177L1042 1176L1066.6 1179.9L1072.6 1184.5L1081.9 1184.1L1085.1 1189.1L1096.1 1187.5L1101 1195.6L1093.4 1206.1L1099.7 1215.8L1104.4 1218.1L1112.9 1214.6L1120.8 1216L1121.8 1223.3L1127.7 1231.1L1137 1230.8L1144.4 1220.6L1148.5 1220.1L1156.2 1232L1154.2 1242.1L1162.1 1248.1L1167.2 1258.2" style="stroke-width:4"/>
    <path class="ww" d="M1335.1 1076.8L1333.6 1069.8L1329.1 1065.1L1306 1068.9L1301.6 1063.3L1292.7 1060.6L1291.8 1057.2L1297.3 1044.8L1289.3 1047.5L1276.8 1035.2L1265.6 1034.9L1260.9 1019.7L1255.5 1015.5L1254.3 1011L1242.2 1022.2L1236.3 1023.2L1229.1 1020L1218.5 1008.4L1215.1 995.9L1210.5 993.6L1206.6 995.8L1202.5 984.8L1192.1 981.2L1190.3 974.9L1180.7 967.3L1181.2 960.1L1184 956.5L1197.8 960.6L1200.8 953.9L1187.3 939.5L1182.4 928.6L1175.6 921.1L1164.2 920.8L1153.4 931.3L1142.2 933.4L1137.1 931.7L1125.2 939.2L1115.5 937.1L1110.6 923.1L1130.3 878.1L1130.6 872.8L1125.7 864.1L1140.5 854.2L1130 831.4L1122.5 832.6L1110.4 826.2L1097.3 813.8L1090.1 784.3L1083.6 776.2L1083.3 757.9L1040.3 747.6L1032.1 738.9L1022.4 735.8L1016.6 728.5L1010.1 731.2L1009.3 695.4L999.3 681.9L992.9 677.7L980.6 676.8L975.4 678.7L980.1 699.1L974.9 707.4L970.8 708.1L957.5 699.6L950.9 678.4L944.6 671.2L947.2 659.3L936.8 646.9L936.5 638.1L931.4 629.2L921.1 627L904 630.1L899.6 633.1L901.5 638.2L897.4 639.5L887.3 629.5L880.3 626.6L871.1 631.6L858 627.7L855.6 621.4L857.1 615.1L865.7 610.4L853.6 591.3L860.3 572.3L860.8 562.9L856.9 556.2L860.5 536.7L857.7 528.9L843.4 523.3L827.7 526.2L801.5 524.7L793.9 522L777 527.9L762.9 524.1L762.3 508.4L766.9 496.3L761.3 481.7L760.1 460.8L748.7 445.6L756 437.6L766.3 432.8L760.8 421.5L765.8 411L761.6 398.4L762.1 378.5L752.6 357.5L748.8 339.9L743.6 333.9L737.6 333.2L731.8 328.7L731.8 318L724.4 305.8L722.9 297.7L715.1 295.9L700.1 298.9L691.1 295.2L688.1 287.7L678.9 291.3L669.4 288.8L653.5 280.7L651.1 276.9L653 273.1L633.3 262.6L627.3 253.4L625.8 240.6L629.7 233.5L625.9 222.4L620.6 215.8L620 204.9L629.8 201.7L637.7 192.4L646.1 190.9L650.7 183.4L640.7 169.3L640.9 159.1L644.9 147.9L640.5 125.7L643 107.4L636.5 99.9L627.1 98.1L622.5 93.3L625.5 72L620.9 65.1L624.1 62.3L626.8 51.3L633.8 47.5L637.2 36.1L632.3 33.7L625.8 34.7L624.9 27L628.5 16L621.8 15.9L611.1 5.5L619.7 -13.6L626 -21.3L630 -35.1L638.8 -46.2L649.9 -79.9L651.3 -131.7L658.6 -157.6L649.9 -175.9L653 -180L648.2 -185.8L649.2 -189.1L645.5 -191.4L647.5 -197.1L652.2 -198.2L649.7 -202.5L651.6 -206.7L647.2 -209.9L661.4 -219.4L667 -229.2L678.5 -240.2L676.9 -252.6L679.8 -283.4L688.1 -298.1L691.2 -319L678.5 -327.5L677.8 -342.3L675.1 -344.7L677.8 -353.3L673 -356.9L670.6 -367.7L676.8 -378.8L672.5 -383.8L670.5 -399.6L664.1 -404.3L660.7 -413.5L661 -423.1L657.4 -424.2L657.3 -427.7L653.6 -430.9L653.1 -440L649.4 -448L653.6 -452.5L655.4 -462.7L652.8 -467.9L653.1 -475.9L647.1 -484.8L649.7 -492.6L647.2 -503.7L646.4 -532.8L636.8 -550L635.6 -558.4L623.2 -565.4L607.2 -565.7L605.6 -574.3L602.8 -573.6L599.6 -578.1L600 -582.4L595.4 -588.4L589.7 -591L588.6 -595.9L585.1 -596.5L583.6 -614.6L576.7 -625.7L571.7 -626.1L564.9 -619.5L561.1 -622.5L562.3 -629.3L541.4 -628.8L533.5 -636L518.6 -630.2L477.9 -655.2" style="stroke-width:4"/>
    <path class="ww" d="M317.2 -335.9L318.6 -326.3L330 -311.2L331.2 -300L318.4 -276.5L309.7 -247L295.9 -236.4L290.5 -237.2L276.1 -212.9L273.9 -197.6L270.3 -191.6L270.6 -178.3L292.2 -151.3L300.4 -147.7L301.6 -130.2L304.7 -126.6L305.2 -117.8L302.8 -114L307.8 -110.8L305.5 -105.7L309.4 -97.1L320.7 -86L327.2 -83.4L328.9 -77.4L346.1 -62.2L342.9 -52.1L336.7 -46.5L334.5 -32.5L340.3 -24.1L336.5 -21.7L337.5 -12.2L333.1 -9.9L334.1 -4.1L328.2 1.6L328.3 10.3L343.7 20.3L345.5 29.3L350.6 31.5L360.8 47.8L370.4 51.1L372 54.3L368.6 57.9L378.7 64.4L387.2 78.1L393.6 98.5L388.5 114.8L391.9 115.2L392.3 122.4L397.4 130.4L403.2 129.5L419.4 133.3L430.4 146.6L425.6 158L434.1 170.6L427.5 183.9L412.1 197.3L414.7 205.5L406.6 211L406.7 214.5L414.9 218L417.2 225.6L426.3 236.2L426 244.3L431.7 247.7L437 255.4L442.7 257.3L444.8 264.7L468.2 276.2L477 286.9L495.3 285.9L503.5 294.9L504.5 299.4L501.8 306.4L507.3 314.9L519.5 311.2L526.3 312.1L528.2 334.1L534.2 335.7L540.9 331.1L544.8 344.4L554.6 345.7L555.5 349.3L559.2 350.8L569.1 348.3L585 322.4L587.6 324.4L589.6 336L598 335.3L601.5 331.4L605.4 345.2L608.5 341.9L608.6 333.4L617 325.1L619.4 326.8L620.5 334.9L630 343.2L639.7 340.7L644.2 335.1L654 340L661.9 355.7L676.8 407.5L694.4 426.4L704.1 428.8L710.5 433.9L714.5 449.1L699 454.8L698 465.6L715.1 473.1L719.7 472.6L721.5 467.6L716 455.4L721.5 452.7L726 454L737.4 467.3L736.9 481L754.9 491.9L762.3 508.4" style="stroke-width:4"/>
    <path class="ww" d="M165.2 275.9L173.3 286.2L183 289.5L183.4 292.6L196.8 295.3L207.5 308.5L213.5 324.1L226.9 338.1L259.6 346.6L264.2 352.7L276 350.3L287.9 358L296.1 357.8L300.8 364.5L310.8 363.2L313.4 367.8L322 370.8L330.7 371L333.6 368.7L335 370.8L340.7 366.3L357.6 365.6L363 362.7L367.2 367.2L391.7 372.6L400.1 379.4L410.7 381.3L429.1 390.5L469.8 404.3L470.5 421.6L466.4 424.6L467.3 438.7L463.8 447.3L465.7 454.8L483.5 461.4L500.2 473.3L517.9 477.2L559.7 510.9L564.3 512.5L572.4 509.9L583.2 521.4L585.3 520.2L587.1 523.7L593.3 523.8L593 526L596.6 526.2L597.8 522.7L603.4 525.8L610.3 525.3L622.6 538.2L632.5 541.9L637.3 548L633 559.6L638.4 567.4L639.3 576.2L644.5 580.2L654.4 581.5L668.3 574.9L673.4 566.5L678 564.9L680 555.7L688.7 547L706.7 556.6L710.8 562.3L718.8 555.1L730.3 557.8L734.9 566.3L743.7 562.7L757.4 562.6L760.6 556.5L771.2 547.4L781.6 556.2L786.6 569.4L796.2 571.8L794.2 577L796.8 582.2L795.4 594.2L805 598.5L806.1 610.5L812.2 614.6L824.4 614.4L828.6 619.7L832 619.7L841.2 626.6L849.9 620.6L855.6 621.4" style="stroke-width:2.2"/>
    <path class="ww" d="M890.3 -51L896.6 -46.9L901.5 -34.7L908.2 -28.4L918.2 -23.7L928.8 -25.1L936.2 -12.6L937.1 -4.7L944.4 4L938.7 15.8L942.7 28.3L941.7 34.7L957.2 69.7L965.3 105L961.1 123.9L963.4 131L962.5 138.7L952.5 159.7L959.5 172.2L956.9 175.3L961.7 181.5L958.9 184.8L959.7 187.9L970.5 192.3L975.6 197.9L983.8 194.2L983.2 197.2L986.8 201.4L993.4 202.3L992.9 211.1L998.8 225.4L1004.8 235.2L1009.8 238.2L1008 252L1017.1 260.4L1014 269.7L1019.6 274.4L1006.6 298.8L1007.5 326.6L1005.3 327.7L1003.5 338.1L998.7 339.9L994.5 367.9L1006.1 383.7L1006.9 391.3L1004.7 395.4L1010.8 397.3L1021.7 413.6L1030.8 421.6L1030.2 424.9L1034.6 426.8L1034.9 431.2L1039.7 434.7L1041.7 441.4L1044.5 441.4L1049.4 449L1046 455.5L1051 459.6L1060.6 484.8L1063.5 544.9L1053.4 556.3L1061.9 577.5L1058.6 586.3L1059.9 592.5L1056.4 598.2L1057.5 610.9L1052.4 620.1L1054.9 626.2L1044.5 637.7L1051.1 643.5L1046.6 653.6L1051.4 655.4L1048.4 662.5L1043 665.3L1042.2 675.4L1034.3 679.9L1031.3 687.8L1025.3 691.9L1022.4 699.7L1022.9 706.5L1016.9 712.7L1020.5 721.8L1016 728.4M1188.2 544.5L1184.4 545.9L1183.9 551.8L1179.1 556.1L1164.3 555.4L1157.7 562.4L1140.8 557.3L1119.7 563.5L1102.3 564.7L1099.7 569.9L1095.4 570.1L1090.4 577.8L1083.1 582.9L1081.2 593.7L1078.9 593.3L1075.1 599.8L1076.9 601.1L1075.4 604.7L1072.3 603.4L1069.9 606.4L1062.9 607.7L1060.2 605L1057.6 607.9" style="stroke-width:2.2"/>
    <path class="ww" d="M1065.2 147.7L1068.3 152.3L1066.3 159.2L1068.3 166.6L1076.5 169.8L1081.2 175.5L1078.9 176.4L1081.4 183.9L1080.8 193.3L1075.8 208.4L1083 219.8L1105.3 229.5L1110.8 227.5L1122.6 235.4L1126.2 233.9L1127.5 236.7L1129.4 235.2L1138 237.3L1143.4 241L1146.7 240.1L1149.2 234.8L1163.6 230.4L1169.3 225.9L1177.2 238.4L1176 241.6L1179.4 243.9L1185.6 235.6L1188.5 235.2L1185.5 228.6L1185.8 222.8L1189.1 220.4L1185.7 213.5L1186.7 208.7L1194.9 203.2L1198.1 192.4L1203.7 190.3L1207.7 191.7L1215.3 181.1L1223.5 185.6L1235.1 185L1236.5 188.1L1248.4 194.7L1254.4 191.9L1266.8 197.2L1288.2 193.7L1300 197.9L1308.8 192.1L1319.8 191.3L1323.1 186.5L1327.3 186.2L1331 180.7L1338.4 178.5L1343.7 171.7L1350.3 168.8L1354.4 162.4L1360.7 164L1361.7 160.5L1365.1 159.8L1367.2 165.3L1373.5 163.5L1394.9 171.1L1399.2 169.8L1396.9 161.9L1402.1 156.8L1401 148.3L1409.3 138.7L1402.8 128L1404.1 120.6L1409.7 119.7L1414.9 105L1424.7 106.5L1425.9 104.3L1432 104.1L1448.9 93.3L1445.5 89.5L1446.4 86.7L1442.9 84.7L1448.8 82.4L1447.2 76.8L1451 75.6L1449.3 71.5L1453 69.1L1453.1 64.9L1456.3 61.9L1453.3 52.4L1455.1 46.4L1451.5 45.3L1454.4 40.5L1453.6 29.5L1463.2 28.8L1468 23.9L1479.5 20L1481.8 15.6L1478.1 4.6L1481.5 3.4L1483.2 -2L1488.5 -1.4L1489.1 -3.9L1486.4 -3.6L1488 -6.4L1496.4 -7.7L1499.3 -18.3L1496.8 -20.6L1497.6 -24.7L1514.1 -38.8M971.1 -169L981.9 -113.6L978.7 -109.1L982.3 -91.3L980 -86.8L982 -68.5L977.9 -56.8L978.7 -48L986.5 -33.5L989.1 -15.2L993.1 -12.4L1000.5 -12.3L1005.6 -2.6L1011.8 0.8L1019.8 24.7L1024.1 29.5L1025.7 39.6" style="stroke-width:2.2"/>
    <path class="ww" d="M18.8 842.8L17.8 845.5L14.8 845.5L14.6 853.9L9.6 857.7L7.7 862.8L-3.5 867.9L-5.6 874.1L-10.5 876.2L-12 880.2L-21 881.2L-31.4 893.1L-36.7 893.5L-45.9 905.1L-58.3 903.8L-68.5 906.9L-68.4 914.8L-70.5 919.3L-73.7 918.8L-72.2 924.4L-76.1 933.6L-67.9 941.3L-61.8 955.5L-56.7 961L-60.6 971.3L-57.1 974.1L-59.2 983L-63.9 987.3L-58.7 1001.1L-72.2 1010.9L-66.8 1034.9L-78.3 1040.8L-87.8 1055.4L-87.7 1058.8L-94.1 1065.5L-76.6 1082.6L-74.6 1091.2L-75.2 1117.1L-81.9 1126.1L-84.6 1138.1L-81.3 1144.2L-69.2 1153.7L-65.4 1153.7L-62 1163.5L-48.6 1167.6L-48.7 1177.2L-43.2 1192.8L-42.9 1201.7L-27.1 1207.7L-19.2 1198.8L-16.6 1199.1L-18.3 1211.9L-13.3 1220.6L-16.1 1235.6L-19.4 1236.9L-20.1 1240.3L-10.1 1244.4L-10.1 1251.1L-4.2 1255.2L-0.6 1264L-2 1269.1L8.7 1276.1L15.2 1286.2" style="stroke-width:4"/>
    <path class="ww" d="M-28.9 -34.5L-26.2 -30.6L-20.1 -28.5L-19.5 -21.6L-1.4 3L11.2 7.2L19.4 20.6L30.3 24.6L30.8 37.9L43.6 42.8L54.5 56.9L59.7 56.3L67 64.1L81 71.2L93.4 73.5L100.2 70.5L105.6 72.4L110 71L129.9 80.6L137.8 77.4L141.9 84L145.5 82.5L144.3 87.9L153.9 89L159.3 87.1L173.1 80.5L174 76.8L177 80L183.9 79.6L193.6 62.5L199 60L198.3 55.4L203.1 44.9L224.5 37.9L228.2 34.1L232.3 37.7L240.9 30.9L241.7 35.8L244.8 36.4L247.8 42.5L260.7 42.3L273.2 29.5L280.9 32.7L287.8 39.3L298.1 39.6L297.4 34.1L302.1 29.2L307.3 28.7L311.9 23.3L320.7 23.5L317 17L327.1 15.9L336.1 20.4L340 17.1" style="stroke-width:2.2"/>
    <path class="ww" d="M1042.4 -88.3L1056.4 -89.4L1071.6 -101.4L1077.6 -103.1L1080.3 -100.6L1090.2 -104.5L1094.8 -100.2L1116.6 -106.1L1122 -102.9L1135 -108L1138.4 -114.9L1146.2 -121L1149.8 -120L1149.8 -123.1L1157.9 -127.2L1168.8 -125.2L1178.2 -128.3L1189.8 -127.2L1193.1 -133.5L1201.7 -124.2L1207.5 -123.8L1209.9 -111.9L1214.2 -111.4L1218.3 -115.4L1224.3 -111.4L1229.6 -114.3L1230.5 -111.1L1248.6 -111.7L1254.5 -108.9L1255.6 -102.5L1251.3 -96.6L1261.7 -92.7L1260.5 -89.3L1262.7 -85.2L1270.8 -78L1271 -80.4L1274.1 -79.4L1282.2 -83.2L1288 -95.5L1294.9 -102.9L1303.6 -103.2L1313.2 -98.8L1326.9 -100L1331.5 -104.5L1333.8 -102.7L1342.4 -105.9L1350.1 -102.7L1354.1 -112.8L1363.4 -106.9L1377.7 -109.2L1381.6 -114.5L1380.9 -129.8L1395.6 -130.4L1407.2 -134.2L1413.2 -143.3" style="stroke-width:2.2"/>
    <path class="ww" d="M1252.7 520.2L1274.1 537.4L1276.2 550.3L1269.1 570.1L1268.8 578.3L1264.4 581.6L1261 596.7L1257.9 598L1255.3 604.6L1249.6 633.6L1240.2 651.4L1236.6 667.1L1233.9 702L1256.1 766.3L1267 784.6L1277.8 829.7L1299.2 851.7L1303.7 866.9" style="stroke-width:2.2"/>
    <path class="ww" d="M-364.2 1042.1L-348.4 1053.2L-345.2 1061.1L-340.4 1065L-340 1069.7L-332.8 1070L-330.2 1073.3L-327.2 1069.7L-322.6 1072.9L-319.8 1069.6L-315.9 1070.2L-310.8 1075L-297.6 1065.1L-274.3 1080.7L-267.8 1079.8L-268 1084.6L-263 1088.9L-268.7 1099.5L-262.1 1111.7L-259.3 1128.1L-265.8 1147.3L-262 1151.4L-265 1163.4L-256.4 1171.1L-244.1 1173.7L-249.6 1189.1L-255 1192.1L-256.4 1209.5L-243.6 1214.2L-241.6 1218.4" style="stroke-width:4"/>
    <path class="ww" d="M170.8 857.8L170.2 864.6L179.7 879.7L185 917.3L188.6 921L189.3 926.9L193.4 929.5L191.1 952.3L195.2 953.5L195.2 961L200.2 964.9L200.2 971.1L203.8 970.5L207 973.6L209.7 983.5L205.3 992.5L206.3 1013.3L203.3 1017L207.5 1021.6L204.7 1031.2L207.8 1033.4L208.7 1044.7L216 1061.8L211.7 1075L215.5 1089.9L204.2 1113.5" style="stroke-width:2.2"/>
  </g>
  <g class="layer" data-kind="park">
    <path class="pk" d="M1115.8 -19.5L1118.1 -17.6L1128.3 -19.3L1135.5 -16.8L1151.3 -3.1L1171.9 8.2L1174.1 18.3L1173.8 22.3L1157.5 20.9L1152.8 18.7L1149.5 12.9L1119.8 -9.3L1116.9 -16.9L1114.7 -18.4L1112.6 -16.5L1107.5 -24.6L1103.9 -23.3L1091.8 -36.2L1086.9 -33.2L1081.4 -32.8L1083 -13L1088.3 -14.8L1095.3 -8.8L1106.4 9.2L1100.4 16.4L1120.4 37.9L1126.6 42.3L1137.4 46.5L1153.4 44.9L1182.5 28L1180.4 10L1171 0.9L1133.7 -27.4L1125.1 -24.6L1112.5 -24L1115.8 -19.5Z" data-fill="1"/>
    <path class="pk" d="M550.8 347L552.1 344.8L544 343.8L542.5 340.3L544.2 335.6L539.3 330.1L536.1 334.9L529.4 334.7L527.7 332.5L526.2 321.1L527.8 314.3L526.1 311.2L521.2 311.6L519.9 305.6L522.6 300.4L518.3 295.6L522.4 290.9L528.8 287.7L527.2 290.5L532.8 300.4L539.3 298.9L540.9 300.1L532.6 300.9L531.6 299.2L529.8 302.2L531.6 303.1L530.5 305.8L534.4 307L535.2 309.9L530.9 315.8L534.5 319.5L538.6 314.9L537.2 313.3L542.6 315.4L536.5 321L536.5 325L543.8 326.9L552.8 317.4L550.9 315.9L553.4 316.8L550.3 309L541.3 302.2L542.5 300.1L556 308L554.5 313.7L555.7 316.1L557.9 314.2L556.2 316.5L560.7 317.3L562.1 307L563.7 306.7L564.8 316.5L563.1 318.6L565.2 320.2L562.8 318.9L558.8 322.2L560.6 326.8L572.8 329L571.9 325.7L573.7 328.4L576.1 323.9L570 318.9L573.9 317.4L573.9 315.2L574.3 317.4L578.3 316.7L579.5 308.5L576.7 307.8L579.4 307.9L580.2 302.9L575.1 302.7L571.7 300L579.9 300.9L581.1 293.1L585.2 293.6L583.8 298.3L585.7 300.9L592.4 297.7L590.4 300.6L590.9 307L587.5 310.3L590.4 310.5L587.4 310.7L586.7 314.8L590.3 321L599.3 321L597.7 317L599.7 320.9L603.2 316.4L600.6 311.1L602.8 304.4L609.6 303.7L613.7 296.9L612.8 288.5L621 292.9L625.2 281.9L631.1 284.3L620.2 300.8L628.8 306.2L637.3 307.6L619.8 331.7L619.3 325.3L612.4 328.2L607.5 335L608.1 341.5L605.7 344.6L602.2 331.6L600 330.8L597.1 334.9L589.1 333.8L587.8 323.4L584.8 321.7L575.5 334.2L573.6 339.2L575.7 340.8L570.4 348.6L556.9 351.1L550.8 347Z" data-fill="1"/>
    <path class="pk" d="M273.9 892.1L261.5 921.7L252 959.1L208.5 953.1L244.9 889.9L258.4 887.9L273.9 892.1Z" data-fill="1"/>
    <path class="pk" d="M265.5 878.1L276.3 883.2L273.9 892.1L258.4 887.9L237.8 890L235 888.9L228.8 879.9L224.2 851L230.8 823L232.7 821.3L238.1 823.4L241.5 829.1L265.5 878.1Z" data-fill="1"/>
    <path class="pk" d="M43.2 282.1L56.8 300.4L40.7 309.2L39.1 317.5L32.9 314.6L30 323.8L25.7 323.6L19.4 327.6L14.7 318.4L19.6 306.9L15.9 296.1L20.9 288.2L18.3 276.2L12 267.3L19.9 262.1L31.1 264L43.2 282.1Z" data-fill="1"/>
    <path class="pk" d="M668.8 167.1L677.1 166.4L681 161.2L686 164.9L688.9 161.4L686.6 158.6L687.9 156.1L682.9 151.9L683.8 149.7L698.9 150.6L698.9 153.4L694.3 160L696.5 163.7L702.7 162.5L703.4 158.3L707.5 161.7L714.9 163.2L716.8 165.9L719.8 164.5L715.9 159.5L716.5 153L721.5 161.5L731.6 154.8L733.7 147.8L736.1 147.8L736.3 151.5L739.2 153.6L744.1 152.6L750 148.2L751.6 149.3L734.1 173.4L728.8 169.6L726.5 170.2L723.6 175.9L728.9 180.6L720.6 192.1L720.1 182.1L714.3 177.6L695 177.9L685 180L681.6 185.9L682.7 187.2L678.1 190.4L678.7 197.8L686.9 203.5L677.5 198.9L675.9 183.5L668.8 167.1Z" data-fill="1"/>
    <path class="pk" d="M601.6 673.3L594 691.2L586.1 688.8L587.4 702.4L582.3 699.2L550.5 689.1L545 685.5L542 676L530.4 671.5L534.2 667L548 673.1L566.7 667.7L570.1 661.2L601.6 673.3Z" data-fill="1"/>
    <path class="pk" d="M617.9 -50.1L615.1 -45.2L617.8 -42.7L622 -47.4L628.2 -43.2L625.8 -30.4L630.8 -27.9L656.5 -85.4L655.3 -105.5L649.3 -110.3L640.1 -102.7L631 -99.4L637.1 -85.1L637.1 -81.1L631.1 -76.3L631.1 -74.4L627.5 -74.5L627.6 -69.4L624.4 -69.4L624.5 -63.6L630.4 -61.8L629.7 -52.1L617.9 -50.1Z" data-fill="1"/>
    <path class="pk" d="M540.9 1056.5L535.7 1063.5L536.9 1064.3L535.2 1068.3L532.5 1070L530.3 1076L538.4 1082.7L543.1 1093.5L542.1 1100.4L548.5 1101.7L567.9 1100.7L576.6 1071.6L540.9 1056.5Z" data-fill="1"/>
    <path class="pk" d="M1260.2 -178.8L1249.2 -163.2L1250 -139.7L1267.6 -139.4L1272 -127.1L1292.4 -138.7L1283.9 -148.6L1289 -153.4L1279.8 -172.3L1276.8 -172.6L1269.3 -160.2L1261.8 -165.2L1263.1 -176L1260.2 -178.8Z" data-fill="1"/>
    <path class="pk" d="M791.9 497.9L785.1 497.9L785.2 500.5L781 500.6L781 502.6L785.2 502.6L785.3 510.5L767.3 510.7L767.4 513.8L759.4 513.9L759.2 505L763.7 494.5L760.7 460.2L771.3 459.4L776 477.4L798.5 470L799.5 474.4L797.3 474.5L797.5 477L791.9 475.5L791.9 497.9Z" data-fill="1"/>
    <path class="pk" d="M565.4 -27.2L571.7 -27.7L570.7 -39.9L591.8 -41.9L606.5 -40.2L608.1 -27.3L603.1 -11.7L586.9 -10.2L579.5 -16.4L566.4 -8.6L561.7 -27.7L565.4 -27.2Z" data-fill="1"/>
    <path class="pk" d="M91.3 1067L75.2 1063.3L65.9 1058L81.9 1029.3L87.3 1035.5L86 1032.5L89.4 1022.7L117.3 1031.9L114.2 1042.7L100.4 1038.5L91.3 1067Z" data-fill="1"/>
    <path class="pk" d="M991.3 1122.8L965.7 1093L963 1088.2L966 1083.8L960.4 1084.2L957.6 1077.6L966.3 1076.1L971.2 1080.3L981.4 1074L984 1076.3L990 1075.9L994.6 1080.5L994.4 1090.1L992 1096.2L997.5 1113.9L995.7 1118.9L991.3 1122.8Z" data-fill="1"/>
  </g>
  <g class="layer" data-kind="campus">
    <path class="cp" d="M923.4 417.4L945.9 387.7L962.1 400L968.1 392.1L977.7 385.2L982.1 389.2L985.8 387.9L1001.8 409.6L1005.8 407.3L1013.1 410.4L1016 420.2L998.4 432.6L995.9 447.9L990.4 460.9L965.3 448.8L923.4 417.4Z" data-fill="1"/>
    <path class="cp" d="M419.5 275.4L434.1 270.6L432.9 264.5L418 268.4L416.4 270.9L412 269L409.1 271.2L405.4 267.7L411.9 262.5L415.6 262.5L419.3 258.5L418.3 255.8L415 257.2L409.2 255.2L408.8 248.7L402.1 248.8L392.3 241.2L387.8 241.1L389.6 244L382.3 245.8L365.9 311.9L367.6 326.6L376.3 328.4L377.7 331L398.4 335L400.7 321.5L401.5 319.8L404.9 319.9L407.4 303.4L406.7 297.2L401.4 296.7L400.1 294.5L405.2 290.6L402.9 283.9L410.7 278.2L413.4 280.2L416.8 279L419.5 275.4Z" data-fill="1"/>
    <path class="cp" d="M870.1 217.7L897.5 176.4L891 171.8L902.9 154.7L896 154.5L890.9 152.1L880.7 136.7L875.5 131.9L869.9 131.1L870 133L861.7 137L848.2 157.2L856.5 162.7L850.9 172.2L860.5 178.8L835.6 214L850.1 220.1L863.2 217.2L870.1 217.7Z" data-fill="1"/>
    <path class="cp" d="M481.3 1075.7L466.7 1063.6L458.1 1059.2L416.7 1109.3L421.3 1114L426.6 1127.6L425 1129.3L410.6 1131.4L403.6 1145.3L426.9 1157.7L481.3 1075.7Z" data-fill="1"/>
  </g>
  <g class="layer" data-kind="highway">
    <path class="hw" d="M82.5 -43.9L163.9 5.2L239 72L321.5 105.7L389.3 153.2L417 161.9L474.5 164L503.7 170.3L630.5 225.4L689.4 254.1L711.7 272.4L761.4 324.6L796.4 345L805.6 354.1L812.5 369.2L819.9 423.5L829.9 445.6L844.5 465.3L1001.9 590.7L958.1 560.1L842.3 467.1L829.7 450.5L819.5 431.5L798 372.4L791.2 359.9L709.9 274.4L696.6 263.2L502.8 172.9L477.5 167.1L419.7 165L391.3 156.5L320.6 107L249.6 79.4L235.2 71.4L161 2.9L93.3 -39M1091 708.2L1077.5 676.1L1137.8 805.7L1208.2 856.8L1230 863.7L1378.3 874.4M1395.9 867L1382.7 872L1369.7 873L1230 862.1L1211.2 856.7L1138.7 804.9L1124.2 766L1111.7 750.7L1092.6 710.1M1050.7 636L1007.6 593.2L1059.2 642.2L1069 657.8L1076.5 676.9L1064.2 651.3L1050.7 636"/>
    <path class="hw" d="M1363.4 -87.4L1339.9 -69.1L1157.3 48L1135.4 68.5L1089.3 123.8L1027.6 188.8L989.8 218L937 253.7L856.7 317.8L829.7 332.1L771.7 350.6L753.8 361.5L739.1 374.5L722.1 397.1L663.1 502.1L648 517.1L615.3 536.4L595.4 554.3L580.4 575.5L551.5 635.1L542.6 648.8L484.4 711.7L444.9 747.5L434.2 769L419.6 830.2L411.5 851.2L350.4 953.9L312 1025L302.8 1037.4L290.8 1047.5L240.4 1072.1L223.5 1085.2L208.8 1107.2L191.4 1155.7M179.5 1191.3L194.2 1161.2L215.3 1104L224.5 1089L241.7 1074.7L294.3 1048.8L305.1 1039.9L315 1026.8L350.6 960.6L414.5 852.7L422.6 831L437.2 769.6L445.9 751.3L457.6 738L489.8 711L513.8 682.1L548.5 647L560.7 627.8L582.7 577.7L597.1 556.9L617 538.9L651.8 517.9L665.3 504.1L722.4 402.9L733.7 387.6L756.5 371.2L808 352.9L829.6 341.7L1055.3 172.8L1069.7 158.9L1089.2 129.5L1128.9 79.6L1154.8 53.3L1323.6 -56.5"/>
    <path class="hw" d="M659.4 1244.1L703 1147.8L738.9 1057.5L762.7 1015L796.2 966.3L821.4 935.5L882.3 876.5L949 797.4L1076.7 675.3L1057.4 689.7L1020.6 727.1L950.6 788.7L882.6 869.3L827.9 925.5L799.5 959.7L765.5 1010.4L746.5 1047.3L707.9 1144.3L686.7 1188.8M1281 341.8L1244.6 385L1231.2 406.5L1190.2 519.6L1167.5 562.9L1118.9 633.5L1079.6 672.9L1127.5 628.5L1155.7 590.9L1174.6 557.8L1192.1 520.1L1233.9 407.5L1249.2 384.7L1281.5 346.7"/>
    <path class="hw" d="M111.3 966.1L87.9 954.9L16.4 907.9L3.2 904.6L-13.8 905.5L-27.2 903.1L-106.5 861.6L-118.1 857.7L-136.5 855.6L-153.2 857.3L-131.9 857.3L-113.4 860.7L-34.1 900.4L-15.5 903.8L4.5 902.8L15.8 905.6L94.4 956.5L117.2 966.5L147.9 973L215.5 974.3L188.6 976.2L147.8 974.4L111.3 966.1M364.8 1008.7L373 1014.3L364.1 1005.2L345.1 977.7L335.8 969.8L323.7 965.1L309.3 964.5L258.7 971.5L215.5 974.3L253.4 973.5L310.6 965.6L324.2 966.4L339.4 972.5L345.1 977.7L364.8 1008.7M-272.1 872.6L-324.4 885.7L-259 871.7L-196.1 866.1L-153.2 857.3L-197.4 864.8L-272.1 872.6M454.8 1019L467.7 1021.5L450.3 1017.3L392.7 1021.3L372.2 1015.3L380.8 1020.2L394.1 1023L454.8 1019"/>
    <path class="hw" d="M313.2 508.7L332.2 494.1L387.5 423.5L427 367.2L445.7 329.4L463.4 278.7L462.6 275.8L434.2 350.9L389.9 417.3L327.5 496.4L314.4 506L280.4 520.8L272.3 529.5L261.4 548L280 523L313.2 508.7M211.6 665.4L205.2 696.5L183.7 748.1L181.6 748.5L206.7 692.2L227.5 611.3L261.4 548L227.9 606L211.6 665.4M55.8 972L86.1 916.9L61.4 957L3.9 1066.2L-21.4 1089.5L-19.9 1090.4L-2.1 1076.4L7.7 1063.5L55.8 972M547.4 123.4L519.9 177.7L557.7 107.2L606.6 28.8L547.4 123.4M-127.4 1173.9L-20.4 1090.8L-64.3 1123.1L-117.8 1167.5M702.1 -180.2L667.4 -104.4L651.7 -62.2L606.6 28.8L615.5 11.2"/>
    <path class="hw" d="M1096.4 15.9L1187.6 116.2L1232.7 152.5L1201.5 129.2L1076.5 -8.6L1059.2 -15.8L1020.2 -16.2L1002.8 -19.8L981.1 -31.5L970.9 -46L972.4 -48.2L972.6 -40.5L980 -30.1L1002.4 -18.1L1020 -14.4L1056.9 -14.2L1068.9 -11L1079.2 -4.1L1096.4 15.9M882.5 -169.9L921.9 -122.8L961.2 -110.2L972.8 -100.5L977.1 -85.3L970.6 -48L978.8 -85.2L974.3 -101.5L961.9 -112L928.7 -121.3L921.1 -125.6L881.7 -174.6M1255.6 165.9L1270.3 176.4L1232.6 150.5L1253.2 166.2"/>
    <path class="hw" d="M-54.1 -193.5L-40.3 -142.5L-21.3 -111.9L0.8 -93.6L82.5 -43.9M93.3 -39L-11.7 -104.3L-33.7 -130.8L-43.2 -154.1"/>
  </g>
  <g class="layer" data-kind="road">
    <path class="rd" d="M647.8 639.9L651.6 651.3L649.6 644.3L624.4 607.2L549 507.4L534.7 494.3L470.2 461.3L448.7 452.8L429 448L401.1 451.5L385.3 448L349.2 445.6L333.1 432.7L353 444.1L384.5 451.8L406.7 452.4L427.1 448.9L448.5 453.8L472.9 463.7L532.4 494.4L547.9 508.5L647.8 639.9M180.1 335.2L162.1 311.4L102.1 275L72.9 246.1M651.6 651.3L652.6 675.3L641.5 707.2L649.4 686.7M243.9 404.2L284.3 411L305.6 419.1M316.4 425.3L313.8 424.3L333.1 432.7L331.5 434.2L315.7 426.5"/>
    <path class="rd" d="M1026.2 258.6L1031.5 251.3L1036.1 249.1L1027.2 256.4L951.1 380L917.1 423.7L900.3 441.2L877.9 494.3L857.4 520.8L849.6 537L795.5 622.8L720.7 723.7L634.8 824.3M1042.9 245.1L1036.1 249.1L1062.1 237.1L1092.7 216.8L1215.3 111.3L1174.6 146.5M810.2 599L876.3 500.3L894.5 454.2M1275.4 68.2L1215.1 110L1217 109"/>
    <path class="rd" d="M847.4 56.5L843.4 39.7L842.7 6.4L835.7 -9.6L822.6 -20.1L779.1 -35.9L765.1 -45L753.1 -59.6L729.6 -103.6L755.5 -57.9L765.8 -46L779.4 -37.1L824.3 -17.9L834.8 -8.8L841.2 4.8L842.4 42.5L850.2 66.4L861.9 83.3L908.1 133.5L864.1 85.9L847.4 56.5M1030.8 247.1L1034.1 250.6L1016.7 209L1000 186.1L973.3 166L910.3 135.1L909 132.2L918.8 140.7L956.9 158.8L988.3 179.2L1006.2 212L1030.8 247.1M728.1 -103.7L713 -129.5L688 -145L711.6 -128.4L728.1 -103.7M659.3 -154.7L682.5 -145.8L671.1 -153.5L659.8 -156.5"/>
    <path class="rd" d="M274.3 -172.3L260.6 -153.3L227.6 -130.3L127.4 -6.7L121.1 47.8L103 103.6L69.9 151.2L48.4 187.4L-16.7 275.6L-45.4 287L-51.3 300.3L-50.4 319.7"/>
    <path class="r2" d="M1168.1 172.8L1173.1 178L1190.2 186.6L1203.5 199.9L1208 211.4L1206.2 223.1L1185.1 252.7L1166.8 268.3L1150.4 274.2L1126 302.1L1114.2 310L1103.6 343L1083.9 372.5L998.8 433.7L995.8 451.4L987.1 469.7L990.5 514.9L989.4 539.1L973.2 583.6"/>
    <path class="rd" d="M684.4 210.8L670.8 206.2L713.5 223.1L756.3 217.2L818.9 177.2L869.9 125.4L882.3 111.7L881.6 109.8L850.5 145.5L847 146.4L805.9 187.5L771.2 205.5L755.8 216.3L715.3 222.2L684.4 210.8M905.7 29.6L905.7 20.2L904 51.9L898.5 73.8L905.1 45.5L905.7 29.6M951.3 -38L912.2 -8.5L951.3 -38M885.5 104.4L882.9 111.1L893.2 93.1L897.8 76.5L887.5 104.2M904.5 11.5L904.4 20.2L907.1 4L913.3 -7.9L908.1 -2L904.5 11.5M974.5 -48.1L976.1 -47.5L961.5 -44.5L952.4 -38.8L958.5 -44.1L966.4 -46.1"/>
    <path class="rd" d="M358.7 784.9L376.2 789.1L404.9 787.9L540.7 758.8L556 760.9L568.8 766.2L553.9 761.4L532.9 758.9L432.8 782.4L372 788.7L352.8 784.1L333.8 771.6L344.8 780.5L358.7 784.9M208.3 695.1L188 696.5L205.9 693.6L223.7 698.8L241.3 712.2L255.9 728.2L265.6 733.2L293.5 732.4L307.6 736.4L317.8 746.2L328.8 767.2L333.8 771.6L321.1 749L313.3 740.1L295.8 733.7L273.3 735.4L261.2 732.7L253.5 727.6L230.3 701.3L209.1 693.6"/>
    <path class="rd" d="M-325.4 231L-318.5 236.1L-291.8 288.1L-289.9 309.7L-282.3 327.9L-282.5 353.4L-273.9 379.1L-271.8 420.7L-253.7 435.8L-211.2 459.4L-182.6 479.9L-160.7 550.1L-142.4 589.7L-138.3 608.6M-162.8 673.5L-146.6 656.8L-141.5 647.9L-138.4 633.7L-138.3 608.6L-140.1 638.9L-144 651L-162.3 672.1L-183.5 708L-211 736.4L-222.7 756L-224.5 774.7L-216.4 802L-225.2 776.5L-224.1 757.6L-210.9 734.8L-190.6 716.3M-216.9 971.5L-212.8 958.4L-221.3 990.9L-221.2 1004L-200.8 1041.7L-193.8 1063.4L-201.6 1037.3L-219.9 1005.2L-220.9 995L-216.9 971.5M-158.3 1179.8L-162.7 1149.5L-168.9 1126.8L-175.9 1109.7L-185.3 1095.7L-188.2 1085.2L-184.9 1098.7L-173.9 1112.8L-167.8 1126.7L-163.3 1143.8L-159.5 1177.5M-213.2 954.6L-213.9 958.4L-208.5 922L-198.8 882.7L-200.5 863.8L-198.4 871.3L-199.7 881.7L-209.9 923.8L-213.2 954.6M-212.6 814.5L-217.2 803L-204.7 838.6L-201.8 855.3L-203.2 840.5L-212.6 814.5"/>
    <path class="r2" d="M54 8.7L6.5 20.1L-36.4 22.3L-84.3 41.7L-98.7 43.5L-127.5 56L-166.5 65.4L-186.9 57.7L-204.2 61.7L-212.9 67.2L-221.5 83L-242.6 104.5L-257.9 112.5L-269.6 112.6L-353.4 95.8"/>
    <path class="r2" d="M-40.8 1102.9L-33.5 1096.3L-13 1063.5L18.2 1008L56.8 924L79.4 896L84.2 878.1L98.8 854.7L108.3 811.2L121.2 787.1L131.6 778.6L142.3 764.7L160.3 719.7L160.7 722.4M185 653.6L195.5 634.7L220.5 615.1L196.2 635.3L185 653.6L183.4 673.5L187.3 691.2L184.7 687.8L182.1 672.7L185.7 655.2"/>
    <path class="r2" d="M245.4 1100.4L243.7 1128L245.4 1100.4L251.6 1070.1L249.2 1030.9L253.2 1002.2L252.2 964.7L260 929.8L287 856.5L290.5 839.2L308 821.7L319 806.3L334.3 772.2L329.2 783.4"/>
    <path class="r2" d="M455.6 1058.1L437.2 1049.2L465.1 1062.5L486.6 1078.9L508 1086.2L537 1100.5L546.9 1102.6L565.4 1101.2L590.2 1107.2L634.7 1105.9L696.1 1131L705.8 1124.6L710.9 1112.6L707.1 1053.9L715.8 1042L722.2 1040.4"/>
    <path class="r2" d="M75.7 893.7L94 903L75.7 893.7L59.3 881.1L22.3 874L5 867.9L-7 852.1L-21.8 819.6L-48.8 788.1L-171.7 727.9L-190.6 716.3M143.3 970.7L136.8 957.6L154.7 990.5L159.2 1008.6L158.3 1030L165.9 1047L209.3 1069.8L218.1 1068.9L235.1 1059.9L251.1 1058M124.5 945.2L115.8 937.2L113.6 931.5L136 958.1L130.9 949.8L124.5 945.2M99.5 910.9L104.4 914.9L93.2 904.1L99.5 910.9"/>
    <path class="r2" d="M-319.5 580.9L-308.4 578.7L-284.8 567.2L-242.2 533.8L-176.6 516L-138.6 495.2L-107.5 495.4L-93.4 502.9L-75 498.1L-52.9 482.7L-41.1 470.8L-22.1 468.2L-9.1 463.3L1.9 447.8L9.1 443"/>
    <path class="rd" d="M-213.9 958.4L-228.6 962.7L-267.8 989.9L-292.4 1011.5L-315.9 1026.1L-340.4 1030.1L-377 1026.4L-340.4 1031.1L-315.4 1026.9L-287.5 1009.4L-266.2 990L-231.5 965.9L-223.9 961.1L-214.2 959.5"/>
    <path class="r2" d="M124.7 14.5L153.7 49.6L164.9 76.8L177.1 97.7L212.1 111.6L254.5 135.6L272.6 135L286.2 124.1L300 117.7L312.2 116.2L324.6 118.2L352.1 132.4L366.7 143.3L370.6 152.6L370.6 175.7L376.1 181.5L373.3 180.2"/>
    <path class="rd" d="M989.8 816.9L942.4 805.1L1087.6 844.8L1113.8 843.8L1154.9 830.8L1177 843.6L1185.8 855.5L1193.9 855.4L1186.3 854.5L1174.9 842.2M924 798.7L852.6 776.3L842.3 775.8L940.4 804.6L924 800.3M748.9 801.9L774.6 786.3L793 778.7L817.1 774.4L841.1 775.6L839 773.6L842.3 775.8M836.9 775L836.9 773.3L817 772.7L793.8 776.8L773.9 784.7L747.2 800.9"/>
    <path class="rd" d="M389.5 1142.3L370.7 1167.4L466 1049.8L504.6 1013.9L555.6 955.2L546.1 966.7M567.6 941.1L555.6 955.2L567.6 941.1L612.8 849.2L636.1 823.7M438.7 1082.5L469.5 1044L506 1011.5"/>
    <path class="r2" d="M244.5 132.3L218.5 147.5L205 150L165.4 213.3L140.9 214.6L101.8 237.5L80.2 243L30.7 263.8L-3.5 256.1"/>
    <path class="r2" d="M913.7 -138L907.7 -128L904.8 -117.2L909.9 -88.9L964.7 -16.5L971.1 -0.7L983.8 83.5L965.5 133.6L966.9 127.6M957.8 157L963.6 147.2L964.8 133.4L961.7 151L957.8 157"/>
    <path class="rd" d="M652.2 105.6L650.6 102.5L653.8 61.5L655.2 73.8L650.5 105.5L651.5 133.4L655.5 148.5L674.5 180.1L676 193.1L673.3 205.3L671.2 205.3L674 192.9L672.5 180.5L657.3 152.4L658.9 151.7L653.2 130.6L652.2 105.6M572.1 4.1L608 28.2L574.6 7.8L567.5 0.7L560.8 -28.6L563.5 -43.1L559.7 -27.1L564.7 -6.4L572.1 4.1M623.7 36.8L645.3 51.9L652 62.2L653.5 60.7L644.9 50L608.5 27.4L623.7 36.8M665.2 222.9L668.6 211.2L655 244.4"/>
    <path class="rd" d="M672.2 930.5L669.9 954.9L673.6 974.3L669.3 960.8L668.7 949.1L675.6 894.8L682.7 863L695.9 833L680.1 866.1L672.2 930.5M687.7 989.2L704.4 1002.6L715.5 1018.6L721.9 1038.3L722 1060.1L722.2 1040.4L715.1 1020.4L704.1 1004.2L684.4 988.4L687.7 989.2M730.6 1101.2L723.5 1074.8L723 1060L721.7 1102.2L732.2 1124.2L741.8 1134.3L735.1 1128.2L731.6 1120.8L730.6 1101.2M757.7 1147.6L741.8 1134.3L772.3 1160.9M676.7 977.8L673.6 974.3L684.4 988.4L676.7 977.8"/>
    <path class="rd" d="M438.6 1013.7L455.2 967.7L456.4 957.4L451.2 942.8L428.2 914.3L432 922.8L450.6 944L455.3 960.3L427.6 1044.6L438.6 1013.7M370.4 879.8L416.5 900.2L428.2 914.3L420.1 904.7L409.5 897.4"/>
    <path class="r2" d="M439.8 -115.9L451.9 -29.3L455.3 25.2L464.3 51.4L464.6 58.8L459.6 68.6L416.4 110L407.9 131.9L409.4 127.1M397.8 152.7L377.8 175.2L376.1 181.5L379.1 174.7L397.3 155.9L401.6 145.6L399 153.1"/>
    <path class="r2" d="M125.7 223.6L127.2 229L120.6 286.8L122.8 304.7L90.4 349.8L53.1 391L34.2 427.6L26.9 434L9.1 443"/>
    <path class="rd" d="M-123 629.2L-138.8 623.7L-126.5 627.3L-90.8 646.3L-44.1 647.4L-9.8 658.3L13.4 661.1L22.3 665.4L50 686.9L87 699.3M93.3 703.1L87 699.3L122.3 728L130.6 732L139.1 731.6L160.3 719.7"/>
    <path class="rd" d="M-50.6 321.5L-52.2 329.1L-58.2 333.3L-88.4 336.5L-107 328.4L-138.8 336.4L-210.2 376L-239.9 400.4L-273.4 416.5"/>
    <path class="r2" d="M-166.8 958.6L-167.5 960.6L-158.2 951.3L-138.2 944.1L-95.4 940.7L-78.8 942.4L-39.4 954.1L8.4 942.1L32.3 947L44.1 961.4L38.7 952.7M161.1 1037.5L119.1 1031.7L90.4 1022.1L99.4 1023.9M60.7 989.7L62.1 990.7L44.7 963.7L53 977.6M70.2 1000.2L64.5 994.9L90.4 1022.1"/>
    <path class="r2" d="M379.1 -203.4L399.6 -169.9L416.8 -119.9L431 -116.1L456.2 -117.6L470.3 -114.9L485.7 -99.2L487.9 -90.6L486.9 -76.8L488.3 -94.9L475.9 -107.5"/>
    <path class="rd" d="M319.8 1104.7L293.7 1108.5L258.1 1126.7L243.7 1128L259.5 1127.4L295.5 1108.7L327 1104.4L347 1091L332.3 1102.3L319.8 1104.7"/>
    <path class="r2" d="M1047.9 -17.4L1060.2 21.4L1058.1 52.7L1066.9 71.8L1087.1 91.8L1124 120.5L1157.8 161.1M1047.7 -20.4L1043.2 -31.9L1041.4 -55.3"/>
    <path class="rd" d="M424.6 1053.2L414 1080.9L409.9 1079L371.5 1083.6L347.6 1092.2L350.3 1089.1L363.9 1084.4L414 1080.9L427.6 1044.6L424.6 1053.2"/>
    <path class="r2" d="M484.8 -79L465.8 -77.1L446 -67.4L467.5 -76L486.2 -76.9L494.7 -74.7L511.2 -64.4L529.4 -62.3L545 -57L531.6 -63.1L513.5 -65.7L498.8 -75.9L484.8 -79M614 -122.1L608.9 -105L615.5 -83L617.8 -61.4L617.3 -79.4L613.4 -94.7L611.3 -94.8L610.9 -109.9M593.2 -43.4L564.1 -41.5L603.9 -41.4L593.2 -43.4M617.7 -51.1L616.9 -61.4L615.3 -47.2L607.3 -42.1L615.1 -45.2L616.8 -53.8"/>
    <path class="r2" d="M446.7 910.8L427.8 915.8L442.7 912.6L466.7 901.9L483.8 888.7L505.4 863.6L511.1 848.8L513.1 822.2L521.7 801.5L514.9 814.4L512.2 828.9M529.9 788.2L521.3 801.2L535.5 779.3L540.7 758.8L537.8 774.7L533.2 783.4"/>
    <path class="r2" d="M623.4 844.8L639.8 871.4L661.7 885.9L675.7 889L662.2 884.6L641.1 870.8L624.8 844.4L613.1 839.5L596.1 838.7L612.5 838.2L624.8 844.4M540.4 828.2L537.4 826.4L544.4 829L574.4 831.5L540.4 828.2M537.4 826.4L513.5 822.3L537.2 827.6M592.5 838.1L574.4 831.5L586.6 836.7L596.2 837.5L592.5 838.1"/>
    <path class="r2" d="M243.9 404.2L196.4 397.1L162.8 423.7L152.1 422.5L137.4 426.3L119.7 421.6L62.1 381.4"/>
    <path class="r2" d="M366.1 383.5L356.6 373.7L349.3 351.7L355.3 372.7L365.2 384.6L356.3 396.6L348.4 414.7L333 432.3L335 426.8L347.7 414.2L356.5 394.7L366.3 385.7M362 325.7L347.8 350.2L361.8 326.3"/>
    <path class="rd" d="M610.9 -109.9L587 -102.1L556.5 -78.2L545 -57L559.7 -81.4L585 -102.4L606.4 -110.9L614 -122.1"/>
    <path class="r2" d="M448.8 349.8L431.4 343.1L413.1 343.2L396 335.6L377.1 332.4L362 325.7L374.6 331.6L396.2 334.8L411.3 342.9L449.8 347.5"/>
    <path class="rd" d="M-297.5 628.8L-286.6 625.7L-264.3 624.7L-215.9 613L-199 613.9L-138.8 624.7L-159.8 620.7"/>
    <path class="r2" d="M370.4 879.8L361.1 875.8L331.1 874L287.1 855.8L331.6 875.4L360.5 876.8L370.4 879.8"/>
    <path class="rd" d="M159.8 1168.5L191 1146.3L223.6 1137.5L243.7 1128L223.5 1136.9L194.1 1144.3L171 1159"/>
    <path class="r2" d="M1157.8 161.1L1168.1 172.8L1177.8 167.5L1191 154.3L1197.6 153.6L1241.2 197.7L1257.1 205.3L1278.6 210.7L1288.5 217.5"/>
    <path class="rd" d="M-162.9 964.1L-170.8 959.6L-191.7 960.9L-168.8 960.8L-146.4 972.7L-121.8 1016.2L-110.1 1026.2L-94.7 1029M-69.5 1033.9L-79.7 1036.5L-94.7 1029L-78.1 1036.7L-55.4 1030.7L-14.8 1046.1M-191.7 959.9L-213 959.6L-191.7 960.9"/>
    <path class="rd" d="M600.7 768L587.2 769.2L568.8 765.2L631.5 770.7L665.8 795.8L680.2 800.8"/>
    <path class="rd" d="M747.2 800.9L728.1 811.9L715.1 814.6L698.1 812.9L680.2 800.8L706.1 815.5L713.8 816.3L729.4 813.3L748.9 801.9"/>
    <path class="r2" d="M376.1 181.5L377.4 188.5L384.6 200.5L385.2 207.3L378.8 255.2L362 325.7"/>
    <path class="r2" d="M-210.1 735.3L-241.8 708.9L-266.6 696.7L-277.8 682.9L-319.8 646.7"/>
    <path class="r2" d="M1232.1 458.9L1231.2 460.3L1233.7 459.9L1232.5 458.7L1248.6 441.4L1231.6 462.7L1226.3 494L1222.9 499L1225.9 493.3L1230.5 463.4L1233.7 459.9M1250.4 442.3L1250.8 440.2L1248.7 440.4L1250.1 442.4L1261 427L1256.7 409.5L1260.1 426.8L1249.8 439.8M1257.2 408.6L1254.6 408.5L1257.1 409L1260.1 398.1L1277.3 382.5L1269.1 386.4L1260.3 395.3L1255.2 407.5"/>
    <path class="rd" d="M666.3 799.8L733.1 720.7L747.5 686.4"/>
    <path class="r2" d="M406.2 1183.1L414.8 1175.9L481.3 1075.7"/>
    <path class="rd" d="M1170.5 468.2L1173.7 469.2L1136.2 455.6L1123.3 437.9L1095.1 420.8L1080.7 403.2M1206.5 484L1192.5 474.2L1184.9 472.2L1208.6 485.7"/>
    <path class="rd" d="M1080.7 403.2L1075.4 388.8L1068.7 346.5L1056 295.1M1045.3 273L1056 295.1L1038 257.7L1045.3 273"/>
    <path class="rd" d="M37.8 1064.7L48 1073.8L60.9 1103.8L73.2 1165.5M9.6 1054.8L37.8 1064.7L13.5 1056.2"/>
    <path class="r2" d="M1007.4 -152.3L1010.8 -114.5L1031.9 -69.3L1041.4 -55.3"/>
    <path class="rd" d="M680.8 799.1L673.3 786L642.3 760.6L625.9 758.4L600.6 766.9"/>
    <path class="r2" d="M289.9 1180.5L262.8 1154L243.2 1141.2L241.5 1135.4L243.7 1128L241.8 1133.3L243.9 1142.1L248.3 1145"/>
    <path class="rd" d="M243.9 404.2L239.2 401L234.5 388.5L225.1 375.7L192.5 350.5L180.1 335.2M72.9 246.1L64.7 235.3L48.5 205L41.3 197"/>
    <path class="rd" d="M1282.4 538.3L1231.1 504.9L1206.1 485.2"/>
    <path class="r2" d="M-214.8 810.6L-224.7 814.6L-240.1 827.5L-257.4 831.4L-284.7 831.9"/>
    <path class="r2" d="M58.5 7.1L56.8 7.5L127 -5.9"/>
    <path class="r2" d="M843.4 -150.4L865.3 -143.8L906 -123.6"/>
    <path class="rd" d="M636.2 721.4L637.2 719.1L632.2 733.1L626 769.9"/>
    <path class="rd" d="M551.7 -55.5L545.3 -58.2L564.1 -41.5L551.7 -55.5M634.3 -150.6L621.8 -134.9L610.9 -109.9M614 -122.1L627.4 -145L644.5 -153.3"/>
    <path class="rd" d="M185.5 697.2L184.7 698.8L188 696.5L181.3 699.7L160.3 719.7"/>
    <path class="rd" d="M415 1079.9L429.4 1093.3L415 1079.9"/>
  </g>
  <g class="layer" data-kind="rail">
    <path class="rl" d="M762.5 736L780 727.6L791.7 714.9L798 698.9L801.5 664.3L809.5 650.5L821.1 640.6L864.7 618.1L883.1 612L904.2 610.8L940.2 616.7L965.8 613.1L991.5 601.5L1011.6 584.5L1023.9 568.1L1033 547.9L1036.8 531.4L1042 477.9L1048.6 457.9L1057.4 441.5L1157.8 292L1180.1 269.8L1224.7 239.3L1238.7 223.5L1251.8 202.4L1238.5 223.3L1224.5 239.1L1180 269.6L1157.6 291.8L1057.2 441.3L1048.4 457.7L1041.7 477.8L1036.8 529L1032.7 547.8L1023.7 567.9L1011.4 584.3L991.3 601.3L965.7 612.9L940.2 616.4L902.5 610.4L883.1 611.7L866.2 617L822.8 639.2L810.9 648.6L802 662.1L798.7 674.7L796.9 702.4L786.9 720.9L771.5 732.3L732.3 746.4L711.1 761.5L734.8 744.6L762.4 735.8M676.2 814.5L689.9 785.3L710.8 761.8L696.9 776L686.4 791.9L643.3 891.1L634.5 905.7L471.9 1045.7L387.2 1148.3L369.1 1174.4L353.8 1204.9L343.8 1235.8L338.8 1265L329.4 1385.7L321.9 1409.9L309.7 1431.7L321.7 1409.8L329.1 1385.6L338.3 1267.8L342.8 1239.3L353.6 1204.8L368.8 1174.3L387 1148.1L470.2 1047.1L632.3 907.8L643 891L675.7 815M1384.2 98.7L1360.3 96.4L1342.9 98.1L1324.7 104.4L1309.7 113.9L1292.4 132.7L1251 203.1L1292.6 132.8L1311.6 112.8L1327 103.6L1343 98.3L1360.3 96.7L1384.2 98.9M1013.6 581.2L993.2 599.7L963.5 613.1L937.7 616.1L892.1 610.2L874.2 613.7L858.3 620.9" data-dash="7 6"/>
  </g>
  <g class="layer" data-kind="labels">
    <text x="404.7" y="280.3" text-anchor="middle" class="lb lb-campus">Johns Hopkins University Applied Physics Laboratory</text>
    <text x="870.6" y="170.4" text-anchor="middle" class="lb lb-campus">Gateway Commerce Center</text>
    <text x="702.7" y="163.7" text-anchor="middle" class="lb lb-water">Lake Elkhorn</text>
    <text x="719.8" y="488" text-anchor="middle" class="lb lb-water">Stone Lake</text>
    <text x="727.7" y="332" text-anchor="middle" class="lb lb-water">Little Patuxent River</text>
    <text x="530.5" y="664" text-anchor="middle" class="lb lb-water">Patuxent River</text>
    <text x="406.7" y="205.5" text-anchor="middle" class="lb lb-water">Middle Patuxent River</text>
    <text x="177" y="71" text-anchor="middle" class="lb lb-water">Carrolls Branch</text>
    <text x="207" y="964.6" text-anchor="middle" class="lb lb-water">Little Paint Branch</text>
    <text x="567.6" y="315.4" text-anchor="middle" class="lb lb-park">Sweet Hours Park</text>
    <text x="253.3" y="913.7" text-anchor="middle" class="lb lb-park">Fairland Regional Park</text>
    <text x="246.8" y="863.5" text-anchor="middle" class="lb lb-park">Gunpowder Golf Course</text>
    <text x="595.4" y="545.3" text-anchor="middle" class="lb">I 95</text>
    <text x="389.9" y="408.3" text-anchor="middle" class="lb">Columbia Pike</text>
    <text x="900.3" y="432.2" text-anchor="middle" class="lb">Washington Boulevard</text>
    <text x="69.9" y="142.2" text-anchor="middle" class="lb">Clarksville Pike</text>
    <text x="881.6" y="100.8" text-anchor="middle" class="lb">Snowden River Parkway</text>
    <text x="532.9" y="749.9" text-anchor="middle" class="lb">Sandy Spring Road</text>
    <text x="675.6" y="885.8" text-anchor="middle" class="lb">Laurel Bowie Road</text>
    <text x="432" y="913.8" text-anchor="middle" class="lb">Konterra Drive</text>
    <text x="680.2" y="791.8" text-anchor="middle" class="lb">Fort Meade Road</text>
    <text x="733.1" y="711.7" text-anchor="middle" class="lb">2nd Street</text>
    <text x="225.1" y="366.7" text-anchor="middle" class="lb">Scaggsville Road</text>
    <text x="188" y="687.5" text-anchor="middle" class="lb">Old Columbia Pike</text>
  </g>
  <g class="layer" data-kind="marker">
    <circle cx="390.6" cy="278.9" r="11" fill="none" stroke="rgba(52,87,213,.35)" stroke-width="1.5"/>
    <circle cx="390.6" cy="278.9" r="4.5" fill="#3457D5"/>
  </g>
</svg>
