<svg xmlns="http://www.w3.org/2000/svg" viewBox="0 0 1000 1000" preserveAspectRatio="xMidYMid slice" role="img" aria-label="Map of Pittsburgh, Pennsylvania">
  <!-- INTERIM: generated from hand-traced mapdata.js; replace by running tools/fetch-maps.mjs with network access — data © OpenStreetMap contributors, ODbL -->
  <style>
  text{font-family:Inter,system-ui,sans-serif;paint-order:stroke;stroke:rgba(255,255,255,.88);stroke-width:3px;letter-spacing:.02em}
  .wa{fill:#E3ECF8;stroke:#C9D8EF;stroke-width:1.4}
  .ww{fill:none;stroke:#BFD2ED;stroke-linecap:round;stroke-linejoin:round}
  .pk{fill:#E5EFE1;stroke:#BFD6B8;stroke-width:1.6}
  .cp{fill:#EEF0FA;stroke:#C3CAE4;stroke-width:1.8}
  .hw{fill:none;stroke:#AEB6C2;stroke-width:3.4;stroke-linecap:round;stroke-linejoin:round}
  .rd{fill:none;stroke:#C9CFD8;stroke-width:2.2;stroke-linecap:round;stroke-linejoin:round}
  .r2{fill:none;stroke:#DADFE6;stroke-width:1.5;stroke-linecap:round;stroke-linejoin:round}
  .rl{fill:none;stroke:#C6CBD4;stroke-width:1.4}
  .lb{font-size:12px;font-weight:500;fill:#98A0AB}
  .lb-water{fill:#8CA0C6;font-style:italic}
  .lb-park{fill:#85A07E}
  .lb-campus{fill:#767E92;font-weight:600}
  </style>
  <g class="layer" data-kind="waterarea">
  </g>
  <g class="layer" data-kind="waterway">
    <path class="ww" d="M1050.7 131.4C1014.2 148.3 903.6 212.8 831.8 232.8C760 252.7 687.1 235.9 620 251.2C553 266.6 488.2 294.2 429.4 324.9C370.6 355.6 321.1 404.8 267 435.5C212.9 466.2 131.7 496.9 104.6 509.2" style="stroke-width:11"/>
    <path class="ww" d="M1170.7 979.2C1134.2 959.2 1020.1 888.5 951.8 859.4C883.6 830.2 828.3 830.2 761.2 804.1C694.2 778 614.1 727.3 549.4 702.7C484.7 678.1 425.9 676.6 372.9 656.6C320 636.7 276.4 607.5 231.7 582.9C187 558.4 125.8 521.5 104.6 509.2" style="stroke-width:11"/>
    <path class="ww" d="M104.6 509.2C81.1 493.9 10.5 447.8 -36.6 417.1C-83.6 386.4 -133 360.2 -177.8 324.9C-222.5 289.6 -283.7 225.1 -304.8 205.1" style="stroke-width:12"/>
  </g>
  <g class="layer" data-kind="park">
    <path class="pk" d="M514.1 509.2C537.7 506.1 577.7 527.6 598.8 546.1C620 564.5 645.9 593.7 641.2 619.8C636.5 645.9 601.2 696.6 570.6 702.7C540 708.9 476.5 679.7 457.6 656.6C438.8 633.6 448.2 589.1 457.6 564.5C467.1 539.9 490.6 512.3 514.1 509.2Z" data-fill="1"/>
    <path class="pk" d="M796.5 490.8C820.1 475.4 880.1 487.7 902.4 509.2C924.8 530.7 942.4 592.1 930.7 619.8C918.9 647.4 860.1 678.1 831.8 675.1C803.6 672 767.1 632.1 761.2 601.4C755.3 570.6 773 506.1 796.5 490.8Z" data-fill="1"/>
    <path class="pk" d="M740 94.6C755.3 73.1 831.8 94.6 853 113C874.2 131.4 882.4 183.6 867.1 205.1C851.8 226.6 782.4 260.4 761.2 242C740 223.6 724.7 116.1 740 94.6Z" data-fill="1"/>
  </g>
  <g class="layer" data-kind="campus">
    <path class="cp" d="M507.1 472.4C524.7 463.1 580 463.1 598.8 472.4C617.7 481.6 627.1 512.3 620 527.6C613 543 577.7 564.5 556.5 564.5C535.3 564.5 501.2 543 492.9 527.6C484.7 512.3 489.4 481.6 507.1 472.4Z" data-fill="1"/>
    <path class="cp" d="M401.2 444.7C420 437 476.5 441.6 492.9 453.9C509.4 466.2 510.6 503.1 500 518.4C489.4 533.8 449.4 549.1 429.4 546.1C409.4 543 384.7 516.9 380 500C375.3 483.1 382.3 452.4 401.2 444.7Z" data-fill="1"/>
  </g>
  <g class="layer" data-kind="highway">
    <path class="hw" d="M161.1 518.4C190.5 532.3 278.8 587.5 337.6 601.4C396.5 615.2 451.8 607.5 514.1 601.4C576.5 595.2 643.6 561.4 711.8 564.5C780 567.6 851.8 607.5 923.6 619.8C995.4 632.1 1106 635.1 1142.5 638.2"/>
    <path class="hw" d="M34 131.4C45.8 159.1 81.1 249.7 104.6 297.3C128.2 344.9 157.6 383.3 175.2 417.1C192.9 450.9 204.7 486.2 210.5 500"/>
  </g>
  <g class="layer" data-kind="road">
    <path class="rd" d="M161.1 518.4C190.5 518.4 278.8 523 337.6 518.4C396.5 513.8 455.3 501.5 514.1 490.8C573 480 631.8 470.8 690.6 453.9C749.5 437 837.7 400.2 867.1 389.4"/>
    <path class="rd" d="M175.2 527.6C205.8 530.7 300 547.6 358.8 546.1C417.6 544.5 467.1 518.4 528.2 518.4C589.4 518.4 669.4 538.4 725.9 546.1C782.4 553.8 843.6 561.4 867.1 564.5"/>
    <path class="rd" d="M161.1 500C190.5 486.2 278.8 443.2 337.6 417.1C396.5 391 455.3 363.3 514.1 343.4C573 323.4 631.8 301.9 690.6 297.3C749.5 292.7 837.7 312.6 867.1 315.7"/>
  </g>
  <g class="layer" data-kind="rail">
    <path class="rl" d="M1008.3 177.5C970.7 192.8 858.9 245.1 782.4 269.6C705.9 294.2 623.6 300.4 549.4 324.9C475.3 349.5 402.3 389.4 337.6 417.1C272.9 444.7 190.5 478.5 161.1 490.8" data-dash="7 6"/>
  </g>
  <g class="layer" data-kind="labels">
    <text x="555.1" y="512.9" text-anchor="middle" class="lb lb-campus">Carnegie Mellon</text>
    <text x="429.4" y="315.9" text-anchor="middle" class="lb lb-water">Allegheny River</text>
    <text x="549.4" y="693.7" text-anchor="middle" class="lb lb-water">Monongahela River</text>
    <text x="540" y="599.8" text-anchor="middle" class="lb lb-park">Schenley Park</text>
    <text x="844.5" y="579.2" text-anchor="middle" class="lb lb-park">Frick Park</text>
    <text x="805.3" y="163.7" text-anchor="middle" class="lb lb-park">Highland Park</text>
    <text x="175.2" y="408.1" text-anchor="middle" class="lb">I-279</text>
  </g>
  <g class="layer" data-kind="marker">
    <circle cx="563.5" cy="500" r="11" fill="none" stroke="rgba(52,87,213,.35)" stroke-width="1.5"/>
    <circle cx="563.5" cy="500" r="4.5" fill="#3457D5"/>
  </g>
</svg>
