<svg xmlns="http://www.w3.org/2000/svg" viewBox="0 0 1000 1000" preserveAspectRatio="xMidYMid slice" role="img" aria-label="Map of Pittsburgh, Pennsylvania">
  <!-- Generated from the Overpass API on 2026-07-23 — data © OpenStreetMap contributors, ODbL -->
  <style>
  text{font-family:Inter,system-ui,sans-serif;paint-order:stroke;stroke:rgba(255,255,255,.88);stroke-width:3px;letter-spacing:.02em}
  .wa{fill:#E3ECF8;stroke:#C9D8EF;stroke-width:1.4}
  .ww{fill:none;stroke:#BFD2ED;stroke-linecap:round;stroke-linejoin:round}
  .pk{fill:#E5EFE1;stroke:#BFD6B8;stroke-width:1.6}
  .cp{fill:#EEF0FA;stroke:#C3CAE4;stroke-width:1.8}
  .hw{fill:none;stroke:#AEB6C2;stroke-width:3.4;stroke-linecap:round;stroke-linejoin:round}
  .rd{fill:none;stroke:#C9CFD8;stroke-width:2.2;stroke-linecap:round;stroke-linejoin:round}
  .r2{fill:none;stroke:#DADFE6;stroke-width:1.5;stroke-linecap:round;stroke-linejoin:round}
  .rl{fill:none;stroke:#C6CBD4;stroke-width:1.4}
  .lb{font-size:12px;font-weight:500;fill:#98A0AB}
  .lb-water{fill:#8CA0C6;font-style:italic}
  .lb-park{fill:#85A07E}
  .lb-campus{fill:#767E92;font-weight:600}
  </style>
  <g class="layer" data-kind="waterarea">
    <path class="wa" d="M1817.5 1032.8L1810 1032.4L1798 1020.1L1784.7 974.1L1749.4 908.2L1729.5 894.6L1714.8 888.4L1691.4 892.2L1677.7 898.1L1620.1 938.1L1601.3 948.7L1579 953.5L1533.3 951.3L1516.6 938.6L1490.3 928.8L1458.9 902.4L1403.3 870.5L1393.3 866.9L1384.7 867.3L1379.1 869.4L1372 875.6L1335.3 937.5L1320.3 953.7L1317.8 960.5L1317.4 969.8L1312.7 980.1L1305.5 982L1294.7 979.9L1267.5 968.9L1227.1 968.9L1216.7 976.2L1205.7 992.2L1201.4 989.4L1203.7 989.1L1222 968.8L1229.2 966.2L1265.2 966.2L1274.5 968.2L1297.5 978.3L1307.4 979.3L1311.1 977.8L1314.3 971.5L1317.8 953.7L1331.7 938.9L1369 876.2L1376.6 868.7L1386.9 864.9L1401.9 867.6L1460.4 900.4L1494 928.1L1518.2 937.4L1534.9 949.1L1580.7 951.1L1598.6 947.5L1612.1 940.6L1679.4 895L1687.6 891.3L1711.1 886.6L1722.2 888L1733.3 892.1L1749.8 905.5L1770.4 941.3L1788.3 977.4L1799.9 1019.2L1808.8 1029.2L1816.2 1031.4L1823.3 1026.2L1824.7 1016.8L1826.1 1016.3L1824.4 1027.1L1817.5 1032.8Z" data-fill="1"/>
    <path class="wa" d="M763.3 155.5L760.9 161L770.4 165.9L775.7 154.8L774 149.5L768.9 146.6L765.3 150.1L767.4 146.6L768.2 134.1L766.1 130.4L761.7 128.2L750.9 146L750.4 154.6L759.5 160.1L763.3 155.5Z" data-fill="1"/>
    <path class="wa" d="M-208.8 287.8L-209.8 292.3L-214.7 295.3L-249.5 310L-268.8 303.4L-284 315.2L-300.9 322.4L-322.2 334.7L-331 334.4L-348.4 329.8L-364 308.6L-368.7 303.8L-370.2 305.1L-350.8 330.8L-323.9 337.3L-281.9 316.8L-267.6 306.1L-264 306.1L-251 312.5L-247.3 312.1L-224.7 302L-209.4 297.7L-207.6 289.1L-208.8 287.8Z" data-fill="1"/>
    <path class="wa" d="M724.5 163.3L727.7 157L727.4 153.7L720.8 148L721.3 142.2L719.1 135.7L714.4 133L711.9 133.5L708.4 136L702.8 149.9L714.4 161.1L720.9 164.4L724.5 163.3Z" data-fill="1"/>
    <path class="wa" d="M435.9 54.3L454.5 44.7L461.8 58.2L444.7 75.6L435.9 54.3Z" data-fill="1"/>
    <path class="wa" d="M946.9 61.4L945.4 61.4L942 72L952.7 75.5L973.1 74.9L972.7 67.1L960.8 65.9L946.9 61.4Z" data-fill="1"/>
    <path class="wa" d="M936.3 58L925 54.4L905 52.4L902.7 57.3L932.8 68.7L936.3 58Z" data-fill="1"/>
  </g>
  <g class="layer" data-kind="waterway">
    <path class="ww" d="M178.7 -919.9L189.5 -917.2L196.6 -910.9L203.2 -913.8L205.8 -918.9L208.8 -918.7L215.7 -910.9L223 -907.7L224.1 -895.8L229.4 -882.7L242.6 -876.9L254.4 -882.4L261.6 -889.6L272 -911.2L275.1 -911.7L278.1 -907L283.9 -910L282.4 -915.7L284 -916.5L300 -903.5L299.3 -892.1L306.5 -882.1L310.1 -880.7L322.6 -885L328.1 -882.2L319 -871.5L318.8 -865.3L322 -862.2L328.2 -860.8L336.9 -863L343.5 -873.3L349.9 -874.9L357 -872.2L357 -855.6L355.4 -853.7L352.8 -855.1L352.8 -846.9L344.8 -833.8L342.6 -831.4L326.1 -832L322.2 -819.2L329.8 -802.2L342.8 -797.1L363.4 -793.7L359 -778.7L338.9 -767.9L339.8 -758.3L362.3 -746.7L368.7 -745.9L372.3 -749.2L382.6 -738.7L386.6 -738.5L386 -732.5L379.8 -721.9L333.6 -700.4L324.7 -685.5L330.1 -680L316.1 -669.4L311.3 -662.3L293.4 -652.7L293.5 -648L303.4 -640.5L312.9 -638.5L324.5 -640.3L342.5 -649.1L358.4 -652.2L367.4 -645.3L380.3 -619.3L394.8 -612.7L400.2 -615.2L414.1 -632L419.7 -632L420.6 -611L409.4 -577.2L422.1 -566.8L464.2 -546.6L465.6 -535.5L455.8 -514.7L450.4 -469.1L443.3 -455.9L421.4 -436.6L416.5 -424.8L416.6 -409.7L433.3 -397.1L438 -384.9L435.7 -374.7L417.4 -365.2L416.8 -362.5L440.4 -336.1L449 -323L452.2 -306.1L431 -302.9L433.1 -297.6L442.3 -292.6L468.1 -289L477.6 -293.4L487.5 -305.3L498.8 -307.5L504.6 -293.4L518.7 -277L519.9 -265.6L536.4 -251.8L542.3 -243.5L550.1 -240L548.1 -227.8L539.4 -221.1L529.7 -216L504.1 -213L498.9 -209.7L482.3 -186.3L480.4 -174.1L482 -168.2L501.2 -138.9L524.8 -124.6L536.4 -122.1L531.9 -105.6L536.2 -70.3L522 -49.4L521.5 -39L535.3 -35.8L556.5 -39.2L562 -36.3L573.9 -13.7L582 10.3L583 21.5L569.2 32.8L549.3 40.3L543.2 38L521.6 47.3L508.6 59.9L506 66.1L504.3 76.4L506.7 90" style="stroke-width:4"/>
    <path class="ww" d="M1316.3 1232.7L1318.3 1201.7L1312.3 1156.5L1300.5 1124.7L1279.1 1088.2L1239.5 1038.9L1196.6 1002.8L1136.3 976.3L1097.8 949.1L1077.6 930.9L1037.8 881.5L1012.5 857.2L977.8 828.6L932.9 796.7L887.9 759.1L870.6 750.4L844 746.5L798.1 754.1L776.3 762.1L747.5 782.3L728.8 806.2L678.8 881.8L657.7 905.6L644.5 912.4L600.1 922.1L569.3 920L545.8 909.5L523 885.1L505.2 852.7L494.4 807.3L489.8 724.7L485.8 703.9L475.3 679.3L460.8 659.4L438.4 634.7L414.3 615.5L386.1 601.4L318.1 584.3L247.6 594.5L222.2 596L198.6 594.5L169.9 587.1L91.8 543.8L65.3 524.7L40.2 499.9" style="stroke-width:4"/>
    <path class="ww" d="M57.4 1200.6L64 1195.6L64 1190.4L68.6 1182.4L91.3 1154.8L99 1153.6L113 1139.5L124.6 1121.6L126.2 1113.3L124.4 1107.3L131.7 1099.1L142.1 1092.3L148.2 1093.2L163.8 1074L187 1062.3L192.6 1026.8L190.1 1017.3L179.6 1005.2L175.9 994.7L175.6 967.4L177.9 962.6L178.6 941.4L175.5 935.3L175.5 923.9L164.5 903.1L165.1 895.1L153.6 879.5L152.3 869L142.6 848.6L126.6 834.7L122.7 809.5L117.6 800.9L113.2 800.1L108.5 793.3L102.8 768.6L88.9 760L70.8 759.5L62.1 752.6L55.6 743.1L50.7 701.6L35 678L29 672.5L10.9 680.3L9.7 669.4L13.8 659.2L-1.7 653.1L-14.4 644.4L-19 622.8L-41.2 607.2L-54.7 586.8L-61.5 582L-65 574.4L-74.9 565.5L-78.9 551L-76.7 530.4L-65.8 520.4L-60.8 502.2L-33.4 484" style="stroke-width:2.2"/>
    <path class="ww" d="M1219.2 -213.7L1216.2 -178.9L1217.1 -150.7L1230.1 -65.5L1229 -45.4L1214.5 28L1183.7 66.9L1161.8 89.1L1110.8 112.3L1089.1 118.8L1039.1 128.2L982.3 126.9L887.3 115.1L806.2 91.2L792.5 79.9L769.6 70.8L745.7 66.3L741.9 55.2L730.8 48.6L712.5 46.9L702.3 48.7L690.4 56.8M745.7 66.3L724.8 68.5L683.3 55.1L651.5 52.7L620.4 52.8L597.5 56.4L506.7 90L472.2 110.9L448.1 130L424.6 157.3L373.6 241.6L356.3 246L346.4 252L330.1 269.9L316.8 289.1L292 338.4L286 360.8M373.6 241.6L341.5 305.3L324.5 327.3L286 360.8L215 433.3L187.1 454.8L136.9 476.7L77.6 494.1L40.2 499.9M1217.8 12.1L1192.8 20.6L1178.6 30.2L1172.1 38.3L1155.7 69.2L1153.7 76.8L1156.4 91.6" style="stroke-width:4"/>
    <path class="ww" d="M167.3 -499.7L170.2 -489.2L177.2 -485.1L180.7 -473.9L193.2 -465.4L192.2 -459.5L195.8 -455L192.2 -447.5L195.8 -439.9L204.6 -435.7L211.6 -427.1L210.4 -421.2L213.7 -414.9L220.9 -409L224.3 -409.4L222.9 -405.9L225.9 -407.4L243.1 -392L241.2 -389.5L248.1 -383.3L258.8 -366.5L274.1 -365L279.4 -355.6L276 -345.6L280.1 -345.1L288.3 -338.6L293.3 -339.3L309.9 -324.9L317 -323.7L318.9 -307.3L341.1 -307.2L348.9 -294.4L356.1 -288.8L350.4 -272.4L355.2 -261.6L366.7 -253.6L364.9 -248.5L369.3 -231.3L382.5 -230.6L389.4 -210.5L393.2 -209.3L400.5 -213.5L405.6 -222.9L413.9 -225.1L422.3 -220.7L420.7 -201.9L429.1 -179.4L429.1 -155L440.1 -146.8L440.3 -142L431.8 -127.6L443.4 -116.2L440.3 -106.2L455.5 -100.6L462 -95L472.9 -67.1L483 -54.5L521.5 -39M601.1 -210.1L601.2 -205.6L571 -186.6L554 -152.6L553.8 -146.6" style="stroke-width:2.2"/>
    <path class="ww" d="M961.3 -472L961.7 -466.4L957.6 -458.7L950.4 -426.8L931.3 -401.8L918 -375.9L923.9 -359.7L923.2 -349.9L894.8 -327L891.5 -309.1L892.4 -298L900.2 -260.9L909.6 -238.7L919.2 -230.8L924 -215.7L936.1 -211.1L937.9 -207.1L929.3 -185.1L910.9 -167.6L908.3 -159.8L912.3 -152L912.1 -144.2L918.8 -130.5L924 -130L936.8 -122.4L950.4 -109.5L954.6 -98.4L968.4 -92.5L981.6 -78.5L984.7 -58.2L991.7 -43.7L990.8 -35.9L986 -27.1L996.9 -13L1002.1 7.1L996.5 22.2L999 35.8L1003.2 48.8L1010.3 57L1006.1 66.8L992.9 75.8L1015.5 78.3L1024.7 83.7L1026.9 98L1023.9 103.5L1024 114.7" style="stroke-width:2.2"/>
    <path class="ww" d="M40.2 499.9L-9 480.5L-38.1 464.9L-66 440.2L-85.4 416.1L-92 402.3L-99.9 342.1L-110.8 315.6L-147.2 262.1L-161.7 235L-184.8 175.4L-199.9 150.8L-282.9 82.8L-306.2 57.6M-92 402.3L-112.6 391.9L-169.9 327.4L-188.3 310.6L-193.8 297.8L-197.9 273.5L-191.7 254L-168.1 218.7" style="stroke-width:4"/>
    <path class="ww" d="M144.9 -149.7L173.3 -141.7L202.8 -122.6L222.6 -106.2L224.9 -95.5L243.7 -84.5L228.8 -74.1L228.1 -68.9L237.3 -65.7L247.4 -67.5L252 -58.1L264.7 -50.1L264.8 -39L269 -37.4L289.8 -40.7L293.6 -39.3L297.3 -35.8L304.3 -10L328.5 -7.2L338.7 16.4L337.1 47.9L362.2 68.1L366.1 75.5L361.2 80.8L349.1 85.3L345.9 88.8L344.8 99.1L359 124L354.7 133.5L338.2 155.1L337.5 162.7L341.4 169.4L372.7 178.7L384.2 171.2L396.7 180.9" style="stroke-width:2.2"/>
    <path class="ww" d="M784.1 1072.7L769.5 1051.6L774.9 1023.4L794 1002.2L801.1 999.8L817.8 1000.3L823.5 994.3L829.6 992.2L832.5 983.9L844.8 981L845.8 974.3L840 969L840.4 956.6L848.4 939.4L838 928.8L823.6 927.9L811.4 909.1L801.8 907.7L783.6 911.4L777.1 908.4L751.9 889.2L718.6 847.9L714.4 845.4L700.5 848.9" style="stroke-width:2.2"/>
    <path class="ww" d="M-55.1 -112.7L-61.2 -109.2L-69.4 -95.7L-79.2 -65L-79.7 -42.6L-82 -37L-94.1 -31.5L-140.1 -34L-165.8 -17.1L-167.6 -7.1L-164.3 -1.9L-164.8 7.5L-157.9 28.1L-159.8 34.1L-153.8 49.5L-161.2 67.8L-158.8 75.8L-166.7 85.3L-167.6 96.9L-189.8 108.4L-191.7 118.4L-199.5 123.1L-212.9 138.3" style="stroke-width:2.2"/>
    <path class="ww" d="M1087.9 282.8L1110.5 284.6L1119 277.4L1142.2 267.7L1151.6 258.6L1156.4 248.6L1155.1 239.8L1157.2 232.1L1174.1 218.2L1209.7 218.9L1228.9 205.6L1228.1 195.8L1233.3 193.7L1235.5 176.5L1240.3 169.3L1225.8 154L1207.5 126.1L1164 99.2" style="stroke-width:2.2"/>
    <path class="ww" d="M868.9 1080.2L890.4 1063.7L894.6 1042.1L905.2 1022.2L902.8 1010.8L907.2 1003.1L907.9 988.3L912.6 980.3L912.2 963.9L907.3 952.6L912.6 941.1L891.8 922.2L891 916.5L885.6 910.2L885 887L881.9 875.5L884.1 856L890.1 848L894.1 835.6L922 801.2" style="stroke-width:2.2"/>
  </g>
  <g class="layer" data-kind="park">
    <path class="pk" d="M371.9 853.8L416.6 815.6L418.4 815L422.6 823.7L428.3 821.1L434.1 821.6L437.2 826.5L441.3 825L442.9 815.5L448.5 815.8L450.4 806.3L467.9 801.2L467.4 797.9L469.7 797.1L470.8 812.5L467.2 820.6L468 824.6L472.6 832.6L472 835L479.8 833.2L491 866.5L489.5 867L491.4 873.4L493.4 872L496 876.2L494.3 880.8L503.5 895.8L506.7 893.8L509.9 899.5L532.3 924.2L550.3 938.1L547.9 942.5L558 948.6L597.4 961.5L603.7 988.9L599.6 989.2L599.4 991.6L568.3 991.5L559.1 985.8L551 987.1L542.4 985.2L532.7 987.1L519.6 981.9L519.6 975.8L516.9 975.8L517.1 981.2L498.8 985.7L485.9 986.2L480.8 989.3L459.4 989.1L456.8 922.7L451.8 919.4L425 915L418.8 911.3L415.9 898.7L418.5 899.3L427.4 881.8L415.7 876.2L386.6 883.5L387 859.5L371.9 853.8Z" data-fill="1"/>
    <path class="pk" d="M631.2 576.5L636.4 573L635.8 571.6L632.1 572.9L630.3 568.9L626.5 548.8L630.1 548.8L632 546.8L626.3 537.9L624 538.7L534.8 513.8L526.9 520.4L522.2 517.5L516 529.1L517.3 552.2L513.7 561.3L512.4 585.2L508 606.6L508.5 616.1L518.8 630.3L527.4 635.3L562.3 624.9L562.6 621.4L571.5 616.8L582.8 618.6L591.3 624.5L590.9 627.8L603.1 630.5L633.5 623L635.6 603L631.2 576.5Z" data-fill="1"/>
    <path class="pk" d="M806.9 230.1L811.1 165.6L810 130.3L810.8 124.9L816.4 121.2L818.4 111.4L810.9 110L808.5 107.4L787.7 99.9L772.2 98.4L730.5 84.2L729.7 87L735.6 88.6L726.4 98.1L716.3 95.1L717.6 96.4L708 106L706.8 105L701.8 108.9L703.4 111.6L693.4 123.5L685.9 115.8L683.5 115.4L678.5 120.7L675.5 119L681.2 123.5L678.4 129.1L684 135.9L676.3 142.4L677 144L673.6 143.2L671.7 150.7L668.5 149.9L667.5 153.8L671.1 154.1L672.5 150.8L693.5 160.7L697 159.1L708.8 164.7L710.5 162.4L724.8 168.4L728.4 160.6L761.4 177.1L762.9 173.9L771 175.1L766.1 203.4L773.1 203.5L773.6 200.8L779.9 201.8L779.6 203.7L790.8 203.9L784.9 250.3L778.3 257.8L761.6 261.9L763.7 267.4L760.3 270L763.9 274.3L785.8 262.3L798.8 249.6L804.9 247.6L806.9 230.1Z" data-fill="1"/>
    <path class="pk" d="M69.9 175.6L73.1 170.3L75.5 170.6L77 162.1L72.4 159.5L69.6 162.6L62.2 159L65.5 152.5L63.2 137.3L69 128L68.6 125.3L60.2 122.8L35.1 139.1L32.3 133.3L43.4 103.3L41.3 103.8L39.9 97.7L27.7 99.5L17.4 88.2L20.7 70.9L23.9 67.1L17.8 65.6L17.2 69.6L9.4 67.9L5.5 74.8L3.4 74.7L-2.2 95.1L-11.3 99.3L-14 94.2L-16 94.6L-12.4 104.9L-9.1 104.7L-15.8 111.2L-19.6 134.7L-12.5 144.2L-4.3 166.4L-20.3 166.3L-20.7 171L-27.8 180L-26.2 181.9L-31.4 189.2L-28.2 195.2L-26.7 194.6L-30.3 189.8L-27.4 186.1L-21.4 193.2L-27.3 196.6L-25.6 197.5L-9 189.2L10 188L10.1 190L21.6 190L34.8 182.2L64.7 181L66.5 176.4L69.9 175.6Z" data-fill="1"/>
    <path class="pk" d="M971.5 -222.6L972.1 -204.3L981.1 -204.6L993.9 -211.1L993.5 -213.8L1013 -214.5L1013.6 -195.9L992.9 -195.3L994.3 -153.9L997.6 -154.1L997.8 -146.9L969.7 -135.9L957.9 -123.5L947.3 -125.3L940.4 -118.1L927.9 -125.5L919.6 -133.4L913 -151.8L912.3 -169.9L924.9 -177.2L932.2 -189.4L932.2 -193.1L929 -193L935.2 -203.1L934.2 -210.1L925.9 -220.8L971.5 -222.6Z" data-fill="1"/>
    <path class="pk" d="M1169 139.4L1217.3 181.7L1217.3 187.4L1221.1 198.2L1215 207.2L1198.6 213.9L1192.8 213.8L1167.2 209.1L1156.9 202.9L1126 194.3L1107.8 183.4L1089.7 169.4L1091.6 166.1L1089.9 163.3L1072 155.3L1070.2 152.6L1090.1 150.8L1116.8 151.7L1133.8 145L1169 139.4Z" data-fill="1"/>
    <path class="pk" d="M854 -249.6L850.8 -258.9L858.7 -261.3L857.3 -258.7L864.2 -250.5L866.5 -243.6L862.1 -238.4L862.8 -232.7L865.2 -230.3L876.7 -227.5L874.9 -221.4L878.1 -216.1L878.8 -210.5L881.8 -207.8L889.1 -206L891.7 -207.5L893.2 -213.5L893.3 -225.7L889.1 -228.2L885.6 -234.1L906.4 -234.7L904.4 -192.1L923.2 -192.8L929.3 -201.4L932.2 -197.9L921.3 -184.8L909.8 -179.7L912.4 -168.9L913.3 -150.1L919.7 -133.2L913.2 -123L903.3 -124.3L902.5 -119.7L912.3 -116.4L913.4 -108.9L919.5 -105.5L913.5 -103L907.9 -107.7L904.7 -102.7L898 -98.8L903.4 -111.4L901.6 -114.5L896 -112.2L893.6 -107.1L895.3 -103.3L885.8 -91.9L889.8 -81.7L884.7 -84L884.8 -76.4L881.8 -75.3L878.7 -91.1L881.1 -90.1L889.5 -109.1L897.9 -117.8L888.4 -125.6L868.2 -130.4L867.3 -134L890.3 -129.3L905.7 -133L903.8 -165.9L897.8 -177.5L881.6 -187.1L866.9 -185.6L866.2 -190.8L846.2 -190L845.3 -211.3L840.2 -216.5L839.9 -220.8L832 -229.2L823.6 -247.1L821.9 -247.3L819.8 -258.7L810 -256.3L809.7 -259.7L798.9 -259.5L798.2 -264.7L804.5 -265.5L805.6 -267.5L804 -272.7L795.3 -280.1L791.7 -281.6L788.4 -280.2L793.6 -284.6L791.1 -289.8L794.8 -286.5L796.5 -287L798.9 -309.1L801.5 -302.8L801.5 -283.7L820.4 -267.1L821 -261L831.4 -255.5L836.5 -272.6L841.2 -281.7L843.3 -277.6L843.4 -248.9L854 -249.6Z" data-fill="1"/>
    <path class="pk" d="M1186.2 899.3L1176.4 887.8L1176.9 876.5L1172.7 866.4L1175.2 863L1173.6 859.2L1176.5 854.1L1191.7 859.3L1194.5 859.1L1195.9 855.3L1200.1 855.4L1213.6 863.6L1224.2 861.7L1224.8 864.5L1238.3 866L1256 887.5L1255.7 892L1252.6 895.5L1245.7 898.2L1237.1 921L1232.4 922.9L1211.9 916.1L1203.4 908.1L1186.2 899.3Z" data-fill="1"/>
    <path class="pk" d="M769.2 -42.3L789 -43L787.4 -105.1L806.6 -105.7L811.8 15.9L770.9 7L769.2 -42.3Z" data-fill="1"/>
    <path class="pk" d="M1286.9 84.9L1293.5 81.8L1294.1 78.8L1299.9 79.8L1290.4 125L1192.2 102.8L1219.2 73.6L1225.8 70.7L1227.5 71.7L1229.3 80.2L1234 78.9L1239.7 71.8L1247.1 81.9L1256.1 89.1L1259.1 86.2L1262.4 74.9L1264.4 75.6L1264.6 78.7L1286.9 84.9Z" data-fill="1"/>
    <path class="pk" d="M-328.5 -151.1L-326.4 -152.1L-322.8 -162.4L-316.1 -161.4L-315.1 -163.2L-293.4 -165.2L-278.7 -171.5L-278.7 -178L-281.8 -186.5L-277 -189.6L-260.7 -189L-254.7 -186.1L-250.3 -187.7L-240.2 -181.8L-233 -185.9L-224.4 -187.1L-220.9 -180.9L-223.3 -173.5L-228.4 -170.8L-231.2 -164.1L-234.4 -162.9L-243 -170.2L-254.7 -173.7L-258.6 -173L-257.5 -159.9L-261.3 -154.9L-257.6 -152.3L-254.9 -141.4L-255.9 -138.3L-267 -141.9L-282.6 -140.3L-278 -126.1L-267 -111.8L-266.6 -108.8L-269.5 -102.8L-280.5 -116.3L-290.9 -122.3L-304.9 -136.3L-312.1 -137.8L-313.7 -139.5L-313.2 -144L-316.1 -147.2L-328.5 -151.1Z" data-fill="1"/>
    <path class="pk" d="M942.5 1108.2L943.7 1111.1L959.4 1124.5L980.2 1131.1L995.9 1133L1017.7 1140.2L1020.7 1142.8L1028 1137.6L1028.4 1134.2L1023.8 1126.8L1007 1120.9L1012.2 1116.1L1005.3 1108.4L1000.4 1107.6L1002.1 1101.4L1009 1095.1L1007.4 1063.4L1005.1 1062.1L999.4 1061.4L981.1 1081.1L978.7 1079.5L966.5 1092.3L942.5 1108.2Z" data-fill="1"/>
    <path class="pk" d="M181.3 766.6L182.7 790.3L170.7 789.6L170.2 799.9L146.1 796.8L135.5 800.1L140.4 811.8L140.4 816.2L138.1 816.9L121 786.5L120.1 767.3L134.5 766.9L134.1 750.7L151.5 750.4L152.2 771.5L174.7 771.1L174.6 753.1L180.9 753L181.3 766.6Z" data-fill="1"/>
    <path class="pk" d="M484.4 1087.2L488.9 1074.6L482.2 1079.9L474 1079.1L473.1 1081.1L466.4 1077.2L469.4 1070.7L464.6 1068.2L466.6 1061.2L474.9 1064.5L483.6 1062L482.8 1054.5L475.1 1056.2L469.7 1054.6L471.5 1048L464.3 1043.8L461.5 1046.3L446.7 1081.1L472.2 1096.4L478.2 1105.9L467.5 1112.3L474.1 1120.4L474.8 1118.8L485.4 1122L493.5 1103.9L496.5 1108L514 1117.4L521.1 1100.9L499.8 1089.3L496.3 1095.8L490 1096.6L485.5 1092.8L484.4 1087.2Z" data-fill="1"/>
  </g>
  <g class="layer" data-kind="campus">
    <path class="cp" d="M1020.3 18.8L1048.9 17.7L1049.7 34.8L1057.9 34.8L1062.3 30.3L1066.5 29.6L1060.2 35.3L1068.1 41.7L1063.3 46.9L1061.7 45.2L1048.6 57.6L1059.3 58.9L1074.4 55.4L1090.1 59.4L1108.6 52.2L1108.4 35.8L1110 35.7L1107.8 30.6L1107.6 16L1130 2.1L1129.7 -3.6L1140.1 -1.6L1154.4 -3.9L1152.1 -92.7L1104.1 -90.5L1102.4 -132.2L1083 -113.1L1067.4 -119.1L1067.5 -115L1059.3 -114.7L1061 -61L1018 -59.3L1020.3 18.8Z" data-fill="1"/>
    <path class="cp" d="M1241.3 1071.2L1231.3 1062.8L1201.3 1030.4L1171.8 1006.2L1148.1 998.3L1247.6 1117.9L1258.3 1134.6L1275 1175.9L1279.3 1205.2L1279.9 1217.8L1277.6 1230.9L1273.4 1242.2L1265.6 1254.9L1256.5 1264.1L1239.8 1272.8L1240.3 1277.3L1260.7 1270.2L1280.5 1254.5L1302.9 1224.9L1306.1 1212.8L1303.8 1180.3L1292 1135.5L1285.2 1122L1271.3 1101.6L1241.3 1071.2Z" data-fill="1"/>
    <path class="cp" d="M1288.7 971.3L1280.1 962.4L1268.2 956.6L1251.4 953.6L1249.5 955.2L1248.7 953.4L1240.4 951.1L1222.2 936.1L1168.2 918.4L1154.6 922.9L1139.2 917.7L1136.7 920L1131.4 914.9L1111.4 935.8L1120.5 943.7L1122 942L1138.4 957.5L1182.7 976.5L1203.3 988.5L1220.5 969.2L1227 965.9L1265.2 965.8L1290.7 973L1288.7 971.3Z" data-fill="1"/>
    <path class="cp" d="M560.6 460.7L566.8 460.1L567.8 470.7L578.3 471.5L574.6 480.2L595.4 483.3L592.8 493L602.1 505.2L598.9 507L601.1 510.7L588.3 520.5L583.6 513.8L578.5 513.8L575.5 524.5L534 513.2L531.2 514.9L527.4 511.9L533.7 500L539.5 478.9L543.6 481.2L549 471.5L548.4 462L560.6 460.7Z" data-fill="1"/>
  </g>
  <g class="layer" data-kind="highway">
    <path class="hw" d="M1228.9 -318.5L1220.4 -306L1215.6 -292.3L1197.1 -201.3L1187.6 -125L1183.5 -112.7L1119.6 -16.5L1046.8 54.3L1038.5 59.9L1028.3 62.3L967.9 57.9L891.2 43.4L841.3 29.6L898 46.5L960 58.3L994.7 60.2L1029.7 58L1037.9 55.4L1105.2 -3.9L1122.2 -22.9L1182.7 -115.4L1186.3 -126.3L1190.3 -158.5M325.9 262.8L335.1 247.7L350.1 230.5L361.1 209.9L383.1 179.9L400 164.2L445.8 107.8L502.3 63.3L521.2 44.2L563.9 27.5L515.3 45L491.1 71.8L441.4 111.3L398.5 164.9L387.4 175.1L380.3 189.8L352.2 229.9L334.5 249.8L293.7 316.6L271.6 344.8L291.6 320L325.9 262.8M635.4 -0.5L679.9 -2.8L749.2 6L804.8 15.2L841.7 28.4L761.4 6.4L682.1 -2.9L618 2.1L616.4 0.4L602.2 3.2L563.9 27.5L576.4 23.2L602.6 5L622.1 0L635.4 -0.5M188.9 410.5L197.6 397.5L211.7 385.4L252.1 362.6L271.6 344.8L251.5 362.1L214.1 382.5L198.6 394.1"/>
    <path class="hw" d="M465.8 622.3L454.8 607.7L444.8 599.6L396 572.1L372.4 564.1L354.4 561.7L334.3 562.9L220.2 582.3L196.3 581.3L182.8 577.3L159.9 561.2L108.3 536.3L95.3 531.5L88.6 532.7L94.7 532.7L119.3 544.3L151.9 560.4L175.9 576.9L191.2 582L237.6 584.5L327.2 566.2L357.2 564.3L379.7 567.9L399.5 575.2L446.8 602.2L471 631.1L484.4 640.3L494.2 643.3L508.9 643.6L531.7 636.2L506 644.2L491.1 643.8L476.3 636.5L465.8 622.3M780.8 658.1L681 638.8L648.4 629.2L606.5 632.9L565.4 625.7L531.7 636.2L565.4 626.8L606.5 633.8L648.3 630.1L677.6 638.1L677.5 636.5L790.6 660L807.9 661.2L907.3 655.1L921.7 650.3L932.5 641.9L921.7 650.3L904.2 654.7L807.9 662L780.8 658.1M1014.6 622.7L1031.9 625.3L1047.6 620.3L1083.9 583.6L1053 615.2L1040.4 622.6L1024.4 624.3L992.9 617.4L963.3 625L992.9 618.2L1014.6 622.7M1108 562.3L1109.9 559.4L1085.7 581.6L1185.8 495.1L1203.1 484.7L1252.4 475.3L1265.9 478.7L1284.4 490M1278.6 488.1L1240.4 478.1L1220.6 479.2L1202.8 484.1L1185.3 494.4L1109.9 559.4M964.6 623.9L947.3 630L932.8 642.6L949 629.9L963.3 625"/>
    <path class="hw" d="M170.6 357.9L166 341.8L161.5 290.1L108.8 190.8L109.1 136L98.6 95.7L89.1 42.1L84.4 32L73 22.1L18.8 -3.2L-27.4 -55.9L-59.6 -80.3L-88.2 -90.2L-142.3 -95.6L-166.4 -106.4L-181.8 -119.6L-194.7 -136.5L-214.4 -185.7L-222.2 -196.8L-241.3 -208L-268.4 -209.9M-212.3 -174.4L-203.6 -149.3L-194.3 -132.4L-182.4 -117.5L-167.7 -105.1L-143.8 -94.1L-91.2 -88.8L-68.9 -80.9L-30 -52.2L18.1 -1.1L67.7 22L80.7 32.8L87.7 46.7L96.3 97.4L107.4 139.6L106.7 192.2L160.2 293.1L166.2 352.1"/>
    <path class="hw" d="M-169.1 702.4L-190.9 709.5L-173 703.9L-154.2 701.9L-85.2 711.7L-67.3 707.2L-60 700.3L-55.5 691.1L-56.4 650.2L-47.6 632.4L-27.7 614.8L88.6 532.7L-46.7 627.4L-54 638.9L-57.6 652.1L-54.3 689.9L-58.4 699.5L-66.8 707.9L-83.7 712.7L-141.4 701.8L-169.1 702.4M-297.8 774.4L-191 708.6L-334.2 795.8L-344.1 798.9L-354.2 798.3"/>
    <path class="hw" d="M1284 832.9L1271.7 811.9L1262 800.6L1256.1 775.6L1237.4 752.4L1232.1 737.4L1214.2 707.8L1135.4 655.4L1128.5 644.8L1120.2 610.1L1113.6 598.3L1116.7 600L1122 611.2L1125 638.3L1131.5 652.8L1139.7 660.9L1219.2 712.9L1226.8 724.6L1236.7 751.1L1255.8 775L1261.5 802.6L1275.8 816.9M1033.8 527.7L1051 547L1062.5 564.6L1113.6 598.3L1106.7 590.3L1060.8 562.8"/>
    <path class="hw" d="M26.3 665.1L51.7 698.8L54.9 723.5L61.2 747.1L65.5 751.6L80.4 758.3L65 752.5L60.3 747.5L51.1 699.1L26.3 665.1L20.6 658.1L-3.9 643.3L-12.4 623.1L-29 605.6L-38.3 591.2L-67.8 567.2L-71.6 556.4L-69.5 533.2L-72.3 556.5L-68.4 567.6L-42.3 588.6L-30.8 606.8L-12.7 624.4L-3.2 642.6L20.6 658.1M116.3 792.4L107.3 778.8L81.2 757.6L110 781.9L116 790.2L124.7 805.5L130.5 830.4L146.5 852.8L156.3 877L148.7 855.4L131 830L125.4 805.1L117.8 794.4M193.7 1018.4L197.3 1034.4L196.6 1022.7L183.1 998.7L184.3 979L179.8 960.8L179.6 940.6L161.2 909.8L156.3 877M190.1 1060L193 1068.4L209 1092L217.3 1095L233.5 1095.2L215.8 1094.3L207.8 1089.8L190 1062.2L189.9 1051.5L195.4 1036.9L193.1 1043.1M287.8 1159.4L287.2 1141L278.3 1122L264.3 1109.8L233.5 1095.2M-62.2 520.8L-69.5 533.2L-47.2 501.6L-62.2 520.8"/>
    <path class="hw" d="M399.2 559.2L406.7 550L419.3 545.3L503 466.2L614.7 454.7L673.1 430.9L711.4 410.7L779.6 398.4L800.4 372.9L810.4 355.5"/>
    <path class="hw" d="M166.2 352.1L181.2 409.3L178.3 424L167.6 433.2L117.5 444.9L106.7 449.6L96.2 460.1L93.4 476.5L95.5 461.5L105.3 451L167.3 437.4L179.9 427.9L183.5 419.6L183.8 408.7L170.6 357.9"/>
    <path class="hw" d="M382.7 563.9L339.6 559.2L240.6 574.4L221.2 574.1L201.6 567.8L220.2 574.6L237 575.2L352.3 556.5L377.8 562.3"/>
    <path class="hw" d="M166.3 627.4L93.4 765.5L166.3 627.4"/>
    <path class="hw" d="M1033.8 527.7L1029.9 517.6L805.8 420.1L779.6 398.4"/>
    <path class="hw" d="M-4.2 445.4L32.2 445.7L-6.4 442.7L-21 438.5L-28.5 433.7L-34.6 423.6L-51.9 361.3L-34.6 428.7L-23.4 440L-4.2 445.4M-142.8 169.5L-163.9 145.4L-227.4 95.4L-248.5 76L-267.2 57.7L-275.6 45.9M-81.7 284.6L-63.1 316.3L-51.9 361.3L-62.6 317.6L-89.5 274.1"/>
    <path class="hw" d="M70 -11.8L71.2 -22.9L89.2 -60.3L113 -88L90.9 -61.6L71.4 -21.4L69.1 -11.8L74.8 11M131.7 -151.7L134.6 -124.3L133.3 -114.3L128.8 -105.6L113 -88L128.6 -104L134.1 -114.1L135.4 -124.4L132.5 -151.6"/>
    <path class="hw" d="M580.7 0.7L579.1 -14.7L570.6 -31.7L561.7 -41.1L548.6 -46.5L561.6 -39.9L569.3 -31.6L592.4 28.3L580.7 0.7"/>
    <path class="hw" d="M541.8 -103.1L540.9 -118.6L536.3 -128.6L542.1 -115.9L541.2 -82.8L539.4 -72.1L532.2 -57.1L538.7 -49.4L547.4 -45.8L537.8 -51.3L532.1 -58L540.2 -76.2M753.4 95L673 71.4L654.1 70.8L639.4 74.8L620.4 74.5L604.8 81.5"/>
    <path class="hw" d="M508.8 491.5L476 503L410.9 564.2L395.8 566.1"/>
    <path class="hw" d="M809.6 196.5L811.6 119.8L800.6 110.9L753.4 95M806.9 240L804.9 271L809.6 196.5L807.8 224.7M810.4 355.5L825.9 328L827.5 320.2L806.8 279.3L804.9 271"/>
    <path class="hw" d="M-142.8 169.5L-107 229.9L-142.8 169.5M-81.7 284.6L-88.6 274.4L-101.2 242.7L-89.5 274.1"/>
    <path class="hw" d="M774.2 98.5L793.3 44.5L773.6 98.2"/>
    <path class="hw" d="M229.3 484.9L231.1 471.6L227.5 459.6L184 410L175.3 390.1M180.2 388.8L189.7 413.7L225.4 460.7L228.6 473.8L225.8 487.8"/>
    <path class="hw" d="M229.3 484.9L208.7 526.1L205.6 536.9L215.5 507.7L225.8 487.8"/>
    <path class="hw" d="M595.7 46.1L604.8 81.5L592.4 28.3L595.7 46.1"/>
    <path class="hw" d="M166.3 627.4L199.9 563.9"/>
    <path class="hw" d="M198.6 394.1L189.4 405.5L183.5 424L177.8 432.5L166.7 438.9L154.6 440.2"/>
  </g>
  <g class="layer" data-kind="road">
    <path class="rd" d="M606.9 949L580.4 945L545.9 930.3L509.3 890.4L497.9 870.8L485.9 835.5L474.7 792.6L472.5 749.7L467.9 732.3L453.7 700.2L394.4 646.7L364.7 636.4L341.6 634.1L287.9 630.3L202.2 632.6L149.6 610.5L133.3 600"/>
    <path class="r2" d="M257.9 519.5L249.8 523.2L216.8 522.8L208 525.4L254.9 520.9L326.1 478.8L344.9 479.9L355.6 474.3L368.7 477.2L380.3 471.5L409.1 446.1L427.3 445.9L452.6 450.5L481 425.5L662.8 354.5M706.5 337.1L726.6 297.3"/>
    <path class="rd" d="M401.1 383.3L350.4 407L324.5 426.4L288.2 439.9L237.2 478.5L289.8 438L324 425.8L352.3 405.2L384.8 388.7L403 382.5L452 355.3L459.8 354.6L470.9 360.2L478.2 372.5L472.7 360.6L462.9 355.8L454.1 355.3L439.5 362L441.3 361.8M204.4 518.2L217.4 512.6L236.5 480L211 500.9L203.2 512.7"/>
    <path class="r2" d="M336.1 1162.3L333.9 1138.4L334.3 1087L326.4 1059.3L309.4 1025.9L296.9 1017.6L280.2 1016.2L267.1 1002L255.8 976.9L257.1 947.6L238.9 903.6L236.1 876L226.9 849.8L215.3 837.1L256.7 733.8"/>
    <path class="rd" d="M213.7 483.7L207.7 489.8L269.8 438.7L393.5 328.8L429.5 324.5L494.1 310.1L587.2 374.4M113 520L207.7 489.8L205.1 492.4L200.5 491.9"/>
    <path class="rd" d="M-214.4 302.6L-201.2 323.4L-161.1 358.3L-133.9 385.9L-107.7 419.1L-35.7 491.1L27.7 521L77.8 556L96.4 573.3L133.3 600"/>
    <path class="rd" d="M870.5 531.7L883.8 530.7L854.7 533.1L828.1 545.4L675.4 545.4L635.6 548.5L593.3 491.5L561.1 484.9L524.3 486.5L508.8 491.5M218.9 546.4L352.9 554L380.8 564.4L395.8 566.1M180.1 539.6L192.4 545.5L218.9 546.4L216.5 546.3"/>
    <path class="rd" d="M1031.2 813.6L1038.6 805.4L1041.3 797.2L1033.3 778.2L1029.2 750.1L1022.6 742.3L985.5 713.2L963.1 685.7L949 664L930.8 643.7L919 611.7L898 573.6L882.6 525.8L901.2 461.7"/>
    <path class="rd" d="M1218.4 -288.1L1204.3 -216L1199.6 -167.8L1211 -69.8L1209.8 -51.4L1204.5 -30.6L1195.6 -15.8L1157.6 21.4L1109.1 52.7L1090.3 60M1085.2 62.2L1090.3 60L1003.4 87.1L947.8 97.6L925 97.3L899.8 92.4L821.2 63.9L811.1 58.8L799.3 45.1L789.1 38.8"/>
    <path class="rd" d="M1131.8 1035L1119.2 1028.6L1103.1 1011.9L1084.8 983.3L1076.4 960.2L1033.1 911.5L1003.5 884.2L1033.8 911.1L1075.9 958.5L1084.9 982L1101.7 1008.8L1121.3 1030.2L1130.3 1035.1"/>
    <path class="rd" d="M811.6 119.8L968.6 144.9L993.7 146.5L1068 142.4L1140.1 119L1171.2 111.5"/>
    <path class="r2" d="M998.5 46.6L999.3 40.4L992.6 11.8L983.1 -15.6L986 -44.2L981.8 -61.2L986.3 -75.3L995.8 -91.7L1010.9 -100.9L1016 -111L1012.6 -226.2L1009.8 -239.1L1011.8 -248.5L1010.5 -281.8"/>
    <path class="rd" d="M275.5 1012.9L285.3 982.3L298.4 965.6L310 938L311.7 924.1L302.2 891.1L308.2 877.2L334.9 853.7L379.2 843.1L421 809.3L475.1 794.5"/>
    <path class="r2" d="M392.6 318.9L417.1 273.5L437.1 253L459.4 211.8L460.4 194.2L474.1 174.4L487.5 146.2L514.7 126L540.3 111.5L604.8 81.5"/>
    <path class="rd" d="M81.7 205.5L75.8 199.4L73.8 193.2L77.9 161.5L68.5 154.5L63.8 141.3L70 125.7L64.4 119.9L52.1 115L46.2 95.6L46.1 86.2L32.6 73.8L30 64.3L10.3 45.8L4.4 36.6L4.6 32.9L12.5 25.1L18.1 14.5L19.7 -2.7L12.6 -20.1L-1.3 -34.1L-9.4 -48.9L-18.3 -58.6M-20.9 -61.1L-18.3 -58.6L-40.9 -74.5L-46.9 -82.4L-49.1 -92L-46.2 -112.1L-57.6 -135L-58 -142.7"/>
    <path class="r2" d="M166.5 358.1L172.2 354.7L168.5 340.8L168.7 315.1L164.5 293.4L144.1 243.9L131.4 231.4L125.6 210.8L113.9 190.7L114.5 161.6L119.4 138.8L113.9 132.6L98 126.7L94.4 110.3L95.8 124.2L100.7 128.9"/>
    <path class="r2" d="M1171.2 111.5L1226.3 59.1L1260.9 1.5L1267.8 -26.8L1267.2 -48.6L1271.7 -99.5L1266.5 -130.6L1268.1 -154.2"/>
    <path class="rd" d="M-48.4 710.1L-48.5 689L-51.9 761.8L-61.1 798.4L-69.9 820L-76.9 828.5L-122.3 859.4L-152.8 899.4L-137.1 879.9M-64.2 809.4L-50.1 754.7"/>
    <path class="r2" d="M172.6 554.6L216.6 576.6L237.5 578.9L276.1 573.7L292.5 574.4L335.3 566.6L371.8 567.7L392.8 574.9L448.9 609"/>
    <path class="r2" d="M-90.4 522.4L-87.1 534.8L-93.8 567.2L-110.9 561.2L-119.4 554.5L-154.3 543.9L-186.1 544.9L-200.2 550.7L-218.1 546.3L-219.1 550.6L-197 570.6L-193.7 579.6L-196 587L-215.8 609L-218.6 638.6M-397.5 777.9L-385.9 772.5L-363.3 775.3L-353 765.2L-345.4 751.3L-319.4 748.8L-308.6 742.6L-305.4 735.5L-313.5 686.9L-302.2 666.1L-291 655.3L-286 653L-241 651.9"/>
    <path class="r2" d="M1024.7 369.9L1063.6 334.8L1074.9 332.3L1093.8 336L1117.2 330L1136.7 329.9L1170 319.4L1189.3 300.4L1194.4 298.2L1201.6 300.7L1234.3 330.8L1251.4 331.4L1263.6 342.1L1271.9 341.2"/>
    <path class="rd" d="M406.7 550L397.8 559.2L381.6 560.4L342.8 545.9L191.4 536.9L142 512"/>
    <path class="r2" d="M635.5 990L613.1 992.5L568.4 992.1L558.6 986.2L533.6 987.4L514.9 980.8L498.6 986.4L485.4 986.8L474.9 993.1L461.9 990.8L436.2 980.4L425.4 985.8L415.3 1003.7L396.1 1016.6L393.2 1026.8"/>
    <path class="rd" d="M720.9 408.9L724.3 425.4L714.7 458.2L728.8 520.1L733 570.9L738.9 601.8L705.7 641.6L698.6 662.8"/>
    <path class="rd" d="M-164.1 718.7L-165 715.8L-156.8 739.9L-156.7 764.9L-168.3 795.6L-235.8 858.6L-276.6 875.6L-294.6 894.4L-301.1 907.5"/>
    <path class="r2" d="M1040.3 829L1083.6 860.9L1144.6 918.6L1156.1 922.5L1168.7 917.9L1222.2 935.5L1239.9 950L1258.8 954.1"/>
    <path class="rd" d="M91.8 770.5L88.7 779.9L81.6 789.2L52.3 799.2L37.4 816.1L32.9 824.7L24.5 858.8L-8.7 897L-23.8 911.4L-66.3 930.2L-80.9 942"/>
    <path class="r2" d="M134.2 1099.8L107 1069.8L83.8 1051.5L68 1048.5L6.7 1049.2L-4.5 1046L-22.4 1035.9L-28 1029.4L-38.7 1000.9L-41.2 976.9"/>
    <path class="r2" d="M173.5 629.1L188.9 640.3L201.8 645.5L206.6 651.8L217.4 654.4L231.3 667.7L241.9 670.5L242.5 674.5L239.3 678.9L221 689.6L215.3 695.8L221.8 706.8L244.2 725.5L257.4 734.4L311.8 730.9"/>
    <path class="rd" d="M-183.9 1141.5L-209.9 1078.2L-209.3 1053.3L-225.5 1014.5L-231.9 1006L-245.3 999.8L-257.3 979.8L-290.5 958.9"/>
    <path class="rd" d="M-133 992.7L-146.6 1012.1L-149.5 1029.1L-147.9 1046.5L-153.2 1075.1L-184.3 1143L-188.4 1159.6L-186.9 1191.9"/>
    <path class="r2" d="M854.8 916.3L868.4 932L870.7 942.3L865.5 956L859.6 993.9L831.8 1061.7L823.3 1066.6L801.2 1109.1M781 37.7L701.6 23.2L646.5 28.1L640.2 24.9L613.5 23.6"/>
    <path class="rd" d="M1104.8 333.3L1112.1 288L1119.3 280.2L1137.8 271.8L1149.1 262.1L1155.5 248.7L1154.5 239.4L1158.4 229.3L1176.8 216.1L1204.1 218.1L1230.7 200.2"/>
    <path class="rd" d="M1326.9 656.1L1300.1 623.2L1293.3 580.6L1289.3 570.1L1264.1 533.1L1232.3 479.6L1232.9 483.4M1231.2 472.8L1231.7 479.8L1231.4 466.7L1225.1 458.5L1225.3 454.3L1257.4 442.5L1263.9 429.8L1263.7 416.8L1257 407.2L1258.3 389.4L1262 371.5L1269.2 362.2L1271.9 341.2"/>
    <path class="rd" d="M-55.8 323.8L-11.5 275.5L24.1 263.3L33.6 249.4L51.1 235.3L51.3 217.3L59 207.7L81.7 205.5L77.3 206"/>
    <path class="r2" d="M603.8 455.8L627 464.5L670.2 489.9L683.6 490.7L722.3 492.1L749.8 485.9L757.4 482.3L767.8 468.8L785 466"/>
    <path class="rd" d="M650.4 311.1L623.4 299.3L589 301.5L502.6 286.4L458 295.6M779.6 398.4L717.6 342.4L650.4 311.1L658.8 314.9"/>
    <path class="r2" d="M734.2 285.4L726.6 297.3L733.5 287L767.1 273.8L788.2 261.9L799.8 250.1L806.8 248.8L799.9 249.4L787 262.1L765.5 274.1L734.2 285.4"/>
    <path class="rd" d="M329.1 16.8L334.5 35.7L361.8 59.5L354.2 86.5L354.2 101.1L359.4 113.7L360.1 127.4L358.2 134.1L352.8 138.9L353 142.8L358.5 148.4L376 157.2L391.4 170.2"/>
    <path class="r2" d="M619.5 600.5L633.1 588.4L735.1 570.5L746.1 575.4L768.5 578L770.6 549.9"/>
    <path class="r2" d="M835 361L967 398.5L1003.4 392.2L1009.4 387.4"/>
    <path class="r2" d="M428.7 -253L444.7 -230.3L450.8 -199.6L449.4 -158.4L453 -147.8L470.5 -115.2L487.5 -112L498.9 -103.7"/>
    <path class="r2" d="M298.4 631.1L296.1 665.6L316.6 671.6L317.8 684.4L312.9 692.2L296 703L274.9 694.4L259.5 705.1L248.3 716.9L258.1 724.2L256.7 733.8"/>
    <path class="rd" d="M1147.4 1042.3L1131.8 1035L1164.5 1050.3L1193.5 1085.3L1212.7 1102.9L1237.5 1113.5L1212.7 1102.9M1257.1 1138.5L1246.6 1121.7L1237.5 1113.5L1257.6 1139.5L1264.5 1155.3"/>
    <path class="r2" d="M774.5 548.9L760.9 551.4L753.5 547.5L732.9 449.7L734.4 442.5L759.1 409.2L758.9 402.1"/>
    <path class="rd" d="M490.5 398.7L518 398L538.1 393.4L659.6 346.4"/>
    <path class="r2" d="M-80.9 942L-94.1 919.2L-112.9 900.8L-125.7 866.1L-134.6 859.7L-154.7 832.9L-192.3 818"/>
    <path class="r2" d="M-165 694.2L-131.5 657.3L-131.8 638.2L-119.8 624.2L-103.3 579.8L-98.7 576.6L-81.3 575.9L-77.2 564.8"/>
    <path class="r2" d="M691.9 330.3L734.4 209.5L752.9 173"/>
    <path class="r2" d="M551.4 792L569.9 787.7L585.5 779.5L590.4 753.4L604.8 732.8L615.1 722.5L633.3 713.7L675.4 715.4"/>
    <path class="r2" d="M709.7 162.6L699.5 184.5L672.9 262.7L650.4 311.1"/>
    <path class="r2" d="M578.4 1127.8L598.9 1107.5L604.3 1091.5L617.9 1079.6L629.8 1056.8L636.5 1026.7L637.5 999L635.5 990"/>
    <path class="rd" d="M549.4 786.7L555.1 801.4L572 870.7L578.7 879L598.2 893.9L614.6 898.2L599.8 894.7M492.3 665.5L475.3 640.2L448.9 609"/>
    <path class="rd" d="M1121 396.3L1092.6 420.3L1091.8 429.1L1097.2 443.8L1091.1 429.3L1092 420L1096.3 414.5L1120 399.1L1122.9 391.7L1122.8 381.6L1121 396.3M1104.8 333.3L1104.6 344L1109.1 353.7L1105.3 343.7L1104.8 333.3"/>
    <path class="rd" d="M746.6 1152.8L724.6 1135.4L718.4 1102.5L709.8 1095.6L686.8 1084L649.5 1048.5M625.9 989.6L630.3 1006.2L631.7 1033.4L636.7 1039.8L649.5 1048.5L635 1037.5L631 1029.9L631.5 987"/>
    <path class="r2" d="M478.2 372.5L485.5 407.4L474.7 442.5L487.7 457.4L469 475L489.1 498.2"/>
    <path class="rd" d="M107 -9.7L119.8 -25.5L135.4 -34.6L146.3 -51.4L184.1 -76.7L228 -81.7"/>
    <path class="rd" d="M329.1 16.8L299.6 -25.3L293.5 -37.6L287.5 -40.5L267.6 -43.1L230.4 -76L228 -81.7"/>
    <path class="rd" d="M-275.3 216.2L-244 197.5L-202.4 194.7L-142.8 169.5"/>
    <path class="rd" d="M-106.7 32.5L-89.7 53.8L-72.5 101.6L-91.7 119.4L-124.1 118.7L-120.9 118.8"/>
    <path class="rd" d="M1230.7 200.2L1230 210.8L1241.7 268.5L1243.4 300.3L1248.5 306.7L1267.6 315.5L1272.8 323.2"/>
    <path class="rd" d="M549.4 786.7L547.4 775L523.9 715.1L499.9 667.6L493 666.6L496.1 667.4"/>
    <path class="r2" d="M706.7 623.7L744.2 637L765.9 638.9L778.7 652L795.4 655.5L813.2 653.4L819.1 641L826.4 642"/>
    <path class="rd" d="M901 816.1L935 827.9L965.6 843.3L994.3 868.3L1003.5 884.2L999.9 874.6"/>
    <path class="rd" d="M116.4 1138.1L124.3 1129.3L127.9 1120.4L116.4 1138.1L54 1207.7M193.2 1059.1L162.9 1073.8L150.5 1089.4L137.2 1096.2L130.1 1107.8L127.9 1120.4"/>
    <path class="rd" d="M-106.7 32.5L-95.4 33L-76.3 26.7L-58.4 31L-38.8 18.3L-27.5 14.8L-23.8 17L-20.5 25.5L7.4 41.5"/>
    <path class="r2" d="M-308.6 742.6L-278.3 739.1L-245.9 728.7L-232.3 719.4L-208.9 697.3L-198.6 698.8L-191.5 696.6"/>
    <path class="rd" d="M179.6 542.1L174.8 550.5L204.5 493.3L179.6 542.1"/>
    <path class="rd" d="M781 840.9L790.4 831.3L814.5 815.3L876.5 810.7L889.7 811.9L901 816.1"/>
    <path class="r2" d="M1033.8 527.7L1039.2 531.4L1052.7 532L1106.8 494.9L1142.8 483.7M363.3 345.2L406.7 306.8L458 295.6"/>
    <path class="rd" d="M623.5 637.2L649.5 635L661.6 637.9L677.5 650.9L679 660L679.6 651.2L663.8 635.7L657.8 633.7L642.9 635.2M675.4 715.4L671.3 689.5L679 660.5L676.7 666.2"/>
    <path class="rd" d="M620.1 956L621.2 958.8L614.2 898.9L620.9 956"/>
    <path class="r2" d="M228 -81.7L235.6 -86.2L237 -92.3L221.9 -113.7L207.5 -123.8L185.8 -133.6L169.4 -146L154.4 -149.9"/>
    <path class="rd" d="M1271.9 341.2L1282.1 332L1298.3 292.1L1307.4 282.4L1320.6 275.6L1332.2 275.4L1339.1 278.8L1345.9 291"/>
    <path class="rd" d="M120.5 543.6L162.8 564.7L168 564.2L108.4 534.8"/>
    <path class="rd" d="M1171.2 111.5L1204.9 129.6L1212.3 137.2L1233 172.7L1230.7 200.2"/>
    <path class="r2" d="M166.3 627.4L95.7 588.5L74.4 569.3L70 570.4M179.5 629L173.3 627.6L203.1 639.9L215.8 639.9L229.4 645.4L242.1 645.4"/>
    <path class="rd" d="M463.1 352.5L462.8 356.5L463.8 351.5L494.1 310.1L464.1 352.7"/>
    <path class="rd" d="M686.8 1084L677.8 1110.8L680.6 1137.7L675.5 1158.5L659.3 1189.7"/>
    <path class="rd" d="M349.4 584.8L346.5 605L348.9 621.8L347.5 631.6L345.4 603.9L350.5 576.6L348.4 584.3M354.4 551.8L353.3 548.4L349.7 576.5L354.4 551.8"/>
    <path class="r2" d="M-8.9 447.3L-24.9 441.9L-36.3 432.5L-54.1 362.7"/>
    <path class="r2" d="M592.8 654.9L604.8 673.6L615.6 671.8L631.5 673L654.3 685.7L660.9 714.3M499.6 666.5L515.3 659.7L544.3 664.6L551 662.3L562.1 662.7L594.9 654"/>
    <path class="r2" d="M668.1 714.9L663.4 689.7L671.7 655L683.9 640.6L691.7 636.2L701.2 623.1"/>
    <path class="r2" d="M781 840.9L820.2 879.2L848 920.9"/>
    <path class="r2" d="M534.3 -135.5L570.7 -190.8L586.3 -205.1L594.8 -209.8L597.3 -214.7"/>
    <path class="r2" d="M9.8 442.2L75.9 427.7L85 420.9L107.2 415.2"/>
    <path class="r2" d="M-220.7 546.6L-245.4 550.2L-257.8 554.5L-262.5 558.9L-264.7 569.3L-263.3 590.5L-273.4 612.8"/>
    <path class="rd" d="M967.2 689.7L963.1 681.8L977.2 622L974.6 591.6"/>
    <path class="r2" d="M24 406.8L114.5 385.7L107.4 386.9"/>
    <path class="r2" d="M547.9 389.6L553.7 397.7L563.4 427.9L568.8 472.3L563.6 484.9"/>
    <path class="rd" d="M201.6 567.8L111.7 524.8M413.1 566.7L403.4 563.7L419 567.7L456.7 565.7L468.8 572.5M382.7 563.9L402.9 564.4L377.8 562.3"/>
    <path class="r2" d="M744.2 366.6L749.5 360.3L756.4 343.6L756.2 335.7L752.1 322.1L745.1 311.9L731.8 298.4L734.5 299.8L726.6 297.3L731.8 298.4M696.2 284.6L668.7 271.8L706.3 289.1L696.2 284.6M734.5 299.8L750.5 322.3L755.8 344.7M706.3 289.1L726.6 297.3L706.6 288"/>
    <path class="r2" d="M987.7 89.9L990 91.8L1013.2 89.2L1059.1 78.3L1066.2 75.6L1078.8 64.4"/>
    <path class="r2" d="M215.2 694.9L179.5 696.6L165.5 702.6L143.6 702.3L118.4 706.2"/>
    <path class="r2" d="M732.6 145.4L730.5 152.4L734 145.1L728.2 148.8L725.3 147.6L728.4 132.2L721.1 125.4L717.3 117.4L739.8 90.8"/>
    <path class="rd" d="M-225.5 1014.5L-201.8 1007L-181 994.3L-174.4 983.5L-171 960.6L-165.9 952.4"/>
    <path class="rd" d="M1037.5 485.2L1007.1 553.8L995 568"/>
    <path class="r2" d="M133.3 600L170.7 527.1M138.9 588.5L135.5 595L154.7 558.2"/>
    <path class="r2" d="M14 454.6L19.1 456.2L53.4 451.6L105.8 451.9M87.4 451.7L53.9 450.3L39.2 453"/>
    <path class="r2" d="M691.9 330.3L688.1 396.5L697.9 417.7"/>
    <path class="r2" d="M1142.8 483.7L1203.7 471.9L1231.2 472.8"/>
    <path class="r2" d="M90.2 278.6L92.3 264.1L101.7 255.6L101.7 246L98.7 238.2L88.8 232.8L87.5 211.7L81.7 205.5"/>
    <path class="r2" d="M37.7 465L41.9 478.1L50.8 481.1L62.2 480.4L74.5 474.9L109.4 466.5"/>
    <path class="rd" d="M720.8 782.3L781 840.9"/>
    <path class="rd" d="M418 253.3L457.8 295L462.6 317.4"/>
    <path class="r2" d="M756.2 335.7L760.1 335L802.9 353.4L835 361"/>
    <path class="rd" d="M743.8 872.6L687.2 931.5"/>
    <path class="rd" d="M704.8 545.5L705.9 576L701.2 623.1L701.4 620.4"/>
    <path class="r2" d="M901.2 461.7L926.2 417.3L935 389"/>
    <path class="rd" d="M196.2 1037.3L211.2 1045.8L252.5 1039.4L271.5 1039.2"/>
    <path class="r2" d="M92.6 100.9L80.8 39.1L83.5 32L79.7 34.4L80.8 39.1M83.5 32L89.7 28.7L109 27.4L110.2 23.5L104.9 17L105.6 11.3"/>
    <path class="rd" d="M193.3 464.5L198.6 465.7L193.6 464.3L155.1 485.6L170.7 479L173.3 474.3M123.8 495.1L128.3 495.6L141.6 489.8L108.6 503.2"/>
    <path class="r2" d="M578.4 1127.8L570.3 1131L564.7 1136.6L554.2 1151.4L541.9 1178.2L531.7 1188.2"/>
    <path class="r2" d="M826.4 642L823.8 655.4L827.8 665.1L832.8 670.3L837.2 683.8L863.3 699.9"/>
    <path class="rd" d="M-301.7 616.6L-293.6 630.7L-279.8 644.1L-267.9 649.8L-250.6 648.1L-241 651.9"/>
    <path class="r2" d="M594.7 381L625.7 450.2"/>
    <path class="r2" d="M490.5 398.7L521.3 463.7"/>
    <path class="r2" d="M-10.3 430.6L62.2 413.1"/>
    <path class="r2" d="M231.8 577.1L233 578.5L218 550.9L218.4 546.4L216.4 546.8L231.8 577.1"/>
    <path class="rd" d="M-271.7 292.4L-266.6 286.3L-263.4 263.2L-265.1 248.2L-276.7 224.2"/>
    <path class="rd" d="M-191.5 696.6L-188.9 672.2L-190.9 663.3L-207.4 644.3L-218.6 638.6"/>
    <path class="r2" d="M720.2 345.1L711.4 351.5L707.8 380.1L720.9 408.9"/>
    <path class="rd" d="M-56.2 667.3L-50.8 674L-47.8 689L-47.5 674.2L-52.1 642.5"/>
    <path class="rd" d="M686.6 746.5L684.2 736.4L686.6 746.5L694.3 757.8L720.8 782.3"/>
    <path class="r2" d="M-28.5 430.6L-33.1 422.6L-48 362.8"/>
    <path class="rd" d="M418 253.3L362.4 209.4"/>
    <path class="r2" d="M401.3 382.8L402.9 400.8L412.9 416.1L405.7 434.5L409.1 446.1"/>
    <path class="r2" d="M302.9 298.9L341.2 321.1L358.2 339.7"/>
    <path class="rd" d="M989 859L987 861.1L1031.2 813.6"/>
    <path class="r2" d="M82.9 752.6L81.2 732.4L83.2 729.2L97.5 715L118.4 706.2"/>
    <path class="r2" d="M809.4 421.8L833.6 377.7L838.4 361.7"/>
    <path class="r2" d="M801.2 1109.1L782.3 1139.3L776.8 1168.6"/>
    <path class="rd" d="M1047.8 484.2L1051.7 478.8L1070.9 471L1097.2 443.8"/>
    <path class="r2" d="M175.6 368.9L114.5 385.7"/>
    <path class="r2" d="M551 574.3L558 578.1L599.7 585.3L608.3 592.6"/>
    <path class="r2" d="M70.5 -4.3L79.7 34.4L74.8 11"/>
    <path class="r2" d="M220.1 522.7L216.2 514L224.8 531.8L225 538.6L221.6 523.5"/>
    <path class="r2" d="M1258.8 954.1L1272.3 957.5L1287.9 965.6L1272.4 956.9L1258.8 954.1"/>
    <path class="r2" d="M650.4 311.1L626.2 363.2L626.8 368.6"/>
    <path class="rd" d="M1109.1 353.7L1119.4 370L1122.1 381.6L1120.2 369.6L1109.9 353.2"/>
    <path class="rd" d="M117.1 496L173.3 474.3"/>
    <path class="r2" d="M-37.4 494.8L-90.4 522.4"/>
    <path class="r2" d="M532.2 -57.1L520.4 -63.1L498.9 -103.7"/>
    <path class="r2" d="M24 406.8L37.7 465"/>
    <path class="rd" d="M-297.6 289.3L-275 291.3L-248.1 301.5"/>
    <path class="rd" d="M622.8 971L625.4 964.8L640.6 961.3L652.7 952.8L635.2 961.8"/>
    <path class="rd" d="M986.2 80.1L987.7 89.9L987 73.9L998.5 46.6"/>
    <path class="r2" d="M-133 992.7L-138.1 992.8L-145.9 987.7L-165.9 952.4"/>
    <path class="r2" d="M525.7 519.6L503 505.9L493.6 510.1L489.1 498.2"/>
    <path class="r2" d="M120.5 543.6L133.6 514.6L127.7 494"/>
    <path class="r2" d="M601.7 626L587.6 613.1L586.4 608.2L598.4 596.5L609 593.7"/>
    <path class="r2" d="M1230.7 200.2L1247.6 178.2L1271 181.1"/>
    <path class="rd" d="M192.6 394.2L176.4 399.2L193.1 395L199.8 389.9L193.1 395"/>
    <path class="r2" d="M1271 181.1L1294.4 172.3L1308.3 157L1313.1 155.6"/>
    <path class="r2" d="M785 466L809.4 421.8"/>
    <path class="r2" d="M137 407.9L176.4 399.2L169.6 400.2"/>
    <path class="rd" d="M781 840.9L743.8 872.6"/>
    <path class="rd" d="M18.1 -8.9L22.2 -8.6L29.4 -0.7L52.9 8.6L60.2 6.6"/>
    <path class="r2" d="M-77.2 564.8L-83.5 555.9L-81.5 525.7L-84.6 519.2"/>
    <path class="r2" d="M756.2 335.7L734.4 338.6L711.2 328.1"/>
  </g>
  <g class="layer" data-kind="rail">
    <path class="rl" d="M1264.3 1151.5L1249 1122.9L1200 1061.8L1184.7 1037.9L1163.5 1011.6L1122.4 989L1093.8 966.3L1015.6 877L950.7 831L869.5 803.3L850.8 800.1L827.5 801.3L808.9 806.7L788.4 817.8L777.7 826.9L685.3 928.2L649.1 952.6L630.6 955.5L587.6 949.3L549.7 936.2L536.9 927.1L515.7 904L495.2 872.3L482.1 835.3L470.9 793.5L470.7 756.8L465.7 736.4L457.1 721.4L436.9 702.7L457.1 720.8L466.1 736.3L471 756.8L471.3 793.4L482 833.6L496 873.3L517.6 905.7L536.6 926.3L547.9 934.8L584.8 948.5L629.3 955.1L647.9 952.4L668.8 940.7L686 927.1L769.4 835.9L790.7 816.7L809.6 806.8L831.5 801L853 800.6L872.2 804.5L950.8 831.5L1017.6 879.3L1064.1 935.3L1094.4 967.2L1120.8 988.4L1154.3 1005.7L1165.8 1014.8L1199.6 1062L1249.2 1123.8L1259.7 1141.8L1268.5 1163.9M-47.8 484.7L-128.9 402.5L-40.3 490.7L44.9 534.7L75.4 557.6L115.5 593.7L147.2 612L112.6 591L74.9 556.7L44.9 535.1L-34.4 495.1L-47.8 484.7M-234.8 100.3L-200.6 125.1L-157.3 163.6L-132.5 197L-104 243L-94.9 265.1L-103.7 242.9L-132.7 196L-156.1 164.6L-200.3 124.4L-231.9 101.7M-173.7 347.2L-174.8 353.7L-171.7 360.3L-140.7 385.5L-128.9 402.5L-140.5 385.3L-171.4 360L-174.2 350L-170.6 343.7L-99.6 279.6L-95.3 272L-94.9 265.1L-96.3 274.1L-100.1 279.8L-173.7 347.2M436.9 702.7L409.5 679L398.9 673.5L358.9 667.4L290.6 662.1L357.2 667.2L398.7 673.8L408.2 678L436.7 703M151.2 613.6L147.2 612L250.7 657L290.5 662.4L251.9 657L149.3 612.7" data-dash="7 6"/>
    <path class="rl" d="M1108.6 935.7L1140.1 959.3L1180.2 976.2L1206.3 991.5L1180.1 976.5L1139.7 959.5L1107.6 935.3L1067.4 884.3L1037.9 853.4L1003.2 803.2L946.9 758.8L930.1 750.3L917.6 747.8L897.3 753.6L859.4 786.8L802.6 804.1L782.5 816.3L670.6 926.5L654.1 939.4L639.2 943.3L594.8 945.5L572.3 941L549.5 930.6L514 894.4L499.7 871.2L488.6 839.6L478.1 797.4L473.9 747.8L458.7 696.6L449 677.5L425.8 649L402.7 629.5L375.9 614.4L344.1 608.6L319.6 600.2L221.3 610.1L183.2 609.7L173.5 607.2L65.8 541L21.6 508.6L-16.8 494.1L-45.8 476.8L-100.4 424.5L-135.7 381.8L-201.4 320.4L-315.5 115.8L-332.3 98.7M1276.7 1070.3L1229.8 1013.8L1206.5 991.1L1232.7 1017.6L1288 1084.1L1317.1 1135.6L1323.2 1154.5L1329.4 1224.2L1326.7 1239.3L1320.8 1252.1L1285.9 1297.9L1276.1 1307.4L1258.5 1318.2L1241.9 1324.3L1215.6 1329.3L1187.6 1330.1M59.9 761.2L85.2 772.4L99.7 782.9L107.1 799.6L120.5 813.7L121.1 832.5L123.8 839.6L144.7 862.2L154.4 908.8L167.8 946.4L172.6 999.7L185.5 1024.1L187.6 1034.8L182.3 1049.1L155 1070.3L125.8 1099.6L95.9 1142.6L57.7 1185.1M-352.9 787.7L-344.8 781.1L-276.6 751.9L-231.5 723.8L-135.3 625.7L-112.9 591.7L-99.9 584.2L-84.2 584.7L-63.5 598L-28.7 627L-11.2 652.3L12.5 664.5L32.3 685.6M-330.4 100.3L-315.4 116.7L-200.2 321.5" data-dash="7 6"/>
    <path class="rl" d="M284.4 394L375.2 311.9L386.7 288.5L396.3 256.1L406.3 232.2L431.2 193.4L469.5 144.4L481.8 133.9L549.4 92.5L598 73.3L634.9 67.3L675.9 67.7L756.4 91.5L816.3 116.1L913.3 132.2L950.4 140.7L984.1 144.3L1047.1 142.5L1162.9 113L1173.7 107.9L1226.2 56.5L1249.6 12.5L1258.1 -58.3L1256.3 -73.5L1259.6 -109L1265.9 -144.9L1275 -233.5L1292.4 -276.7L1321.4 -312.3L1345.4 -325.5L1384.3 -339.9L1423.5 -350L1453.2 -353.8L1553.1 -353.7L1605.7 -341.9L1690.1 -329.6L1726.8 -328L1749 -332.1L1782.8 -349.7L1840.7 -407.4L1847.9 -423.3L1857.1 -459.7L1852.1 -495" data-dash="7 6"/>
    <path class="rl" d="M59.9 401.6L80.3 415.3L95.1 435.2L105.3 440.5L122.1 441.5L168.8 428.9L178.4 435.1L165.4 428.6L120.3 440.3L101.3 438L95.3 433.8L77.9 412.4L-14.8 348.5L-59 324.8L-87.4 282.7L-114.6 223.6L-156 163.7L-200.6 123.3L-239.6 95.3L-201.2 123.2L-153.9 166.8L-111.6 229.4L-87.7 282.8L-61.5 322.9L-13.7 349.7L54.1 397.1L-9.5 355.7L-44.4 339.5L-75.3 312.9L-88 294L-111.2 232.9L-133 197.1L-154.9 167.2L-198 127.6L-239.5 95.9L-199.8 126.6L-162.8 158.7L-152.9 170.5L-113 230.3L-88.3 294L-73.8 314.9L-46 338.8L-8.3 356.7L59.9 401.6M-352.9 -15.8L-293.2 40.7L-239.6 95.3L-353.3 -15.3L-292.9 41.4L-239.5 95.9M180.3 437L178.4 435.1L196.1 468.9L180.3 437" data-dash="7 6"/>
    <path class="rl" d="M961.9 523.8L975.6 614.2L973.7 633L957.9 696.6L959.2 711.6L965.2 723.5L1005.7 756.1L1021.6 763.1L1051.4 770.5L1069.2 782.6L1109 827L1111.6 836.4L1112.1 860.5L1116 870.6L1152.4 907.8L1219.2 931.3L1244.8 949.1L1271.1 954.5L1297 966.1L1312.4 964.8L1297.3 965.8L1270.3 953.6L1245.2 948.8L1223.5 933L1151.9 907.8L1115.7 870.8L1111.8 860.8L1109.3 828.3L1067.6 781.6L1049.2 769.9L1008.5 758.1L964.7 723.4L958.7 711.4L957.4 698.4L973.8 630.7L975.1 612.1L961.6 521.5L961.9 523.8L953.3 483.5L941 458.9L927.6 443.1L910.7 429.2L873.7 410L910.3 429.4L927.8 442.8L942.1 459.8L953.3 483.5M827.9 386.7L747.8 346.1L730 341.2L716.7 343.2L653.3 363.9L635.2 373.6L614.9 393.8L600.3 400.5L578.7 399.9L557.2 388.2L578.5 400.2L600.4 400.9L615.1 394.2L635.3 374.1L653.4 364.3L716.9 343.6L729.8 341.7L747.3 346.3L868.4 407.2L827.9 386.7L830.2 387.8M317.5 408.1L388.8 351L452.4 334.8L387.3 352.3L299.1 421.8L263.9 445.1L222.3 478.2L211.8 481.4L202 477.3L210.9 482.9L221.9 481.4L277.7 436.3L317.5 408.1M499.6 366.2L537.2 372.7L557.2 388.2L537.4 372.3L499.4 365.7M451 335.6L460.9 334.5L470.4 337.9L487.7 360.4L499.4 365.7L488 360.2L470.8 337.6L462.6 334.4L452.4 334.8" data-dash="7 6"/>
    <path class="rl" d="M779.6 42.5L708.1 28.5L630.6 34.2L586.5 43.9L503.2 72L586.4 44.3L617.8 36.6L699.2 28.7L725.9 31.6L788 44.6L820.9 65.3L897.7 93.6L927.8 99.5L962.1 98.9L1083.1 82.9L1104.2 77.8L1121.7 70.4L1159 41.2L1191.9 7L1201.3 -10.8L1209.8 -41.2L1213.1 -63.2L1202.1 -156.9L1205.4 -209.3L1211 -244.4L1219.9 -268.4L1223.6 -288.2L1230.1 -303.6L1241.6 -320.8M503.1 72.4L469 93.9L452.4 107.7L396.1 171.8L353.5 231.7L333.7 253.6L295 317.6L277.2 341.3L256.1 361.3L227.5 379.3L206.9 401L185.5 418.9L175.3 425L151.7 432.9L121.3 440.5L108.2 440.5L97.1 435.9L81.4 415.4L54.1 397.5L81.8 416.3L96 435.5L108.7 440.9L121.2 441.3L137.6 437.3L173.1 426.3L184 420.4L208.2 399.7L227.1 379.1L256.4 360.6L273 345.4L291 323L333.5 253.1L353.8 230.8L397.6 169.1L452 107.5L470.7 92.3L503.2 72" data-dash="7 6"/>
    <path class="rl" d="M517 -233.4L492 -213.9L479.6 -183.1L479.4 -171.9L500.5 -138.1L519.8 -125.7L526.5 -118.7L532.6 -88.7L525.6 -67.7L526.1 -57.2L534.7 -46.3L557.6 -40.2L565 -34.4L577.2 -8.3L578.2 9.3L554.3 35.4L500.4 67L445.1 110.3L407.3 156.5L356 231.9L334.3 255.2L331.3 266.3L336.6 278.8L390.2 336.6L402.9 339.7L454.5 332.1L465.1 333L478.1 340.8L501.8 371L535 468.6L537 480.2L533 499.4L515.5 528.2L516.3 629.2L517.5 559.9L515.7 529.2L523.7 514.7M1030.4 841.9L1012.6 806.8L941.5 752.8L918.4 742.2L895.5 735.8L861.9 731.4L835.4 732.6L787.6 741.5L758.3 752.9L718.9 790.8L679.2 858L659.4 879.8L645.7 890L630.1 897L610.9 901L595.5 899.5L576.5 889L564.2 871.4L545.5 775.2L520.3 711.8L498.8 671.1L499.6 658.3L512.8 639.4L516.6 630L497.8 665.7L499.7 674.7L512.9 697.9" data-dash="7 6"/>
    <path class="rl" d="M512.9 697.9L545.9 777.6L564 871.9L576.4 889.4L595.4 899.8L611.5 901.4L630.6 897.3L645.6 890.6L662 878.1L681.1 856.1L718.6 792L758.5 753.1L789.2 741.5L832.1 733.5L860.7 731.7L893.3 735.7L912 740.4L937.2 750.9L952.5 760.2L1011.9 806.6L1023.7 831.4" data-dash="7 6"/>
    <path class="rl" d="M18.1 1213.5L30.3 1211.4L54.2 1199.5L114.5 1127.2L122.7 1108.6L129.5 1099.8L147.1 1085.7L159.1 1070.8L186.3 1048.3L189.2 1023.5L176.5 1003.8L173 991.2L174.8 977.7L172.2 948.8L176.9 926.1L171.9 948.4L174.4 977.7L172.7 991.7L175.6 1002.7L189.1 1024.9L186.4 1047.2L181.7 1053.5L158.9 1070.3L145.3 1086.8L130.2 1098.1L122.2 1108.8L113.4 1128L54.8 1198.3L31.3 1210.5L21.4 1212.7M165.5 882.9L160.4 864.6L142.5 835.6L134.6 809L112 770.9L91.4 750.4L86.5 739L91.9 750.4L111.3 769.3L135 810.4L141.3 832.8L162.4 868.6L169.1 906.3L176.6 926.1L169.5 906.4L165.5 882.9M104 707.9L83.7 723.3L82.5 729.8L86.1 739.2L83.8 726.9L93.6 715.1" data-dash="7 6"/>
    <path class="rl" d="M113.4 703.2L117.9 698.6L136.6 697.7L144.7 702L165.5 702.5L179.5 696.5L214.1 695L241 676.8L242.6 673L240.9 669.7L231.2 667.8L218.9 655.6L206.4 651.9L201.2 645.4L187.6 639.8L172.5 627.4L188.7 640L201 644.8L206.8 651.8L216.8 653.8L231.1 667.3L239.7 668.6L242.8 672.4L239.7 678.8L214.8 695.3L179.5 696.8L165.5 702.8L144.6 702.4L136 697.9L118.1 698.9L101.1 712.6L113.2 703" data-dash="7 6"/>
    <path class="rl" d="M-58.1 875.1L-48.4 844.3L-16.4 821.3L-12.5 812L-12.6 796.5L-5.4 793.6L-12.9 796.3L-12.8 812.1L-16.7 821.3L-49.4 845.3L-62.4 886.4L-92 918.1L-117.4 939.8L-132.1 985.1L-117.5 940.6L-91.7 918.4L-61.9 886.5L-58.1 875.1M104 707.9L84.1 723L78.6 733L77.4 745.9L84.6 776.5L80.3 786.5L49.1 793.4L39 804.5L32.2 807.3L25.5 805.7L16.2 796L8.9 792.9L16.1 796.4L25.3 806.1L33.3 807.5L39.7 804.4L51.5 792.1L80 786.3L84.2 776.5L78 749.1L78.1 736.1L83.4 724.2L93.6 715.1M-41.9 1198.1L-58.1 1183.1L-73.4 1173.7L-92.3 1140.9L-131.6 1104L-92.9 1140.7L-74 1173.7L-40.2 1199.7M-133 1102.2L-131.2 1103.8L-146.1 1077.9L-144.4 1053.5L-145.2 1078.5L-132.6 1102.1" data-dash="7 6"/>
    <path class="rl" d="M1230.2 980.1L1238.1 975L1254 971.3L1276.1 973.2L1255.6 971.5L1234.6 977.2L1184.5 1026.4L1178 1042L1177.9 1049.8L1201.9 1086.3L1198.8 1099.5L1190.7 1115.1L1183.7 1119L1156.2 1119.6L1134.3 1135.1L1101.5 1126.8L1081 1129.2L1073.1 1133.9L1059.2 1148.4L1050.4 1169.8M1179.4 1038.1L1179.5 1048L1201.2 1068.5L1210.5 1084.9L1208.4 1101.7L1199.6 1115.3L1183.1 1121.8L1156 1122.1L1131.8 1136.7L1101 1130.1L1082.8 1132.2L1062 1146.8L1054.7 1156.9" data-dash="7 6"/>
  </g>
  <g class="layer" data-kind="labels">
    <text x="566.6" y="491.7" text-anchor="middle" class="lb lb-campus">Carnegie Mellon University</text>
    <text x="764.4" y="149.3" text-anchor="middle" class="lb lb-water">Reservoir No. 1</text>
    <text x="446.6" y="57.4" text-anchor="middle" class="lb lb-water">Lampher Reservoir</text>
    <text x="657.7" y="896.6" text-anchor="middle" class="lb lb-water">Monongahela River</text>
    <text x="126.6" y="825.7" text-anchor="middle" class="lb lb-water">Saw Mill Run</text>
    <text x="840.4" y="947.6" text-anchor="middle" class="lb lb-water">West Run</text>
    <text x="481" y="895.5" text-anchor="middle" class="lb lb-park">Hays Woods Park</text>
    <text x="579.9" y="581.3" text-anchor="middle" class="lb lb-park">Schenley Park</text>
    <text x="154.2" y="780.3" text-anchor="middle" class="lb lb-park">McKinley Park</text>
    <text x="891.2" y="34.4" text-anchor="middle" class="lb">Allegheny Valley Expressway</text>
    <text x="175.9" y="567.9" text-anchor="middle" class="lb">Penn-Lincoln Parkway East</text>
    <text x="673.1" y="421.9" text-anchor="middle" class="lb">Fifth Avenue</text>
    <text x="93.4" y="467.5" text-anchor="middle" class="lb">North Shore Expressway</text>
    <text x="410.9" y="555.2" text-anchor="middle" class="lb">Forbes Avenue</text>
    <text x="800.6" y="101.9" text-anchor="middle" class="lb">Washington Boulevard</text>
    <text x="205.6" y="527.9" text-anchor="middle" class="lb">Crosstown Boulevard</text>
    <text x="177.8" y="423.5" text-anchor="middle" class="lb">PA 28</text>
    <text x="467.9" y="723.3" text-anchor="middle" class="lb">East Carson Street</text>
    <text x="403" y="373.5" text-anchor="middle" class="lb">Bigelow Boulevard</text>
    <text x="393.5" y="319.8" text-anchor="middle" class="lb">Liberty Avenue</text>
    <text x="302.2" y="882.1" text-anchor="middle" class="lb">Becks Run Road</text>
    <text x="733" y="561.9" text-anchor="middle" class="lb">Shady Avenue</text>
    <text x="51.1" y="226.3" text-anchor="middle" class="lb">Marshall Avenue</text>
    <text x="589" y="292.5" text-anchor="middle" class="lb">Penn Avenue</text>
    <text x="360.1" y="118.4" text-anchor="middle" class="lb">Evergreen Avenue</text>
    <text x="499.9" y="658.6" text-anchor="middle" class="lb">Irvine Street</text>
    <text x="876.5" y="801.7" text-anchor="middle" class="lb">East 8th Avenue</text>
    <text x="679" y="651" text-anchor="middle" class="lb">Beechwood Boulevard</text>
    <text x="347.5" y="622.6" text-anchor="middle" class="lb">Birmingham Bridge</text>
    <text x="686.6" y="737.5" text-anchor="middle" class="lb">Browns Hill Road</text>
    <text x="362.4" y="200.4" text-anchor="middle" class="lb">40th Street Bridge</text>
    <text x="640.6" y="952.3" text-anchor="middle" class="lb">PA 837;Blue Belt</text>
    <text x="193.1" y="386" text-anchor="middle" class="lb">East Ohio Street</text>
    <text x="718.6" y="783" text-anchor="middle" class="lb">Glenwood Running Track</text>
    <text x="171.9" y="939.4" text-anchor="middle" class="lb">Overbrook Line</text>
    <text x="188.7" y="631" text-anchor="middle" class="lb">Allentown Line</text>
  </g>
  <g class="layer" data-kind="marker">
    <circle cx="563.5" cy="500" r="11" fill="none" stroke="rgba(52,87,213,.35)" stroke-width="1.5"/>
    <circle cx="563.5" cy="500" r="4.5" fill="#3457D5"/>
  </g>
</svg>
