<svg xmlns="http://www.w3.org/2000/svg" viewBox="0 0 1000 1000" preserveAspectRatio="xMidYMid slice" role="img" aria-label="Map of Niskayuna, New York">
  <!-- Generated from the Overpass API on 2026-07-23 — data © OpenStreetMap contributors, ODbL -->
  <style>
  text{font-family:Inter,system-ui,sans-serif;paint-order:stroke;stroke:rgba(255,255,255,.88);stroke-width:3px;letter-spacing:.02em}
  .wa{fill:#E3ECF8;stroke:#C9D8EF;stroke-width:1.4}
  .ww{fill:none;stroke:#BFD2ED;stroke-linecap:round;stroke-linejoin:round}
  .pk{fill:#E5EFE1;stroke:#BFD6B8;stroke-width:1.6}
  .cp{fill:#EEF0FA;stroke:#C3CAE4;stroke-width:1.8}
  .hw{fill:none;stroke:#AEB6C2;stroke-width:3.4;stroke-linecap:round;stroke-linejoin:round}
  .rd{fill:none;stroke:#C9CFD8;stroke-width:2.2;stroke-linecap:round;stroke-linejoin:round}
  .r2{fill:none;stroke:#DADFE6;stroke-width:1.5;stroke-linecap:round;stroke-linejoin:round}
  .rl{fill:none;stroke:#C6CBD4;stroke-width:1.4}
  .lb{font-size:12px;font-weight:500;fill:#98A0AB}
  .lb-water{fill:#8CA0C6;font-style:italic}
  .lb-park{fill:#85A07E}
  .lb-campus{fill:#767E92;font-weight:600}
  </style>
  <g class="layer" data-kind="waterarea">
    <path class="wa" d="M-285.1 -7.2L-293 6.6L-287.8 20.8L-266.1 33.2L-256.8 35.9L-251.7 27.2L-251.4 21.1L-270.5 11.1L-277.8 12.9L-278.1 7.3L-271.9 -0.3L-285.1 -7.2Z" data-fill="1"/>
    <path class="wa" d="M1046.4 463.6L1066.7 476.4L1077.3 476.4L1077 477.7L1066.3 477.5L1038.3 461.7L978.7 442.1L971.9 442L958.9 447.8L958.4 439.4L970.6 435.9L981.8 436.2L990.6 441.1L995.7 446.6L1018.5 451.2L1035.9 459.3L1035.3 455.7L1037.3 455.8L1036.5 459.5L1046.4 463.6Z" data-fill="1"/>
    <path class="wa" d="M926 462L956.3 440.4L957.5 448.2L875.2 488.8L847.8 498.3L798 509.2L770.2 525.1L770 522L796.3 508.8L864.3 492.1L926 462Z" data-fill="1"/>
    <path class="wa" d="M277.9 -34.4L273.8 -35.9L273.4 -43.5L286 -43.8L325.2 -29.5L320.8 -26.2L293.8 -33.3L277.9 -34.4Z" data-fill="1"/>
    <path class="wa" d="M825 29.3L827.3 40.3L835.5 40.3L833.9 21.8L834.9 18.1L840.3 13.8L839.1 10.6L833.3 13.5L834 19L829.2 16.3L826.1 20.8L821 22.6L822.1 29.1L825 29.3Z" data-fill="1"/>
    <path class="wa" d="M844.4 7.2L841.6 7.6L844.7 16.1L854.1 9.5L860.7 -9.1L858.1 -17.7L855.7 -16.6L856.3 -5.7L852.8 1.1L844.4 7.2Z" data-fill="1"/>
    <path class="wa" d="M718.1 961.1L717.6 952L715.3 948.2L704.2 952.4L702.5 956.4L710.7 960.7L713.7 964.8L718.2 965.2L718.1 961.1Z" data-fill="1"/>
    <path class="wa" d="M176.7 399.4L188.7 398L191.4 415.1L189.2 414.9L188.9 411.2L183.6 412.4L175.2 402.4L176.7 399.4Z" data-fill="1"/>
    <path class="wa" d="M202.7 692.4L204.6 696.5L216.5 699.5L224.7 692L228.3 691.7L222.7 705.3L223 709.9L220.3 710.2L217.3 705.2L206.5 700L210.4 699L203.2 695.9L195.1 683.9L202.7 692.4Z" data-fill="1"/>
  </g>
  <g class="layer" data-kind="waterway">
    <path class="ww" d="M-1416.6 712.6L-1404.5 713.7L-1396.9 710.6L-1388.4 710.9L-1371.3 719.8L-1358.5 722.7L-1355.1 729.7L-1343.8 736.6L-1335.2 748.4L-1329.5 752.1L-1326.3 750.6L-1312 761.7L-1298 766.3L-1291.3 765.6L-1287 769.4L-1286.7 764.1L-1280.6 762.4L-1281.4 756L-1272.2 741.8L-1273 737.5L-1267.5 732.2L-1251.4 723.2L-1248.5 725.3L-1247.9 730.9L-1236.1 733L-1229.2 718L-1224.3 718.4L-1213.7 708.1L-1196.5 703.8L-1193.3 706.2L-1190.1 701.3L-1176.9 696.1L-1171.2 685.6L-1164.1 679L-1163.2 671.9L-1151.3 653L-1151.5 641.2L-1144.6 633.7L-1136.5 637.8L-1126.2 630.7L-1122.7 624.5L-1114.5 624.6L-1104.8 615.5L-1089.7 618.3L-1085.1 615L-1070.3 632.5L-1058.4 629.4L-1054.8 625.5L-1040.7 629.4L-1039.1 635.6L-1027.2 647.3L-1023.5 648.2L-1020.9 647.4L-1016.4 637L-1006.7 629L-1004.4 614.6L-1000.7 611.1L-987.9 613.3L-975.2 610.2L-968.2 614.7L-961.3 614.3L-955.4 619.3L-943.5 617.1L-942.3 620.1L-934.3 624.4L-927.2 611.2L-925.3 600.2L-916.3 595.6L-914.5 605.3L-908.4 600.7L-910.2 597.7L-903.3 592.1L-900.9 592.6L-900.9 597L-897.2 596.9L-891.8 592L-864 594.7L-848.9 592.7L-832.4 603.4L-822.1 599.9L-813.5 604.6L-803.4 599L-781.2 599.8L-770 590.1L-735.3 591.8L-724.6 598.4L-718.8 613.4L-697.3 622L-695.5 628.3L-700 640.2L-695.8 645.8L-676.7 640.2L-664 639.2L-643.4 648.8L-612.9 638.6L-596.4 623.7L-587.7 624.2L-568.3 614.4L-554.5 615.2L-547.3 609.3L-542 608.8L-532 616L-527.9 626.6L-512.1 625.8L-503 627.8L-500.1 631.6L-492.7 632.2L-496.3 638.3L-486.9 648.9L-485.3 661.1L-479.9 666.3L-475.6 665.6L-472.4 660.7L-462.1 671.9L-447.7 669.7L-438.1 674.1L-431.2 673.7L-420.2 677.6L-412.9 673.6L-408.9 677.1L-401.7 675.4L-395.8 671.7L-391.4 675.3L-394.2 681.3L-389.5 686.4L-391.8 697.7L-388.6 705.9L-380.3 710.7L-371.5 721.4L-372.6 727.9L-359.2 724.5L-358.9 728.8L-364.4 735.4L-356.7 737.1L-353.9 742.3L-355.6 746L-357.4 744.6L-359.2 746.6L-355 751.5L-355.6 760.3L-352 764.9L-347.2 764L-347.7 775.5L-343.8 777.5L-343.2 781.1L-332.2 785.1L-327.7 798.4L-329.2 810.4L-318 811L-311 817.1L-318 827.2L-323 842.3L-322.5 859.2L-325 862L-335.4 864.1L-337.7 867.9L-330 880.7L-328.2 894.5L-318.2 899.5L-317.5 910.4L-310.4 916.4L-310.2 927.4L-301.5 930.3L-300 935.4L-297.9 952L-299.8 962.9L-310.2 962.2L-312 967.4L-294.6 970.9L-283.3 984.4L-259.9 986L-244.4 993.1L-233 990.8L-231.2 993.1L-238.6 1007.5L-238.5 1015.6L-215.1 1027.4L-208.7 1035L-217.8 1053.1L-212.1 1059.8L-161.7 1080.7L-151.2 1129L-141.8 1132.5L-137.4 1159.6L-111.7 1161L-94 1154.3L-88.3 1148.7L-78.3 1128.2L-69.9 1128.9L-70.6 1144.1L-60.8 1145.4L-60.6 1148L-71.3 1153L-71.3 1161.4L-43.1 1185.8L-31.3 1204.7L-26.1 1206.2L-26.1 1210.5L-32.3 1214.8L-31 1217.6L7.9 1228.2L13.3 1224.4L25.3 1226.7L26 1240.2L16.5 1256.7L17.2 1260.7L32.6 1275.7L37.8 1278L47.4 1276.2L49.7 1278.3L52 1302L65.2 1308.6L80.8 1321.4L82.5 1326.8L76.9 1341.4L74.6 1343.9L60.3 1344.7L58 1351.1L59.3 1358.8L64.1 1362L83 1358.7L84.9 1347.7L90.6 1338L115 1325.9L122.8 1325.5L140.9 1346.6L155.7 1357.7L165.3 1359L170.2 1365.4L164 1376.7L165.1 1385.4L169.3 1393L180.7 1401.1L195.2 1406.4L209 1402.1L210.4 1404.1L206.1 1415.2L209.2 1420.8L215.9 1422.8L222.9 1438.4L241.9 1452.7L242 1458.8L251.7 1458.8L253.5 1460.9L255.7 1468.3L253.4 1482.1L250.1 1486.6L232.7 1490.4L232.1 1495.5L237.5 1503.8L265.6 1513.7L271.6 1522.2L274.5 1532.5L286.2 1538L303.8 1528.5L318.4 1533.6L323.7 1544.4L329.1 1547.2L360.5 1538.3L363 1534.4L360.4 1529.6L362.5 1527.4L385.6 1534.2L392.7 1539.4L395.5 1536.4L396.1 1525.5L402.1 1523L404.2 1516.3L413.2 1514.6L408.2 1505.6L411 1503.3L417.7 1511.7L422.3 1523.9L420.9 1530.5L415.3 1537L413.6 1552.7L409.1 1558.5L407.1 1567.2L395.9 1569.7L393 1564.5L389.1 1565.7L383.7 1559.3L378 1559.3L370.6 1567.5L354.9 1598.8L356.8 1601.2L367.5 1601.2L373 1608.9L376.2 1621L372.6 1628.4L377.2 1638.7L381.7 1632L379.8 1618.8L382.2 1613.3L388.1 1613.6L406.2 1628.5L406.7 1632.5L393.3 1646L392.6 1652.3L400.6 1674.1L418.5 1696.7L423.8 1696.1L431.9 1688.3L432.1 1666.7L434.5 1663.2L440.6 1663.9L449.4 1689.9L459 1689.5L474.5 1678.1L475 1672.5L465.5 1664.8L463.5 1658.5L476.5 1643L487.6 1640.2L490.6 1636.7L490.7 1626L484.3 1603L492.1 1600.1L499.6 1602.6L524.5 1595L531.7 1597.3L533.1 1607.6L545.7 1612.2L558 1621.7L561.3 1627.6L555.5 1649.7L532.8 1677.7L533.5 1691.4L546 1696.8L550.5 1694.8L552.1 1688.8L563.8 1695.9" style="stroke-width:4"/>
    <path class="ww" d="M-304.6 164L-301.1 166.2L-298.5 178.5L-287.4 198.8L-235 237.5L-192.4 282.9L-175.4 287.1L-151.7 283.1L-123.1 260L-100.8 258.7L-83.8 251.3L-50.3 244.3L60.2 167.4L81.6 133.9L98.8 94.6L137.6 47.3L190 26L209.2 15.5L222 -1.7L253.2 -25.7L280.1 -31.4L326.8 -22.6L377.7 -26.5L388.9 -17.9L397.2 26.6L402.7 77.9L411.8 110L466.8 160.6L517.9 223.3L535.5 270.9L588.9 341.7L588.9 370.7L619.7 417.9L678.2 455.1L706.6 496.8L721 544.4L762.4 575.4L905.7 575.9L953.8 521L998.7 475.5L1031.2 476.3L1070.8 503.9L1083.3 523.5L1097.6 524L1118.4 510.4L1127.1 489.5L1221.2 363L1232.9 351.2L1292 233.4L1340.6 215.6L1366.7 213.2L1386.7 233.8L1391 258.7L1390.6 295.8M-206.4 266.2L-184.8 259.4L-155.3 242.3L-137.4 240.3L-119 233.2L-111.9 225.1L-92.4 224.8L-39.9 235.8M-301.1 166.2L-287 167.1L-268.5 177L-244.4 198.8L-232 226.9L-230.9 242M137.6 47.3L162.4 19.7L183.9 8.9L222 -1.7" style="stroke-width:4"/>
    <path class="ww" d="M125.6 740.3L125.6 748.1L129.9 753.7L141.2 753.8L156 759.6L165.5 770.8L158 778.8L171.2 788.7L172.9 794.2L196.2 807.5L207.2 821.6L228.7 832.4L237.1 829.4L240.5 822.7L244.7 820.9L276.2 827L282.2 833.5L292.2 833.5L307.1 831.5L319.6 823.8L325 826.3L332.1 820.3L342.8 822.9L347.2 827.5L356.9 821L364.8 828.4L384.9 832.5L394.2 827.5L398.8 828L399.7 824.5L413.8 817.4L428.8 812.9L434.8 807.1L436.3 793.8L438.2 793L436.4 786.9L438.7 784.3L444.9 784L450.1 778.4L458.4 776L468.7 776.8L470.7 773L479.5 768.7L488.2 772.4L490.3 767.5L494.4 766L496.3 761.6L493.6 749.2L489.9 746.7L495 743.2L495.4 732.2L508.3 726.2L511.3 720.9L508.9 713.1L514.3 708.4L511.9 705.9L521.2 696.4L520.8 694.2L523.4 694L519.5 689.7L520.9 686L524.2 685.5L522.9 681.1L519.8 681.2L520.4 677.6L524.7 677.1L526.7 664.3L530.3 662.4L528.9 655.8L537.2 645L529.7 641L532.9 639.4L531.6 633.7L538.6 633.5L539.7 628L536.2 621.6L538.9 618.6L539.9 607.7L542.8 603.7L543.7 605.3L556.4 600.7L555.7 597.3L558.7 595.7L556.2 591.4L559.8 588.4L555 588.9L555.7 582.4L558.9 582.1L558.9 579.3L550.2 578.1L547.5 567.1L554.3 563.2L554.2 560.8L547 560.3L544 562.7L544.9 567.8L542 568.9L537.6 558.8L531.8 564.3L524.9 555.8L538 541.1L537.8 527.7L546.1 520L536.1 514.4L533.2 521.8L527.7 515.2L525.6 507L529.4 492.5L523.8 485.5L535 478.6L542.7 479.9L545.7 487.3L552.5 488L555.5 485L556.7 477.2L574.8 470.9L581.8 471.3L591.6 479.4L599.9 480.6L606.5 475.5L613.6 477.2L622.7 470L635.8 483.8L645.5 487.3L646.6 491.4L653.6 498.1L652.9 502.9L656.1 507.5L661.7 510.5L666 509.3L684.9 533.7L702.7 544.9L715.2 571.7L724.5 580.9L739.8 590.9L750.8 594.1L772.1 605.7L803.5 616.7L880.1 600.3L905.7 575.9" style="stroke-width:2.2"/>
    <path class="ww" d="M-1133.4 894.5L-1130.4 891.2L-1122.1 897.8L-1120.8 901.6L-1112.7 905.6L-1104.6 900.4L-1100.4 903.9L-1094.8 901.5L-1081.3 920L-1073.9 918.3L-1074.8 924.9L-1071.5 931.9L-1062.3 925.8L-1047.1 927.5L-1039.2 921.3L-1015.2 954.1L-992 960L-980.1 970L-971.2 970.7L-966 979.3L-962.6 980L-961.8 983.9L-948.1 989.1L-924.8 1004.7L-903.9 1027L-900.6 1027.3L-894.2 1022.4L-874.1 1040.6L-862.6 1040.5L-855.7 1044.6L-850.2 1056.8L-845.1 1059.7L-837.8 1071L-837.7 1074.1L-841.7 1075.9L-842.4 1094.9L-836.7 1101.3L-815.4 1104.9L-812.7 1114.6L-814.7 1119.9L-812 1122.2L-803.3 1125.2L-795.1 1124.8L-787.2 1129.3L-777.1 1127.5L-763.4 1119.8L-757.3 1120.9L-751 1114.8L-743.4 1100.2L-738.9 1099.8L-733.8 1102.1L-734.6 1107.5L-731.4 1110.6L-711.1 1123.4L-695.2 1132.6L-679.1 1135.2L-669.7 1142.2L-657.8 1141.1L-650.3 1135.8L-648 1128L-638.8 1125.1L-629.9 1130.2L-587.2 1124.7L-582.5 1128.9L-582.9 1134.3L-570.2 1139.2L-557.4 1137.6L-552.1 1134.4L-538.8 1147.8L-526.5 1143.9L-514.3 1149L-519.6 1166.3L-512.3 1169.4L-503.5 1170L-493.6 1163.3L-478.7 1159.7L-479.1 1157.1L-468.8 1148.7L-450.6 1144.2L-449 1126.9L-440.9 1117L-439.5 1108.8L-413 1085.7L-408.1 1085.4L-387.7 1100.6L-375.2 1090.4L-361.5 1089.3L-360.8 1082.3L-356.1 1078.5L-346.2 1084.2L-338.1 1082.9L-326.5 1069.1L-311.9 1060.8L-306.8 1061.4L-299.2 1068.5L-294.9 1069.4L-291.5 1051.5L-292.1 1024.9L-287.9 1018.9L-280.1 1018.8L-270.7 1009.4L-268 996.3L-274.9 993.8L-274.1 990.8L-254 988.3" style="stroke-width:2.2"/>
    <path class="ww" d="M939.8 577.7L945.1 592.4L940.4 622L942.8 624.7L942.9 636.1L954.6 646L946.5 651.7L948.9 659L955 666.1L954.6 672.7L948 677.5L953.2 686L963.3 692.3L967 702.6L962.7 704.3L957.9 701.1L952.8 704.5L949.3 704L949.9 707.4L944.2 709.8L938.1 722.3L930 726L931.2 727.7L924.1 737.5L914.2 735.3L891.9 743L889.6 746.1L885.1 741.8L882.3 744.3L879.6 740.4L872.5 740.2L835.9 728.5L834 725.7L821.8 727L808.6 732.9L802.9 739.4L805.9 765.9L810.9 777.6L819 787.6L823.6 802.4L822 807.4L811.1 816.1L808 821.9L809.3 852.7L806.9 872L814.4 886L814 906.4L809.3 919L809.9 925.4L809.8 923.1M872.1 1088L838.6 1049.7L811.3 1032.2L792.2 1010.9L806.1 966.7L802 956.7" style="stroke-width:2.2"/>
    <path class="ww" d="M120 866L119.2 868.2L124 870.5L130 883.5L134.6 887.8L134.3 892.1L139.3 898.1L138.7 903.4L151.6 911.2L159.2 920.9L157.3 924.1L158.9 926.5L154.5 934L150.3 938.1L144.9 937.2L139.7 939.9L138.4 943.9L151.5 960.9L162.4 969.2L165.1 975.3L164.8 981.8L158 986.7L157.6 990.1L160.3 1003.1L157.7 1008.6L160.3 1019.5L158.5 1030L162.8 1041.5L157.6 1045L157.9 1047.3L154.9 1046.4L154.6 1053.7L148.5 1062.5L150.6 1067.6L147.9 1076.9L148.6 1084.9L146.2 1087.9L151.9 1120.8L156.4 1128.8L154.4 1133.3L157.8 1135L154.8 1139.2L156.7 1152.1L160.6 1157.9L160.7 1170L162.6 1176.4L168.5 1178.3L168.3 1185.2L170.5 1187.7L166 1203.9L172.7 1210" style="stroke-width:2.2"/>
    <path class="ww" d="M-348.7 -44.1L-244.6 -5.5L-203.1 16.3L-184.7 27.6L-75.1 111.9L-64.1 114.9L-45.6 135.6L-38.6 139.4L-30 142.6L-22.6 137.4L-11.5 135.2" style="stroke-width:2.2"/>
    <path class="ww" d="M762.5 525.3L771 523.8L797.9 509.3L865.1 492.5L973.6 440.2L1035.3 459.5L1069.9 477.9L1116.8 463.6" style="stroke-width:2.2"/>
    <path class="ww" d="M345.5 1060.5L341.8 1064.6L331.8 1066.3L328.7 1076.2L329.2 1083.6L323.9 1095.3L326.6 1109.1L313.9 1126.3L300.2 1134.1L282.5 1134.6L267.8 1142L256.9 1138.9L237.8 1138L220.5 1146.7L210.1 1155.6L194 1156.4L190.5 1177.7L185.9 1183.7L185 1197.1L175.5 1208.9" style="stroke-width:2.2"/>
    <path class="ww" d="M421.9 338.1L422.4 366.7L434.7 366.2L444.9 360.9L456.1 361.8L458.7 359.3L485.4 354.4L493.2 350.2L512.7 352.7L519.8 350.4L530.3 353.8L531.8 358.5L535 357.6L536.5 360.8L540.3 361L540.4 363.8L545 366.1L546.1 371.8L551.5 371.7L551.6 374.8L562.1 380.9L565.4 379.7L566.3 384.2L569.7 384.3L571.8 392L577 388.5L580.3 393.1L591.8 390.1L604.1 392.7" style="stroke-width:2.2"/>
    <path class="ww" d="M-75.9 724L-70.2 731.3L-68.9 739.1L-72.9 750.4L-67.6 761.5L-74 771.9L-78.6 774L-84.7 770.3L-89.5 771.5L-96.8 769.1L-109.8 779.8L-117.9 782.5L-122.6 779.3L-132.8 782.6L-132.4 785.3L-136.5 789.5L-165.5 791.8L-178.2 790.2L-184.2 793.5L-185.9 798.3L-203.4 809.3L-225.3 806.9L-226.3 804L-242.1 799.8L-242.9 794.1" style="stroke-width:2.2"/>
    <path class="ww" d="M-315.7 331.3L-294.7 314.3L-275.5 314.8L-270.7 319.7L-269.1 328.6L-278.1 339.4L-269.8 355L-261.7 361.6L-249.5 363.3L-249.8 360.2L-246.8 360.1L-226.2 368.8L-208.9 332L-206.4 329.9L-188.6 330.1L-188.2 327.1L-192.5 322.5L-189.1 316.6L-188 301L-182.5 285.3" style="stroke-width:2.2"/>
  </g>
  <g class="layer" data-kind="park">
    <path class="pk" d="M559 -72.7L566.8 -19.6L557.2 -9.3L566.5 26.2L558.4 43.6L563.7 45.5L564.7 51.1L568 55.2L572.2 55.7L571.1 42.7L576 42.9L575.8 33.9L582.7 35.8L581.1 45.9L583.7 51.1L577.6 53.7L577.7 57L592.4 55.2L591.1 66.4L599.6 77.7L617.6 75.6L617.8 63.9L609.7 60.1L610.6 51.1L608.3 36.4L603.1 31.9L601.1 15.4L598.1 15.4L600.2 18.7L599.4 22.7L591.9 23.7L586.3 15.2L573.5 7.4L572 4.1L573.1 0.8L578.3 -1.3L584.4 3L590.5 -1.2L596 -1.9L607 0L610.4 2.9L609.9 6.1L614 6L614.1 2.8L619.7 2.5L621.8 4.4L623.3 14.8L626.9 13.5L633.2 21.4L631.6 23.2L639.1 28.9L646 18.6L656.9 -13L592.8 -6.3L589.8 -12.3L590.4 -19.6L599.6 -35.5L593.3 -35.4L594.7 -43.8L602.3 -43.7L605.4 -52.4L603.4 -55.8L605.3 -61.4L600.6 -62.1L601.4 -67L615.3 -94L594.3 -92.4L585 -79.7L559 -72.7Z" data-fill="1"/>
    <path class="pk" d="M365.8 -62.8L340.1 -73.3L341.2 -75.5L335.3 -80L339.4 -102.9L335 -106L335 -115L338.9 -123L347.5 -132.2L347.9 -136.8L337.2 -145L338.4 -149.9L342.1 -152.6L352.9 -152.5L363.6 -148.3L367.2 -152.1L390.8 -150.8L406.9 -142.6L418.7 -149.9L423.7 -150.1L427.2 -148L414.5 -106.8L405.1 -106.2L390.4 -99.4L389.9 -87.4L395.1 -85L399.2 -80.7L392.6 -62.6L387.8 -63.2L385.2 -61.7L380 -63.2L377.7 -57.1L374.6 -54.8L365.8 -62.8Z" data-fill="1"/>
    <path class="pk" d="M785.6 925.7L786.8 966.7L825.4 970.2L818.6 992.7L805.3 1013.6L796.9 1008.1L786.4 1018L816.3 1037.1L823.2 1019.9L862.2 980.5L848.5 968.7L837.8 947.5L836.2 923.7L785.6 925.7Z" data-fill="1"/>
    <path class="pk" d="M763.4 859.5L736.2 862.2L730.8 858.1L703.7 856.5L701.7 848.5L706.9 846.4L698.7 814.4L707.5 801.9L709.7 795.9L709.5 788.8L717.9 776.3L731.2 773.9L749.1 783.7L752 823.5L755.6 825.4L756.7 831.9L771.6 842.1L773.6 847.4L763.4 859.5Z" data-fill="1"/>
    <path class="pk" d="M1238.5 1044.2L1234 1055L1234.7 1074L1224.8 1080.7L1222.4 1091.9L1224 1100.2L1237.4 1101.3L1244.8 1099.5L1252.8 1105.5L1248.2 1137.6L1263.8 1135.3L1276.1 1123.2L1279.4 1106.6L1284.1 1099.4L1281 1086.3L1282.8 1074.1L1280.5 1062.3L1281.2 1054.9L1277.2 1042.8L1275.2 1025.1L1268.5 1022.2L1253.8 1049.5L1242.3 1042.7L1238.5 1044.2Z" data-fill="1"/>
    <path class="pk" d="M964.8 1090.6L959.8 1094.8L955.6 1087.2L961.1 1084.2L959.6 1081.5L954.7 1084.4L953.7 1083.2L908.8 1116.2L902.4 1107.8L873.8 1132.5L930.4 1202.3L943.1 1191.9L940.3 1188.2L944.3 1186.2L946.6 1189.1L948 1187.9L912.2 1143.1L968 1096.2L964.8 1090.6Z" data-fill="1"/>
    <path class="pk" d="M253.1 515.9L285.1 536L283.1 540.1L303.7 550.1L303.1 495.5L293.8 482.3L293.9 476L278.5 443.3L266.1 447L244.1 474L255.8 489.3L253.1 515.9Z" data-fill="1"/>
    <path class="pk" d="M414.9 17.6L429.2 20.4L466.3 16.7L463.3 -3.8L478.5 -5.4L483.3 -27L452.9 -25.7L455.5 -45.3L445.7 -47.4L442.9 -42.7L406.5 -34.1L405.4 -30.4L413.7 -9.1L403.9 -1.6L407.3 7.8L414.9 17.6Z" data-fill="1"/>
    <path class="pk" d="M480.7 40.7L488.9 43.1L512 6.6L519.1 2.4L529.5 3.9L530.1 12.4L535.3 11.7L533.3 3.9L538.2 0.6L540.4 3.7L539 9.2L540.9 14.6L549.4 12.5L565 20.7L557.2 -9.3L541.7 -6.2L533.7 -9.4L526.5 -27.3L532 -47.3L542.1 -59.3L556.3 -63.8L553.7 -72.8L536.1 -66.6L525.7 -67.9L520 -66L522.9 -60L530.9 -60.8L530.7 -57.5L521.6 -52.2L496.6 -44.1L488.5 -37L490.2 -26.7L495.9 -23.1L500.1 -11.1L491.5 -8.1L491 9.5L492 14.2L497.2 13.9L496.2 18.8L489.2 21.3L482.6 20.5L481.2 24.2L482.7 31.3L485.7 32.1L480.7 40.7Z" data-fill="1"/>
    <path class="pk" d="M12.5 1177.2L13.1 1175.8L10.1 1174.1L12.5 1168.8L8 1169.1L3.8 1164.6L9.7 1152.9L13.2 1151L2.1 1140.6L-3.9 1140.3L-3.6 1134L5.5 1131.3L3.9 1129.7L-8 1129.1L-10.7 1134.4L-19.6 1135.9L-20.1 1140.5L-16.2 1143.6L-23.7 1153.3L-32.5 1150.2L-29.9 1146.3L-38 1152.7L-40.4 1146.1L-34.6 1138L-36.6 1133.6L-53.7 1142L-60.8 1140.3L-73.7 1117.9L-86.8 1127.3L-86.5 1144.8L-66 1167.5L-45.3 1155.5L-27.8 1184L-10.4 1186.4L-8.2 1188.8L-0.5 1171L12.5 1177.2Z" data-fill="1"/>
    <path class="pk" d="M723.8 1009.7L721.8 1015.8L683.1 999.8L665.6 978.7L643.7 964.7L644.5 957.7L637.6 949.8L640.1 946.4L636.3 944.7L641.1 946.1L644.8 938.7L649.7 940.2L651.9 935.4L723.2 980.8L723.8 1009.7Z" data-fill="1"/>
    <path class="pk" d="M199.6 1131.5L204.3 1133.4L206.1 1129.8L209.6 1127.9L218.4 1136.5L224.2 1136.1L222.1 1120L229.4 1110.7L250.1 1105.4L265.9 1105.5L277.3 1121.8L290.8 1118.7L301.8 1129.9L308.4 1128.9L315.3 1121.3L314.4 1118.6L309.2 1116.1L312.3 1108.1L272.4 1090.4L258.5 1079.6L262.5 1076.4L256.8 1072.2L254.6 1074.8L246.6 1070.2L241.6 1069.6L210.4 1110.1L199.6 1131.5Z" data-fill="1"/>
    <path class="pk" d="M111.6 587.1L119.3 562.9L124.3 558.4L137.2 554.4L142.4 575.1L166.1 569.2L166.6 572L170.5 574.6L172.7 572.4L191.6 594.5L184.1 605L134.8 616.3L111.6 587.1Z" data-fill="1"/>
    <path class="pk" d="M192.1 676.8L187.9 680.4L219.9 717.5L263 710.5L275.4 655.7L270 654.5L266.9 665.1L245.9 660.1L244.4 662.4L240.9 659.2L234.1 669L229.6 666.2L216.9 678.1L217.9 683.2L222.1 689.1L217.5 696.5L215.7 695.2L213.4 697.2L205.4 689.3L207.7 687.1L203.1 683.1L201.2 685.1L192.1 676.8Z" data-fill="1"/>
  </g>
  <g class="layer" data-kind="campus">
    <path class="cp" d="M791 832.6L787.9 835.1L789 847.5L798.3 848.8L806.2 846.6L808.1 853.4L805.6 865.9L792.1 867.3L790.6 870.6L798.9 876.8L809.5 877.9L833.2 900.1L838.7 911.9L839.6 940.9L847.3 954.4L851.7 967.3L861.9 977.1L879.3 983.7L882.1 966.8L887.6 967.1L885 935.5L888.4 935.5L891.8 929.4L889.4 925.6L879.9 923.5L879.2 903.6L925.6 901L922.5 886.7L925.6 886L922.3 876.3L929.3 875.1L928.6 872.5L905.4 876.6L906 869.4L921.2 867L920.5 864.2L926.3 863.6L925.7 861.1L917.3 854.3L918.9 850.3L928.3 848.6L935.1 852.6L939 852.4L939.2 848.8L941.8 849.1L941.4 852.4L961.8 851.7L957.3 854.1L960.1 858.5L965.2 855.8L967.1 858.8L970.2 857.2L968.2 854L972.9 851.2L976.7 850.4L979.5 856.2L992 850.2L986.3 843L1000.3 844.7L1006.7 832L996.7 825.5L986.8 822.6L887.2 825.3L882.3 823.7L876.4 815.1L873.8 814.3L874.1 810.9L871.7 808.1L878 780L883.6 778L883.4 774.6L885.8 774.5L886 749.9L877.1 748.3L867 719.9L861.2 715.6L839.2 710.9L836.2 720.9L827.6 718.8L825.5 726.5L821.7 727.9L835.2 744.9L838 754.1L831 755.1L833.1 764.6L836.3 764.1L838.7 768.9L840.9 768.9L843.5 781.8L838.7 786.1L840.8 788.5L844.5 788.7L844.5 791.3L843.3 792.7L839.7 791.9L832.6 784.3L829.1 788.1L824 786.4L819.8 789L814.7 786.7L811.8 790.9L810.5 799.3L812.6 810.1L811.6 812.5L801.5 812.8L801.1 831.9L791 832.6Z" data-fill="1"/>
    <path class="cp" d="M-0.3 2.2L-4.1 2.3L-4.9 -10.9L10.9 -12L18.1 -20.6L14.1 -23.7L2.3 -24.5L2.3 -28.2L10.3 -28.7L14.3 -36.9L23.2 -32.3L63.1 -66.1L49.8 -78.7L60.9 -90.7L50.7 -99L53.2 -102.5L46.6 -108L53.7 -118.7L63.1 -116L74.9 -127.8L81.9 -130.9L87.6 -130.1L93.2 -124.2L100 -138.7L101.5 -137.8L114.7 -168.4L139.3 -167.2L139.6 -163.2L137.4 -159.8L140.7 -155.3L146.9 -153.3L139.3 -135.5L144.9 -132.9L114.7 -72.6L108.2 -75.5L95.8 -50.1L98.2 -44.2L133.4 -9.4L112.5 7.2L55.7 38L31.3 28.2L26.6 23.5L26.8 19.8L23.2 17.6L31.6 1.2L-0.3 2.2Z" data-fill="1"/>
    <path class="cp" d="M-209.2 78.2L-201.4 75L-201.9 73.1L-372.8 -16L-347.7 31.8L-330.9 57.1L-265.1 121.1L-258.9 108.2L-254.7 110.4L-256.3 113.7L-252.2 113L-243 96.5L-227 105.4L-209.2 78.2Z" data-fill="1"/>
    <path class="cp" d="M-155.1 297.9L-150.3 308.7L-169.3 317.4L-166.5 326.1L-170 334L-154.7 343.1L-156.3 347.7L-141.8 372.5L-154.3 378.6L-153.3 380.7L-141.9 380.5L-116.1 384.7L-104.8 383.3L-98.1 380.2L-85.2 369.2L-71.8 362.4L-56.6 329.8L-58.2 322.7L-62.3 323.2L-63 320.9L-58.3 313.7L-59.8 310.9L-88.9 296.7L-103.8 292.8L-134 294.2L-155.1 297.9Z" data-fill="1"/>
  </g>
  <g class="layer" data-kind="highway">
    <path class="hw" d="M1053.6 -34.4L1058.3 28.7L1075.9 116.6L1079 174.6L1091.6 242.4L1097.9 327.9L1107.5 386L1111.8 443.9L1118.8 461.7L1127.2 470.1L1147.2 500L1153.2 520.6L1152.3 535.2L1134 619.5L1126.5 706L1122.4 727.7L1109.3 761.3L1069.6 827L949.7 987.4L922.5 1010.8L863.5 1044.2L833.2 1066.2L809.7 1088.4L769.5 1134.2L735.3 1166L781.4 1126.7L816.1 1088L837.8 1068L862.1 1050.2L931.5 1008.7L954 988.9L1062.7 841.4L1109.5 764.6L1124 728.1L1139.2 611.7L1154.3 533.6L1154.8 518.6L1148.6 498.9L1125.9 471.2L1113.4 443.6L1108.9 349L1099.4 293.7L1094.8 225.8L1083.5 176L1078 106.1L1069.6 63.6L1062 -6.5L1051.5 -61.6L1045.6 -126.9L1044.2 -122.7L1053.9 -56.8L1053.6 -34.4M1039.3 -162.9L1045.6 -126.9L1043.3 -131L1042.3 -152.1"/>
    <path class="hw" d="M516.8 1181.5L487.2 1160.4L421.3 1104.7L379.6 1080L357.2 1063.3L310.7 1019L263.1 968.3L204.3 924.9L138.4 862.3L73.7 813L2.3 766.7L73 813.9L106.3 839.4L146.3 878.7L252.5 963.4L358.3 1066.4L430.5 1114.7L494.3 1170.2M-242.8 636L-110.6 692.5L-82.5 708.5L-18 751.6L-111.2 693.6L-241.5 635.1L-282.1 623.4L-268.8 625.4L-242.2 634.8"/>
    <path class="hw" d="M1115.2 753.5L1123.8 735.9L1129.4 732L1136.3 731.1L1169.6 745.8L1263.6 762.9L1284.3 769.8L1439.2 837.8L1401 818.6L1277.3 765.3L1163.7 742.6L1114.6 711.6L1104.1 713.8L1098 722.6L1099.1 732L1110.7 748.8L1105.1 765.6"/>
    <path class="hw" d="M1037.8 778.6L961.3 742.6L911.5 724L806.5 695.3L772.6 671.1L720.7 625.9L571.9 566.5L543.2 551.9L503.8 538.5L487.9 527.3L451 489.9L409.2 464.2L350.5 451.4"/>
    <path class="hw" d="M112.6 575.3L115.7 552.6L113.6 531.7L100.7 481.9L83.8 441.4L65.3 425.6L19.8 405.8L-13.8 385.2L-39.9 364.5L-34.9 371.1L-11.6 388.9L21.8 408.1L63.2 425.7L81.9 440.6L100.2 484L112.5 531.9L114.6 554.8M-193.4 294.7L-163 294.9L-121.3 283.1L-157.3 294.8L-179.9 296.9L-200.8 294.3L-249 281L-193.4 294.7M-56.4 312.5L-49.2 349.3L-39.9 364.5L-48.2 349L-55.4 312L-62.7 301.1L-75.5 291.7L-67.8 296.5L-55.4 312M-95.1 284.4L-76.1 292.3L-101.9 281.6L-121.3 283.1L-105.8 282.1L-95.1 284.4M-300.7 228.4L-288.3 259L-279.3 268.7L-272.9 271.4L-282.6 263.8"/>
    <path class="hw" d="M336 443.6L302.8 436.6L255.6 450.4L236.6 466.9L221.6 485.9L207.2 522.7L198 531.1L181.7 539L205 526.8L209.9 519.8L222.8 486.5L244.1 457.6L254.1 449.6L287 438.4L300.6 436.5L341.2 448.7M110.3 560.5L166.6 545.6L134.6 552.3L112.3 559.9"/>
    <path class="hw" d="M57.2 748.4L73.1 730.7L81.8 708L92.2 667L100.8 606.8L88.6 677.8L73.6 726.7"/>
    <path class="hw" d="M74 162.6L64.2 142.7L56.7 104.9L22.4 70.7L0.5 28.8L-7.9 -14.2"/>
    <path class="hw" d="M-7.9 -14.2L0.2 -41.8L52 -116.9L54.6 -126.3L55.3 -155.5"/>
  </g>
  <g class="layer" data-kind="road">
    <path class="rd" d="M338 696.2L16.6 310.3L-24.7 280.1L-61.9 272.9L-75.6 257.9"/>
    <path class="rd" d="M719.3 1150.2L338 696.2"/>
    <path class="r2" d="M-158 174L-227.1 14.1L-234.5 -14.3L-238.3 -51.6L-252.7 -91L-236.5 -164.4L-234.5 -234.3L-239.2 -286.9L-227.9 -344.5L-228.9 -357.8L-239.1 -394.4"/>
    <path class="rd" d="M1414.8 1082.6L1393.8 1067.7L1370.9 1059L1354 1046.1L1343.1 1032.3L1327.9 1023L1279.4 1010.6L1266 1004.3L1246.3 1003.5L1229.2 999.4L1189.9 971.5L1167.4 964.5L1152 953.7L1135.5 946.1L1116 942.2L952.1 926.9L950 925L949.5 926.8L952.1 926.9"/>
    <path class="rd" d="M1052.5 -281.1L1055.8 -184.3L1085.8 -127.3L1101.2 -109L1136.7 -82.7L1165.7 -28.6L1190.1 -0.3L1248.6 77.5L1281.9 130.2"/>
    <path class="rd" d="M927.6 -152.9L938.4 -147.7L1001.7 -130.4L1026.9 -125.2L1047.7 -124.3L1071.4 -127.1L1107.6 -136.3L1165.6 -135.1L1302 -153.4L1320.3 -160.3L1347.9 -176.9"/>
    <path class="rd" d="M303.4 414.4L313.7 97.1L310.4 69.5L321.6 7.2L332.2 -5.1M335.8 -150.9L332.3 -72.5L339.7 -40.7L331.7 -8.6"/>
    <path class="rd" d="M-297.2 951.3L-219.7 986L-182.5 1008.1L-31.2 1080.2L21.6 1107.9L53 1129.8"/>
    <path class="rd" d="M1137.3 846.6L1143.2 810.7L1178.2 679.9L1183.4 645.6L1192.9 618.3L1219.7 581.9L1244.4 540.3L1266.8 516.5L1276.4 501.2M1169.6 1163.2L1170.3 1098.2L1167.9 1080.9L1161.5 1065.1L1141.2 1036.9L1138 1011.1L1126.4 980.7L1128.8 876.9L1132.6 849M1129.4 888L1132.6 859.5L1143.2 810.7L1129.4 879.5L1135.4 850.3M1134.3 845.1L1148.6 792.6"/>
    <path class="rd" d="M-12.3 796.6L-13.7 792.2L-3.1 842.1L-6.6 906.4L14.6 964.7L16.2 999.9L25.6 1035L38 1056.1L60.5 1112.2L58 1133.3M-8.1 751.9L-4.2 742.2L-14 770.6L-12.5 789.9L-14.1 786.5M15.9 708.7L16.5 704L-1.8 741.9L-0.2 737.9"/>
    <path class="r2" d="M999.9 931.2L992 945.8L1018.1 970.4L1025.4 993.1L1035.1 1001.1L1052 1023.6L1064.7 1052.5L1071.8 1079.5L1158.9 1193.2L1176.1 1222.1"/>
    <path class="r2" d="M434.3 1156.9L465 1121.2L493.6 1056L586.7 970.4L603 944.3L636.4 900L643.8 885.6"/>
    <path class="r2" d="M-2.6 268L30.5 270.4L53 278L169.1 332L255.9 378.5L303.4 414.4"/>
    <path class="r2" d="M-185 519.2L-186.1 562.4L-207.3 638.3L-215.6 657.6L-236.6 683.7L-267.2 695.2L-277.2 706.1L-284.4 731.7L-287 767L-285 776.4L-275.2 796.3"/>
    <path class="rd" d="M797.9 758.8L790.1 777.2L767.8 800.5L763 810.6L764.4 822.9L782 860L765.2 822.6L763.6 813.5L766.2 804.4L789.4 776.7L797.9 758.8L801.7 736.7L792.3 708.6L795.8 688.3M853.7 972.4L839.5 943.9L837.6 909.7L831.2 898.6L836.7 910.1L838.3 943.3L851.5 970.1L860.9 978L883 987L922 1023.4M803.6 878.4L814.2 881.6L829.9 898.9L813.1 882.2L792.9 876.2L784.8 865L794.4 875.5L803.6 878.4"/>
    <path class="r2" d="M-30.4 347.3L-28.3 342.4L-34 356.5L-39.3 362.3L-70.9 377.8L-95.8 384.2L-120.3 410.7L-206.4 457.2L-214.4 468.1L-217 484.4L-221.2 489.9L-227.8 491.8L-242.3 490.8M-28.3 342.4L-6.6 293.2"/>
    <path class="r2" d="M40.4 224.3L37.3 223.7L91.6 237.1L114.8 235.3L141.4 237.6L177.6 249.5L308.1 274.1"/>
    <path class="r2" d="M19.6 697.5L17.7 702L30.2 643.8L45.6 613.5L54.6 579.9L70.9 535.1L75 493.6L74.4 451.3"/>
    <path class="r2" d="M302.2 652.9L301.3 610.6L304.9 553.7L304.7 500.8L301.4 476.7L303.4 414.4"/>
    <path class="r2" d="M767.7 915.8L775.8 880.3L780.8 873.3L776.7 880.4L768.7 915L759.9 922.9L747.6 926.4L701.3 926.9L681.1 914.9L666.3 896L643.8 885.6"/>
    <path class="r2" d="M-91.1 574.2L-39.6 546.6L-16.5 530L72.7 453.2L85.4 433.8"/>
    <path class="r2" d="M1295.1 211.3L1286.9 212.4L1269.6 209L1233.1 214.9L1212.8 221.6L1183.2 239L1168 244.7L1129.1 234.2L1100.5 237.8"/>
    <path class="rd" d="M-100.3 220.1L-113.5 202.1L-143.8 179.6L-225.7 146.1L-250.8 132L-270.6 116.8"/>
    <path class="r2" d="M783 1154.3L860.4 1089.3L885.2 1058.6L922 1023.4"/>
    <path class="rd" d="M1167.2 723.5L1182.8 725.7L1206.1 722.6L1319.9 653.4L1336.7 646.5"/>
    <path class="r2" d="M922 1023.4L944.2 1052.1L1019.3 1179.4"/>
    <path class="rd" d="M-88.4 581.6L-63.5 626.7L16.3 703L14.7 700.3M-188.2 518.3L-150.3 535.7L-96.8 572.7L-91.1 574.2L-88.4 581.6L-89.5 579.5M20.7 706.3L18.9 703.7L45.2 737.1L60 748.3M-242.3 490.8L-214.8 509.7L-188.2 518.3L-190.3 517.8"/>
    <path class="rd" d="M1284.8 914.3L1261.1 898.7L1214.3 884.1L1151.1 859.9L1140.7 852.9L1137.4 846.9M1069.1 796.8L1092.9 811.5L1077.9 800.5M1097 813.8L1092.9 811.5L1127.9 841.5"/>
    <path class="rd" d="M-89.5 115.2L-75.3 91.2L-53.9 68.2L-41.8 37.9L-21.1 18.1L-7.9 -14.2"/>
    <path class="r2" d="M89.4 397.6L165.3 340.6L169.1 332"/>
    <path class="rd" d="M947.2 929L948.8 926.7L928.6 997.3L911.3 1013.1"/>
    <path class="r2" d="M-275.2 796.3L-269.2 814.6L-267.2 843.9L-275.2 888.6"/>
    <path class="rd" d="M53 1129.8L85.7 1153.2L117.9 1189.2"/>
    <path class="rd" d="M-126.1 192.5L-107.3 134.9L-95.8 125.7L-89.5 115.2"/>
    <path class="rd" d="M1321.1 536.4L1238.4 549"/>
    <path class="r2" d="M-275.4 960.1L-264.6 926.4L-275.2 888.6"/>
    <path class="rd" d="M-306.9 507.2L-258.4 492.7L-242.3 490.8"/>
    <path class="r2" d="M-242.3 490.8L-303 473.6"/>
    <path class="r2" d="M-261 261.2L-249.6 263.2L-245.3 267.1L-249 284.5L-245.2 270.9L-249 264.1"/>
    <path class="r2" d="M-249 284.5L-271 308.6L-295.8 312.8"/>
    <path class="r2" d="M-245.4 286.4L-229 292.9L-193.8 297.8"/>
    <path class="r2" d="M1176.4 687.1L1193.3 697.2L1195.7 712.2L1206.1 722.6"/>
    <path class="rd" d="M-270.6 116.8L-305.5 83.7"/>
    <path class="rd" d="M-75.6 257.9L-100.3 220.1"/>
  </g>
  <g class="layer" data-kind="rail">
    <path class="rl" d="M105.3 583.7L214.4 712.1L692.2 1256.9L214.2 712.4L75.5 550.1L61.9 537.4L37.1 520.6L-71.2 466L48.9 527.3L75.7 549.8L105.3 583.7M-414.7 -68.1L-231.5 1.9L-177.6 35.1L-65.9 120L-52.9 133.8L-3.3 237.4L0.9 258.5L-3.9 279.1L-13.2 293.1L-48.6 320.7L-56.3 330.4L-79.9 380L-53.1 325.2L-15.2 295.9L-7.8 286.4L2.8 264.9L13 256.5M-71 465.7L-90.6 450.9L-97 439.4L-99.6 427.3L-95 403.1L-79.1 378.4L-95.3 403L-99.9 427.3L-97.3 439.5L-90.8 451.1L-71.2 466" data-dash="7 6"/>
    <path class="rl" d="M-375.7 398.5L-126.4 1010.3L-117.8 1051.9L-113.3 1154.4L-117.2 1103L-125.4 1062.5L-124.3 1052.9L-113.3 1020.4L-115.8 997.1L-160.5 923.3L-375.4 398.3" data-dash="7 6"/>
    <path class="rl" d="M33.3 230.6L53.9 213.8L69.1 196.8L97.4 144.5L97.4 133.3L82.1 109.8L78.3 98.1L77.9 82.1L81.8 68.6L92.9 54.1L184.9 -32.2L201.4 -51.7L220.5 -87.7L241.5 -163.6L220.7 -87.6L201.6 -51.5L185.1 -32L94 53.4M100.1 47.2L184.6 -32.5L204.2 -56" data-dash="7 6"/>
    <path class="rl" d="M83 558.1L30.9 503.5L16.9 496.9L4.3 495.1L-15.6 500.1L-196.8 596L-226.9 606.2L-247.9 608.3L-272.2 602.3L-294.9 585.4L-307.7 564.6" data-dash="7 6"/>
    <path class="rl" d="M-312.5 353.8L-301.3 349.7L-286.2 350.1L-244.8 373.4L-194.5 382.7L-155.4 385.6L-104.6 384.2L-94.7 379L-79.8 366.3L-62.1 360.3L-54 354.5L-5.8 284.5L3.2 265.8L13 256.5" data-dash="7 6"/>
  </g>
  <g class="layer" data-kind="labels">
    <text x="877.8" y="835.8" text-anchor="middle" class="lb lb-campus">Albany International Airport</text>
    <text x="713.2" y="958" text-anchor="middle" class="lb lb-water">Stump Pond</text>
    <text x="183.8" y="406.6" text-anchor="middle" class="lb lb-water">Iroquois Lake</text>
    <text x="212.7" y="698.1" text-anchor="middle" class="lb lb-water">Delta Pond</text>
    <text x="466.8" y="151.6" text-anchor="middle" class="lb lb-water">Mohawk River</text>
    <text x="529.7" y="632" text-anchor="middle" class="lb lb-water">Lisha Kill</text>
    <text x="891.9" y="734" text-anchor="middle" class="lb lb-water">Shakers Creek</text>
    <text x="540.3" y="352" text-anchor="middle" class="lb lb-water">Lock Creek</text>
    <text x="276.1" y="497.1" text-anchor="middle" class="lb lb-park">Schenectady Municipal Golf Course</text>
    <text x="148.7" y="579.2" text-anchor="middle" class="lb lb-park">Schenectady Stadium Country Club</text>
    <text x="73.7" y="804" text-anchor="middle" class="lb">New York State Thruway</text>
    <text x="571.9" y="557.5" text-anchor="middle" class="lb">Troy Schenectady Road</text>
    <text x="92.2" y="658" text-anchor="middle" class="lb">I 890;NY 7</text>
    <text x="310.4" y="60.5" text-anchor="middle" class="lb">Balltown Road</text>
    <text x="61.9" y="528.4" text-anchor="middle" class="lb">Hudson Line</text>
    <text x="92.9" y="45.1" text-anchor="middle" class="lb">Freight Subdivision</text>
  </g>
  <g class="layer" data-kind="marker">
    <circle cx="581.7" cy="585.1" r="11" fill="none" stroke="rgba(52,87,213,.35)" stroke-width="1.5"/>
    <circle cx="581.7" cy="585.1" r="4.5" fill="#3457D5"/>
  </g>
</svg>
