<svg xmlns="http://www.w3.org/2000/svg" viewBox="0 0 1000 1000" preserveAspectRatio="xMidYMid slice" role="img" aria-label="Map of Hillsboro, Oregon">
  <!-- Generated from the Overpass API on 2026-07-23 — data © OpenStreetMap contributors, ODbL -->
  <style>
  text{font-family:Inter,system-ui,sans-serif;paint-order:stroke;stroke:rgba(255,255,255,.88);stroke-width:3px;letter-spacing:.02em}
  .wa{fill:#E3ECF8;stroke:#C9D8EF;stroke-width:1.4}
  .ww{fill:none;stroke:#BFD2ED;stroke-linecap:round;stroke-linejoin:round}
  .pk{fill:#E5EFE1;stroke:#BFD6B8;stroke-width:1.6}
  .cp{fill:#EEF0FA;stroke:#C3CAE4;stroke-width:1.8}
  .hw{fill:none;stroke:#AEB6C2;stroke-width:3.4;stroke-linecap:round;stroke-linejoin:round}
  .rd{fill:none;stroke:#C9CFD8;stroke-width:2.2;stroke-linecap:round;stroke-linejoin:round}
  .r2{fill:none;stroke:#DADFE6;stroke-width:1.5;stroke-linecap:round;stroke-linejoin:round}
  .rl{fill:none;stroke:#C6CBD4;stroke-width:1.4}
  .lb{font-size:12px;font-weight:500;fill:#98A0AB}
  .lb-water{fill:#8CA0C6;font-style:italic}
  .lb-park{fill:#85A07E}
  .lb-campus{fill:#767E92;font-weight:600}
  </style>
  <g class="layer" data-kind="waterarea">
    <path class="wa" d="M-133.8 944.3L-138.3 942.6L-119.8 919.3L-117 910.4L-116.5 894.6L-110.8 896.2L-103.8 900.9L-103 906.2L-110 920.5L-117.4 928.9L-118.3 937.6L-121.6 939.7L-126 938.9L-133.8 944.3Z" data-fill="1"/>
    <path class="wa" d="M-282.6 607.3L-273.6 605.9L-269.3 608.7L-269.8 623.6L-281.8 623.5L-283 631.4L-298.9 634L-298.5 628.5L-295 624.8L-293.1 618.3L-287.5 615L-282.6 607.3Z" data-fill="1"/>
    <path class="wa" d="M277.8 988.8L278.2 995.1L284 998.4L292.5 1007.7L301.3 1024.1L308.3 1025.2L308.3 1020L305.7 1016.3L302.6 1012.4L297.7 1010.3L297.4 1002.2L294 994.5L277.8 988.8Z" data-fill="1"/>
    <path class="wa" d="M-157.5 822.3L-158.2 817.3L-155.4 817.3L-151.8 813.9L-148.2 803.6L-143.8 797.9L-137.1 797.3L-131.6 800.1L-138 804.3L-144.6 815.8L-156.1 826.5L-161.2 836.8L-175.3 842.6L-175.2 840L-162.1 833.9L-157.5 822.3Z" data-fill="1"/>
    <path class="wa" d="M424.3 151.2L416.2 150.1L416.3 145.3L436 147.6L448 140L451.7 132.6L455.9 133.3L461.2 129.1L459.2 133.9L467.3 140.4L460.8 138.3L473.6 146.4L472.8 147.6L459.6 139.8L456.1 139.7L447.8 147.4L437.7 151.7L424.3 151.2Z" data-fill="1"/>
    <path class="wa" d="M23.1 1046.6L22 1042.9L29.7 1037.8L36 1028.1L45.4 1018.8L52.4 1024.7L41.6 1033.3L37.2 1047.7L23.1 1046.6Z" data-fill="1"/>
    <path class="wa" d="M172.1 945.5L169.6 945.6L169.4 943.7L178.4 933.6L195.1 923.3L198.5 931.2L206.2 940.9L193.5 936.1L184.1 938.2L175.5 945.5L172.1 945.5Z" data-fill="1"/>
    <path class="wa" d="M972.7 118.1L970.5 114.9L953 110.5L958.5 108L958.1 105.4L954.3 104.6L949.1 107.6L950.7 105.5L948.5 102.7L948.8 99L946 98.2L941.9 101.5L943.3 94.6L948 94.1L951 97.7L959.4 99.1L959.2 101.9L961.8 97.4L961.7 101.9L966.7 107.4L972.7 109.7L982.7 119.5L977.9 118.7L975.6 121.2L972.7 118.1Z" data-fill="1"/>
    <path class="wa" d="M-43.6 935.7L-49.1 924.5L-48.8 912.9L-41.4 914.1L-32.7 918.4L-40.5 936.6L-43.6 935.7Z" data-fill="1"/>
    <path class="wa" d="M341.5 589.9L341.7 599.2L345 601.7L357.3 624.7L366.9 624.9L354.9 606.9L349.9 604.3L349.5 598.9L341.5 589.9Z" data-fill="1"/>
    <path class="wa" d="M-117.2 -67.7L-117.4 -64.9L-120.5 -64.1L-140 -69.9L-151.5 -67.5L-149.2 -70L-148.6 -74.9L-144.7 -75.9L-135.2 -75.8L-125 -71.5L-117.3 -70.6L-117.2 -67.7Z" data-fill="1"/>
    <path class="wa" d="M369.3 634.4L371.8 643.5L366.5 658.3L363.8 661.5L350.6 665.2L350.4 660.9L357.6 660.2L365.2 647.2L365.9 636.6L364 632L367.6 631.9L369.3 634.4Z" data-fill="1"/>
    <path class="wa" d="M1023.1 201.5L1020.6 204.4L1015 202.2L1008.2 204.1L998.4 203.6L986.5 208.9L983.9 208.1L985 199.9L991 198.3L1015.7 199.1L1023.1 201.5Z" data-fill="1"/>
    <path class="wa" d="M4.9 787.4L3.3 782.3L4.8 779.6L18 775.6L21.6 770.3L34.7 762.9L33.4 760L24.9 757.9L21.6 749.7L25.9 756.9L33.7 759L38.3 765.6L31.9 768.3L18.8 779.5L6 784L4.9 787.4Z" data-fill="1"/>
    <path class="wa" d="M326.9 778.5L314.1 774.3L314.6 770.7L317.9 770.9L319.1 768L316.8 767.5L318.7 763.4L317.5 758.8L315.3 759.6L312.7 757.8L314.2 755L321.3 754.6L324.7 756.4L325.5 761.7L322.6 764L325.5 767.5L326.2 772L321.4 769.1L319 771.3L320.1 773.9L327.8 777.2L326.9 778.5Z" data-fill="1"/>
    <path class="wa" d="M99.3 1164.3L105.6 1155L107.4 1144.7L117.1 1150L109.5 1161.5L103.2 1164.5L99.3 1164.3Z" data-fill="1"/>
    <path class="wa" d="M-136.7 28.2L-134.7 30.4L-141 36.3L-141 38.5L-130.5 42L-129.5 44.8L-145.7 44.3L-149 37.7L-136.7 28.2Z" data-fill="1"/>
    <path class="wa" d="M1243.9 618.3L1245.5 615.9L1250.4 616.3L1260.2 610.9L1263.4 612.8L1260.9 619.5L1258.6 620L1259.4 623.4L1255 621.3L1254.5 626L1250.6 624.8L1250.4 620.3L1248 620.7L1246.9 623.7L1245.1 623L1243.9 618.3Z" data-fill="1"/>
    <path class="wa" d="M-112.1 971.3L-122.2 960.3L-123.7 951.7L-113.6 952.7L-112.1 971.3Z" data-fill="1"/>
    <path class="wa" d="M-261.1 613.7L-259.3 620.2L-255.3 617.7L-252.6 620.1L-254.6 621.5L-254 623.1L-250.3 621.4L-248 624.6L-254.7 626.4L-257.6 623.6L-258.2 627.5L-264.5 628.6L-266.1 622.9L-263.5 618.7L-265.5 617L-263.4 613.1L-261.1 613.7Z" data-fill="1"/>
  </g>
  <g class="layer" data-kind="waterway">
    <path class="ww" d="M-446.6 767.7L-432.8 766.1L-424.1 762.1L-413.1 769.5L-409.9 768.4L-406.2 760.8L-405.1 771L-397.9 775.6L-393.8 774L-385.2 759.7L-382.3 759.1L-381.8 763.1L-386.3 770.2L-381.7 772.3L-376.2 770.3L-366.4 759.6L-348.2 755.5L-348.9 749.8L-352.6 745.8L-336.3 744L-329.9 735.6L-343.9 721.5L-345.4 716.6L-336.1 713.5L-313.8 719.7L-309.1 715.1L-304.6 701.7L-305.9 688.5L-303.5 683.2L-303.8 671.9L-297.5 671L-285 675.9L-276.2 668.1L-274 671L-280.3 686L-267.4 692.8L-262.4 700.5L-263.3 707L-270.8 719.2L-253.2 731.4L-243.3 731.6L-239.3 726.2L-229.4 739.2L-226.1 728.4L-228.8 722L-218.8 721.4L-221.2 734.5L-216.3 737.6L-209.1 735.2L-198.7 722.7L-191.4 723.6L-188.1 732.7L-195.6 753.4L-177.2 749.5L-172.2 750.9L-162.5 760.6L-157.3 759.5L-156.7 756.4L-159.8 741L-137.8 751L-126.9 741.6L-108.2 746.8L-103.7 745.8L-98.5 739.2L-100.4 736.1L-109.5 732.3L-111.5 728.4L-110.1 712.3L-108.4 708.3L-96.7 705.3L-93.1 674.6L-95.8 672L-100.3 678.3L-102.9 677.7L-107.1 667.7L-106.7 657L-91.5 645L-90.2 634.2L-83.6 624.2L-85.7 613.4L-90.3 608L-87.3 601.4L-98.5 595.2L-83 582.6L-78.2 584.3L-82.5 599L-77.6 605.7L-72.4 604.7L-61.2 594L-58.1 595.1L-56.4 603L-45.1 598.7L-37.6 602.5L-37.3 607L-46.1 610.1L-46.3 621.7L-56 627.6L-55.7 633L-36.3 637.2L-25.3 631.5L-23.7 628.2L-18.5 632.2L-13.2 621.3L-9.4 622.6L4.3 640L17 633.6L11.2 662.1L2.5 673.5L5.1 682.6L-3.8 697.7L6 702.8L10.4 702L13.5 695.1L8.9 682.6L13 681.4L23.6 692.9L25.5 703.8L18.7 719.6L11.7 715L6.1 719.5L4.9 732L24.3 738.5L30.9 733.2L45.4 742.1L64.7 748.2L74.7 748.3L76.7 751L75 755.8L94.9 746.6L101 754.7L99.7 761L101.8 763.2L107 760.9L111.8 753.6L104.4 752.8L102.7 748.2L109.2 735.4L124.3 738.2L125.6 729.3L132.7 729L134.5 726.3L134.4 716.4L147.1 715.2L157.9 708.1L167.6 706.1L174.9 707.5L195.9 719.1L199.1 710.4L210.1 698.3L219.5 703L223.5 706.9L223.8 712.6L227.1 714.1L237.3 701.8L243 688.5L249.8 683.1L253.8 672.5L257.2 682.5L268.7 678.8L284.1 686.9L304.4 709.8L305.9 706.2L303.9 696.3L307.9 691.1L313.3 691.5L323.2 702.1L331.5 703.1L346.1 690.7L347.7 696.2L338 712.5L337.1 724.6L325.9 736.6L325.9 739.8L336.3 750L338.2 756.5L336.9 766.1L334.2 768.3L329.9 764.8L329.3 752.4L326.1 747.9L312.7 751.1L308.9 756.2L305.4 779.2L307.3 809L311.9 808.2L318.6 796.9L321 806.3L329.1 813.8L358.6 821L363.5 835.8L379.8 851.6L388.7 850.5L385.8 839.8L389.2 836.9L393.8 838.2L403.2 848.4L417.2 851.4L419.1 856.2L414.5 863.1L425.8 872.5L431.4 869L429 854.8L435.5 860.2L438.7 872L442.4 875.2L456.7 871.7L454 867.7L443.8 865.6L443 861L445.9 856.5L454 854.3L463.9 859.9L469.3 857L471.5 849L466.1 840.9L473.6 839.6L476 832.6L475.8 826.7L468.8 820.3L472.8 805.8L470.4 792.7L472 787.6L483.6 786L509.1 772.9L562.9 764.9L574.2 766.2L582.6 780L574.1 801.6L574.7 809.4L579.8 820.6L585.9 823.8L599.7 814.2L601.8 817.4L600.7 837L597.7 843.7L581.1 848.5L577.6 840.5L574.6 842.6L579.7 873.7L582.9 878.5L585.9 877.4L588.6 860L595.6 850.9L602.6 848.8L618.4 878.5L617.9 885L607.1 889.5L605.5 895.1L617.9 901.3L626.7 943.9L625.6 961.6L622.4 967.8L615.4 969.1L611.4 967.2L607.1 962.4L603.6 946.1L597.9 938.8L577.1 954.3L566.6 952.9L564.6 954.6L565.1 984.1L570.2 1012.7L557.3 1028.5L550.6 1048.4L546 1087.2L493.6 1165.4L483.4 1191.7L484.4 1203L489.3 1210.7L493.8 1214.5L503.5 1215.3L505.9 1222L483.3 1249.6L471.3 1248" style="stroke-width:4"/>
    <path class="ww" d="M990.1 -165.7L995.6 -160.6L997.4 -153.9L1007.2 -151.2L1006.9 -141L1009.1 -137.8L1012.1 -138.1L1011.2 -134.7L1007.3 -134L1008.2 -126.9L1005.2 -126L1007.2 -121.3L1001.5 -120.1L1004.5 -115L1003.8 -107.6L1010 -107.7L1011.7 -102.3L1017.3 -101.3L1019.5 -97.6L1017.6 -92.2L1021.8 -87.5L1023.3 -72.4L1015.6 -65.1L1016.8 -59.7L1026 -54.1L1042.1 -49.4L1053.7 -49.1L1055.7 -41.4L1078.7 -30L1082.4 -24.9L1088.4 -24.3L1086.4 -12.9L1088 -5.2L1081.9 1.7L1084.7 7.9L1079.7 9.2L1082.1 19.1L1076.4 34.1L1080.7 37.7L1068.6 46.7L1069.7 57.6L1060.8 58.1L1053.8 66.1L1049.9 66.7L1046 76.5L1022.7 93.7L1021.6 105.9L1015 109L1018.2 112.6L1011.5 111.9L1011.4 117.3L1008.8 119.9L996.4 117.3L990.7 120.7L989.7 126.6L983.6 122.4L976.7 127L974.9 132.5L967.7 138.6L961.4 148.7L962.5 158L968.8 168.3L973.4 185.5L970.7 188.3L976.2 192.3L973.7 197L978.6 202.4L983.1 200.8L984.2 204.8L979 208.1L982.2 210.6L987.3 209.9L987.6 212.8L984.7 217L979.5 218.4L981 225.7L975.5 228.6L977.4 233.5L948.8 244.8L941.9 256.7L929.7 266.5L920.2 279.2L915 291.6L910.3 290.5L907.2 302.6L909.2 307.4L904.6 310.6L909.7 315.5L903.2 320L907.9 325.5L899.2 327.7L902.3 332.9L896.9 336L893.3 342.2L895.4 353.8L891.7 363.6L885.8 367.3L889.4 370.5L885.6 374L885.8 381.5L878.6 385.3L875.8 390.5L870.9 390.3L873.6 398L877.6 401.4L873.4 403.3L872.1 411.3L864.3 409.3L867.4 425.5L864.9 431.3L860.4 434L861 439.1L824.8 440.4L830.4 453.5L824.8 459.9L827.4 464.1L820.8 463.1L817.7 470L810.2 467.4L807.4 479.6L799.8 481.6L794.6 478L784.9 483.4L780.2 480.6L778.1 489L771.8 486.9L767.7 492.6L762 491.6L765.7 499.5L750.9 510.8L748.8 518.2L752.3 521.6L750.5 525.6L742.6 526L735.8 522.1L735.4 519.3L731.9 521.7L731.1 527.6L727.1 523.6L723.7 530.7L711.7 531.4L713.5 540.9L707.2 540.1L700.8 535.8L699 542.4L695.7 537.7L689.4 542.1L684.9 535.4L682.1 540.3L669.6 545.1L673.9 536.4L666.6 539.4L663.1 549.3L647.5 546.3L644.7 555.4L632.5 549.2L629.1 553.6L631.9 568.5L634 571.7L638.8 572.2L630.7 591.2L631.1 596.8L624.2 603.3L627.8 616.9L620.1 621.4L618.5 628.9L613.1 628.7L609.8 633L605.5 629.3L596.9 639.2L596.3 643.1L584 637.1L578.2 639L571.3 630.7L561.4 633.9L563.8 623.1L555.3 627.5L548.4 625.1L547 635.9L553 635.3L551.9 643.4L550.1 644.9L544.1 640.9L539.7 643.2L540.3 657.9L545.5 661.4L542.7 664.9L545.5 673L544.6 678.3L541.1 683.7L535.7 677.5L533.7 687.5L530.8 687.9L528.6 684.3L527.4 689.1L529.8 692L526 696.5L527.8 701L532.9 701.3L535 709.5L539.8 715.5L539 728.2L531.8 734.2L531.2 737.9L540.3 741.2L547.9 753.9L555.2 751L560.5 753.8L563.1 751.9L563.4 758.7L553.5 762.8L553.1 766.8" style="stroke-width:2.2"/>
    <path class="ww" d="M-204.8 93.2L-201.4 97.4L-179.7 98.4L-179.9 102.4L-184 106.7L-175.7 108.3L-176.3 112.9L-188.3 120.4L-193 119.2L-191.5 126.8L-186 132.8L-189 139.4L-184.4 142.6L-178.5 135.6L-180.1 146.3L-170.5 146.9L-164.6 155.7L-169.8 161.8L-168.9 166.3L-153 172.6L-150 186.9L-131.3 196.8L-134.6 202L-142.2 203L-154.5 218.8L-142.6 221.4L-137.8 236.4L-130 237.7L-126 249L-110.9 256.2L-110.8 270.2L-103.1 273.5L-100.4 267.1L-94.1 274.2L-86.7 274.2L-89.4 277L-96.9 278L-97.2 283.1L-86.2 283.7L-82.3 287.6L-81.8 299.3L-71.7 296.6L-63.2 300.3L-64 304.1L-61.5 306.7L-58.6 306.5L-51.6 289.2L-33.7 293.6L-41.2 302.2L-34.4 310.8L-32.3 318.1L-33.5 322.2L-39.8 321.6L-38.2 343.9L-26.9 346L-15.8 354.1L-3.1 346.1L8.2 345.1L9 354.5L16.6 358L16.8 366L25.6 364.2L23.5 374.6L15.2 379.9L19.2 391.4L23.2 392.5L31.2 388.8L47.1 390.1L49.2 392.4L46.8 397.7L49.6 399.6L53.3 397.5L57.4 385.3L61.3 385.8L65.8 381.4L68.2 386.8L71.1 386.7L75.6 384L83.9 371.7L86.1 372.1L96 382.3L84.7 382L85.2 386.1L102.7 396.5L96 403.1L86.2 402.7L91.5 414.2L90.1 419.7L102.9 419.1L106.3 411.9L124.6 430.9L132.6 427.5L132.9 434L126.6 435.9L130.8 445.6L126 453.6L135.7 469.7L129 483.3L145.5 484.2L151.2 493L161.8 498.5L162.3 506.2L158.4 512.6L168.9 521.2L170.6 526.6L170.2 534.8L164.2 538.6L174.9 542.2L173.7 556.2L180.3 565.4L181 572.8L184.3 575.1L191.5 574.3L184.5 583.9L183.4 590.5L185.2 593.4L193.7 593.4L194.2 600L189.3 609.4L195.4 618.8L197.6 627.7L214.1 640.9L240.1 647L252.4 653L247.9 662.2L258.4 662.6L262.4 669.9L255.7 673.9" style="stroke-width:2.2"/>
    <path class="ww" d="M306.3 -154.2L301 -150L300.7 -143L289 -144.1L291.6 -137.4L286 -133.7L284.6 -129.1L297 -124.1L285.6 -113.8L287.4 -100.5L281.5 -99.6L277.6 -95.8L286 -91.3L295.7 -94.2L304.1 -92.1L309.1 -94.3L321.1 -92.7L327.9 -70.2L333.6 -61.2L317.7 -36.5L299 -35L305.5 -25.4L306 -19.1L311.6 -15.4L313.3 -10.3L293.7 -3.5L297.8 4.3L287.3 6.2L295 12.2L287.4 21.5L282.2 22.3L302.8 42L302.4 50.7L288.9 64.3L285.8 63.9L282.3 58.8L279.5 59.6L277.7 75.1L283.2 75.3L293.3 94.5L298.6 96.5L289.5 102.5L293.7 112.2L300.4 114L287.6 131.4L285.2 141.3L279.1 139.6L276.4 141.1L274.8 155.9L272.4 155.9L270.6 151.4L268.6 152.3L266.6 160.3L273.6 180.9L270.8 182.1L268.3 178.6L266.5 181.5L273.7 186.1L272.3 194.1L267.8 196.6L262.8 191.8L264.7 186.7L260.6 187.8L253.6 203.7L256 214.4L245.7 216.4L240 213.5L238.9 222.3L233.3 226.6L240.1 230.2L223.3 238.9L224.2 243.8L242.4 254.3L241.5 257.9L236.1 257.2L226.2 265.4L217.4 263.3L214.8 271.2L207.1 272.5L216 277.8L213.6 284.9L202.2 285.9L202.1 280.1L195 274.8L186.2 285.6L194.8 293L191.9 297.3L199.4 298.7L197.4 303.5L210.2 314.8L205 323.5L210.1 333L208.8 340.1L212 342.9L218.8 339.1L228 347.5L231.6 371.8L225 384.9L210 399.9L208.8 406.2L202.1 407.7L198.6 421.4L204.5 429.8L193.2 435.3L188.4 445.8L190.6 450L197.3 441.6L196.6 452.4L200.6 451.4L202.3 456.6L201.2 468.5L190.4 476.8L190 488.1L181.1 497.4L161.6 499.5" style="stroke-width:2.2"/>
    <path class="ww" d="M1275.3 712.1L1260 716.4L1250.2 724.4L1242.8 742.2L1234.8 745.9L1227.2 743.2L1222.5 745.5L1212.1 745.1L1204.6 740.9L1196.9 740.5L1194.9 736.8L1186.3 738.5L1185.6 736L1180.6 736L1179.4 733.3L1174.1 734.3L1171.4 730.2L1165.5 730L1164.2 724.9L1160.8 723.5L1161.4 718.1L1157.8 714.9L1149.6 715.1L1146 711.6L1138.3 694.8L1142.7 683L1137.4 681L1132.5 683.1L1124 674.3L1117.8 680.3L1113.1 675.5L1111.5 679.7L1114 683.1L1112.1 684.8L1108.5 684.3L1106.9 680.5L1102.2 685L1098.7 681.7L1093.9 683.2L1093.6 678.6L1089.7 676.6L1094 672.5L1082 665.5L1080.9 651.8L1065.9 643.3L1056.6 650.1L1054.6 645.9L1051.6 646.1L1052.6 654.6L1049.4 655L1046.7 642.6L1034.6 641.3L1033.1 638.2L1029.2 640.2L1027.6 628.5L1017.7 624L1019.1 615.8L1013.2 609.9L1013.5 605.1L1005.6 611.6L1000.3 607.9L995.7 609.7L995.8 602.5L1000.8 602.7L990.9 596.6L990 586.9L975.1 585.6L967.5 587.7L965.7 576.1L961.7 574.3L963.7 571L958.6 572.1L956.2 567.1L948.5 567.9L945.4 564.8L944.9 558.1L948.8 553.7L951.3 542.4L949.8 538.6L945.9 536.2L939.8 539L938.5 534.8L928.3 529.2L922.7 531.6L922.2 524.9L914.6 528.3L914.3 525.2L917.9 521.9L912.6 519.7L908 521.1L901 517.3L897 510.8L891.7 512.7L887.6 520.9L879 518.1L877 519.8L874.4 523.7L876.6 530.7L866.3 526.6L867.7 520.9L864.5 517L852.2 516.4L847.1 513.2L842.3 520.1L840.7 514.7L835.9 514.4L833.4 509.3L829.9 508.2L824.3 511.4L819.4 508.4L811.5 517.3L806.9 512.5L804.6 503.8L798.4 507.3L791.5 521.2L783.7 522.6L777.9 515.9L780.8 510.1L776.4 507.3L770.9 512.2L771.8 516.9L768.2 522.6L759.6 523.9L760.2 530.5L757.7 530.2L755.3 520.3L752.3 521.6" style="stroke-width:2.2"/>
    <path class="ww" d="M-36.4 -232.9L-52.2 -222.8L-54.1 -210.9L-73.1 -212.2L-82 -205.2L-74.9 -198L-83.7 -197.4L-107.7 -177.8L-105.1 -167.2L-98 -169.6L-94.6 -160.5L-97.8 -152.5L-107.5 -144.9L-109.1 -134.6L-112.3 -142.2L-119.9 -142.7L-122.4 -139.5L-120.5 -132.8L-122.6 -128.3L-127.8 -126.5L-147.3 -130.8L-150.3 -119.7L-161.7 -117.8L-162.6 -112.7L-167.6 -109.6L-166.1 -107.7L-158.3 -108.3L-152.8 -102.7L-155 -100.3L-166.9 -98.9L-170.9 -94.9L-158.9 -79.8L-169.2 -69.5L-166 -64.5L-159.5 -61.4L-164 -57.4L-161.7 -55.4L-166.1 -46.2L-158.3 -44.5L-164.7 -40.6L-165.3 -31.6L-176.2 -31.4L-183.7 -6.5L-190.1 -9.2L-194 -15.6L-200.2 -9.2L-195.7 1.2L-190.3 -0.4L-188.7 1.4L-188.6 14.2L-179.7 15.8L-175.7 20.8L-181.1 22.9L-188.7 18.2L-196.4 17L-197.3 22.6L-203.5 30L-202 41.3L-204 43.7L-210.2 44.1L-207.1 52.1L-208.3 61.7L-203 59.6L-199.4 50.2L-197 49.9L-190.7 52.9L-184.7 68.2L-178.4 71.8L-181.4 76L-187.1 76.3L-191.2 80.7L-191.6 86.8L-197.8 87L-199.7 94L-202.4 89.1L-204.8 93.2" style="stroke-width:2.2"/>
    <path class="ww" d="M1074.9 978.2L1092.8 967.2L1093.1 938.9L1102.3 927.4L1103.1 910.2L1087.1 899.5L1082.6 899L1080.4 880.4L1067.8 863.9L1062.8 849.7L1052.3 846.8L1026.7 846.3L1024.9 842.2L1006.6 832.1L962.5 820.3L942 820.2L917.4 825.6L899.6 822.6L896.9 824.1L882.8 818.1L880.5 819.9L867.2 816.6L849.6 817.8L828.1 828.4L807.3 829.3L798.2 827L791.4 828.7L777.3 824.5L758.1 835.4L752.5 846.3L724.2 860.6L723.8 865.3L712.7 883.5L715 887.2L711.9 895L706 899.5L703.3 898.8L683.1 918.7L671.1 923L667.6 919.7L665.1 922.2L649.3 922.6L638.7 920.2L636 917.2L623.2 925.7" style="stroke-width:2.2"/>
    <path class="ww" d="M1315.5 246.6L1307.4 248L1306.3 257.2L1297 262.2L1278.6 263.1L1272.5 266.7L1271.2 270.6L1267.2 270.7L1267.1 273.7L1261.9 274.1L1257.4 283.6L1245.5 289.4L1239.2 295.6L1192.2 306.6L1188.2 313.3L1174.1 315.5L1172.8 320.7L1157.9 334.6L1147 332.2L1140.5 333.8L1135.9 341.2L1135.2 348.8L1115.8 347.4L1089.8 370.3L1085.9 377L1079.6 378.7L1076.3 389.2L1061.1 400.1L1057.8 399.5L1040.8 415.5L1035.4 416L1023.5 411.9L1015.4 421.2L998.1 420.9L993.7 434.5L981.2 437.7L969.8 452.3L961.8 452.6L962.2 464.3L959.8 467.4L931.4 487L923.2 487.8L923.7 491L921.2 493L923.1 493.7L914.2 502.8L913.1 514L909.8 516.7L912.6 519.7" style="stroke-width:2.2"/>
    <path class="ww" d="M706.1 21.6L699.6 44.5L697.4 69.6L686.1 95.4L666.4 108.3L654.3 125.2L646.8 131.6L639.6 131.3L604.2 162.7L583.9 175.4L553.4 177.1L528.1 164.9L502.3 164.3L489.9 160.1L484.1 149.2L473.3 142.6L455.1 136.1L451.6 137.1L448.5 143.9L444.6 143.1L443.5 148.2L439.4 147.6L435 151.5L430.2 148.9L426.9 150.8L422.1 148.6L415.8 150.1L407.4 146.7L401.6 139L402.6 133.7L399.3 131.5L380.1 133.6L343.7 127.9L334.6 131.5L327 139.8L276.7 147.5" style="stroke-width:2.2"/>
    <path class="ww" d="M633.8 548.8L634.5 537.2L630.8 534.6L633.9 530.5L629.2 523.1L631.1 516.1L626.6 502.7L628.7 500.3L626.7 499.6L627.1 488.5L619.7 480.9L619 474.5L615.5 471.3L616.6 467.9L612.3 467.2L615 464.9L611.3 460.7L613.7 459.6L611.8 452.3L614.3 447.3L610.3 438.7L611.8 436.9L609.3 424.4L611.1 422.6L608.9 420.1L612.1 417.9L604.8 402.8L606.2 394.8L602.5 386.9L603.4 372.4L627.2 350.6L636.4 338.8L646 335.7L662.7 334.8L675.3 328.8L682.6 319.2L692.2 312L703.7 293.9L711.1 288.3L719.5 275.8L753.7 260.9L774.5 259.7L789.8 255.1L796.9 249.3L802.6 240.3L808.7 239.9L812.9 231.9L807.7 227.6L812.6 209.2L811.5 189.2" style="stroke-width:2.2"/>
    <path class="ww" d="M-278.5 442L-270.8 445.2L-266.1 451.6L-257.7 453.2L-247.5 446.9L-229.6 449.2L-227.7 447.8L-228.6 437.8L-221.7 432.9L-217.7 432L-203.5 441.3L-198.9 441.8L-183.5 433.2L-177.6 435.2L-164.8 418.7L-159.2 419L-150.4 413.7L-144.3 413.3L-140.2 427.1L-124.6 438.4L-120.1 449.1L-120.8 453.8L-116.2 452.4L-105.8 458L-101.9 456.1L-96.7 460.7L-86.6 461.8L-75.4 454.1L-65 458.4L-57.8 451.5L-53.6 451.7L-48.6 447.7L-6.7 437.5L-1.2 440.3L9.7 454.3L22.2 461.4L51.4 462.6L63.3 461.4L78.6 453L81.8 447.6L80.6 443.6L84 443.6L85.5 440.5L83.8 436.5L88 436.7L90.6 420.2" style="stroke-width:2.2"/>
    <path class="ww" d="M604.6 243.7L594.5 242.8L582.9 237.5L549 239.4L536.9 236.2L526.5 236.4L500 249.9L497.8 253.2L474.7 253.2L458.5 265.1L447.5 280L432.9 290.1L394.6 290.5L381.6 284.2L377.1 286.4L357.8 286.5L352.9 290.6L336.4 293.5L322.4 301.8L297.9 323.3L290.5 337.9L283.2 374.1L277 377L253.5 404.1L236.8 405.2L224.7 402.2L208.8 406.2" style="stroke-width:2.2"/>
  </g>
  <g class="layer" data-kind="park">
    <path class="pk" d="M-346.1 1008.3L-300.6 1009.3L-300.2 1018L-295.3 1026.8L-274.6 1047.6L-272.9 1062.8L-270.3 1067.5L-264.8 1070L-242.1 1070.1L-242.2 1108.5L-211.4 1108.6L-211.4 1131.7L-185.4 1131.7L-184.9 1105.2L-149.1 1105.1L-149.4 1223.6L-87.7 1223.7L-87.7 1254.5L-271.8 1253.3L-273 1131.5L-303.6 1131.4L-303.6 1123.6L-320.1 1121.3L-320.1 1119.7L-327.9 1121L-334.2 1119.6L-334.2 1117.9L-341.7 1117.3L-358.8 1120.2L-367 1117.5L-360.9 1122.4L-375.6 1125.7L-378.3 1130.5L-375.9 1125.3L-361.7 1122.4L-367.5 1118.5L-367.5 1100.2L-334.3 1100.5L-334.5 1039L-396 1038.6L-396.1 992.6L-375.8 992.7L-375.8 970.1L-365.4 970.2L-365.4 1008L-369.3 1008L-365.7 1012.7L-351.6 1012.9L-351.5 1008.2L-357.6 1008.2L-357.7 992.9L-346.1 992.9L-346.1 1008.3Z" data-fill="1"/>
    <path class="pk" d="M571.3 766.3L577 771.4L580.1 780.2L579.6 784.8L571.2 802.5L574.6 816.8L577.7 822L583.5 825.7L588.9 824.5L598.7 816.7L600.4 817.5L595.6 841.7L582.2 847.4L579.7 838.1L573.8 837.2L570.9 841.6L576.9 877.6L579.6 880.7L586.6 880.4L589.4 876L591.2 860.8L596.9 853.4L600.6 851.7L603.2 854L608.6 868.7L615.5 879.8L614.5 884.9L606.5 888.4L592.2 887.1L590.5 894.3L582.3 900.3L574.9 899.3L564.9 887.1L562.7 887.6L563.4 904.4L551.2 904.3L551.2 896.6L541.9 895L541.8 904.3L500.7 904.3L518.5 859.7L532.8 838.3L532.1 800.2L522.4 774.8L546.2 768.6L571.3 766.3Z" data-fill="1"/>
    <path class="pk" d="M685.3 761.1L687.3 762.4L688.1 793.1L747.2 803L747.6 818.2L743.2 818.2L743.2 824L747.7 824L747 871L686.4 871.1L686.1 857.3L677.7 857L677.5 831.1L647.9 821.1L646.6 767.8L650.6 767.6L650.6 761.8L647.1 762.1L646.8 743.5L657.5 743.6L657.7 754.5L675.8 754.8L685.3 761.1Z" data-fill="1"/>
    <path class="pk" d="M1179.4 -62.7L1209.4 -62.7L1210.3 -155.6L1179.6 -155.7L1180.4 -212.2L1160 -205.9L1150 -200.9L1150.1 -187.5L1159.6 -176.7L1159.4 -155.8L1149.1 -155.8L1148.9 -125L1178.8 -124.8L1179.9 -84.2L1189.3 -84.2L1189.3 -79.6L1179.8 -79.5L1179.4 -62.7Z" data-fill="1"/>
    <path class="pk" d="M-4.3 630.3L3.5 639.8L16.8 634L12.3 660.9L2.7 673.3L4.4 683.7L-3.3 695.4L-3 697.6L-34.1 708.9L-39 715.3L-46.5 662L-59.1 662.2L-69.4 658.6L-61.3 657.7L-61.4 646.6L-50.3 646L-50.2 643.7L-43.3 639.4L-43.2 633.9L-54.8 634.3L-56 630.6L-26.2 631L-22.8 627.4L-18.1 631.1L-16.6 622.6L-13.7 620.4L-7.1 624.2L-4.3 630.3Z" data-fill="1"/>
    <path class="pk" d="M972.6 208.6L968.7 213.9L964.2 216.2L975.1 232.2L997.6 240.6L998.7 249L975.7 244L971.6 245.9L980.9 275L977.3 276.2L976.6 280.9L974.3 282.2L967.5 266.3L953.8 259.6L938.7 270.5L927 265.3L939.8 258.1L946.1 247L958 237.2L960.1 232.5L959.2 228.7L946.8 213.3L915.3 212.7L910.1 242.7L916.9 246.7L925.6 255.7L924.1 257.9L922.2 257.5L921.8 260.1L905.7 254.1L898.8 245.8L899.2 241.6L901.9 240.2L902.3 219.9L905.5 198.9L887.3 176.7L887.5 173.1L902.5 174.1L904.7 176.7L901.6 179.7L915 193.3L954.6 193.9L953.8 199.6L961.3 200.4L966.2 204.1L971.5 204.6L972.6 208.6Z" data-fill="1"/>
    <path class="pk" d="M-26.4 885.9L-76.6 885.7L-76.3 832.1L-78.9 831.9L-78.9 824.6L-26.3 824.2L-26.4 885.9Z" data-fill="1"/>
    <path class="pk" d="M1217.7 672.4L1252.4 697.9L1253.6 685.9L1258.8 680.4L1268.3 656.4L1259 651.3L1216.8 635.6L1211.2 645.3L1210.2 651.5L1214.8 658.7L1215.6 670.1L1217.9 670L1217.7 672.4Z" data-fill="1"/>
    <path class="pk" d="M-69.3 731L-58.2 731L-58.2 723.1L-45.1 723.3L-34.1 708.9L-3 697.6L4.6 702.8L9.1 702.9L14.1 695.6L8.7 683.6L9.4 680.2L16.3 682.3L25.7 696.9L26.1 703.5L19.4 720.3L17.8 721L13.1 714.8L10.2 715.2L5.3 725.1L3.1 725.1L3.1 731.7L-69.3 731Z" data-fill="1"/>
    <path class="pk" d="M862.6 1039.9L863.3 984L873.1 974.4L875.8 981.2L876.2 997.5L881.6 1010.3L898.9 1011L900.7 1040.5L862.6 1039.9Z" data-fill="1"/>
    <path class="pk" d="M1216.8 163.2L1203.6 162.2L1201.4 158.5L1209.8 148.4L1218.4 149.8L1217.1 143.8L1210.1 145.9L1206.5 145L1205.9 147.6L1199.6 150.7L1197.1 154.8L1187.8 157.8L1180.5 155.6L1170.9 157.6L1164.8 156.6L1164.7 154.2L1161.9 155L1161.9 157L1132.5 156.5L1129.5 148.7L1131.3 146.7L1123.2 149.6L1126 149.9L1126.5 151.8L1125.7 162.4L1123.5 165.3L1120.8 164.6L1121.5 166.3L1114.5 173L1079.1 185.5L1074.5 182.5L1072 185.9L1047 194.4L1045.9 197.4L1055.7 202.5L1091.8 187.8L1103.8 194.8L1104.6 193.3L1098 190L1097.5 185.9L1108 183L1132.4 169L1134.1 165.9L1143.9 162.9L1158.4 160.3L1161 162L1169.2 161.5L1170.9 164.6L1178 165.3L1221.5 166L1220.6 162.7L1216.8 163.2Z" data-fill="1"/>
    <path class="pk" d="M1067.7 89.5L1068.5 95.9L1055.8 97L1061.5 93.2L1060.8 92L1055.3 90.6L1051.5 91.7L1048.6 97.5L1037.3 109.6L1038.2 112.2L1034.8 117.5L1024.9 116.4L1025 96.2L1034.7 96L1039.7 92.9L1047.9 91.5L1050.1 86.3L1046.4 86.3L1042.5 80.4L1043.8 78.7L1047.8 76.2L1048.6 83.7L1052.4 83.5L1053 85.1L1055.2 83.5L1057.6 80.1L1059 62.2L1062.1 59L1076.1 58.2L1074.2 54L1070.5 53L1073.3 46.8L1083.9 46.8L1086.6 44.6L1088.6 46.5L1084.5 53.1L1084.4 74L1078.2 73.7L1067.1 84.1L1067.7 89.5Z" data-fill="1"/>
    <path class="pk" d="M177.1 500.8L177.4 479.5L163.6 479.3L166.8 475.7L167.7 471L177.5 471.1L178 439.7L194.1 439.9L194 452.3L202.2 452.4L200.8 471.9L209.3 472.1L209.9 487.7L202.9 487.6L203 480.4L195.8 480.3L193 487.4L184.8 488.6L186 493.1L177.1 500.8Z" data-fill="1"/>
    <path class="pk" d="M-272.5 593.5L-272.2 596.5L-266.6 600.9L-262.9 599.4L-263.2 602.9L-266.8 601.6L-265.7 605.4L-251.5 619.3L-245.5 622.9L-245.6 630.4L-239.5 639.4L-241.9 644.7L-248.1 646.5L-241 649.1L-239.7 651.7L-241 658.1L-248.3 656.5L-251.2 654L-253.5 657.1L-258.2 657.4L-274.9 654.2L-271.1 653.5L-272.4 651.5L-270.3 650.5L-270.8 648.5L-265.8 649.6L-257.9 646.1L-269 645.8L-277 632.6L-275.8 629.9L-272.5 629.9L-274.5 625.8L-267.5 624.9L-267.3 623.4L-266.6 607.4L-274.6 600.2L-274.5 596.4L-276.2 595L-272.5 593.5Z" data-fill="1"/>
  </g>
  <g class="layer" data-kind="campus">
    <path class="cp" d="M456.2 271.9L453.8 255.2L449 245.7L458.4 240.8L467 239.9L477.1 242.7L492.1 251.3L512.7 253L511.8 265.5L514 265.5L514 261.6L529 262.1L529 258.2L539.4 260.9L539.2 271.6L533.4 271.5L533.4 279L537.1 279.1L539.1 284L544 281.4L565 282.1L564.7 304.4L576.5 305.5L595 283L614.6 283L614.5 300L606 309L598.4 345.7L583.4 364.6L580.6 372.6L582.7 383.5L598.9 409L583.4 412.3L529 412.3L521.8 414.7L508.5 424.6L489.8 424.6L488.7 410.6L495.3 410.5L508 395.2L510 348.3L511.6 346.6L501.6 344.3L499.6 345.8L488.1 345.1L488.1 318.3L492.3 318.4L492.3 315.3L486 306.7L483.3 308.7L478 301.6L481.3 299.1L477.5 293.8L473.9 296.1L456.2 271.9Z" data-fill="1"/>
    <path class="cp" d="M673.1 256.7L674.5 255.2L696.5 254.8L757.1 255.4L768.6 258.8L766.5 269.9L770.4 283.8L770.5 310.6L772.7 317.5L781.9 326.8L784.7 334.4L784.2 342.4L777.9 355.3L768.8 354.9L753.1 359.9L748.3 358.8L742.6 362L674.4 361.9L673.9 284L668.2 276.5L672 266.9L673.1 256.7Z" data-fill="1"/>
    <path class="cp" d="M1025.6 142.1L1025.1 96.5L1055.9 96.5L1055.8 58.9L1085.7 58.4L1085.8 89.4L1114.2 89.3L1115.1 119L1113.7 119L1113.6 131.5L1106 131.3L1105.7 121.5L1100.6 121.5L1100.2 115.4L1089.9 115.6L1086.2 120.2L1088.1 125.5L1082.6 129.1L1085 133.4L1084.3 150.1L1063.6 149.2L1037.5 151L1037.5 142.1L1025.6 142.1Z" data-fill="1"/>
    <path class="cp" d="M994.4 480.3L994.3 533.2L916.4 496.9L922.3 481.7L932.6 481.1L951.7 474L956.5 466.4L956.5 457.4L994.4 457.6L994.4 480.3Z" data-fill="1"/>
  </g>
  <g class="layer" data-kind="highway">
    <path class="hw" d="M381.5 -11.1L1230.7 442.2L1229.1 439.1L1206.2 426.8L322.4 -45L323.7 -42.1L381.5 -11.1M93.1 -164.7L271.8 -69.5L322.4 -45L96.7 -165M1310.8 482.9L1243.5 446.8L1230.7 442.2L1307.7 483.8"/>
    <path class="hw" d="M-42.3 84.1L35.9 60.1L74.1 54.4L103.2 62.3L202.8 68.3"/>
    <path class="hw" d="M-193.5 515.9L14.7 517L-8.8 516.9"/>
    <path class="hw" d="M-274.1 460.7L-267.5 453.4L-242.3 383.9L-219.1 357.5L-211.7 343L-209.7 328.6L-210.1 260L-212.1 250.6"/>
    <path class="hw" d="M-153.2 247.9L-153.8 233.3L-150.1 223.8L-130.3 203.8L-76.2 122.5L-54.1 94.4L-42.3 84.1"/>
    <path class="hw" d="M239.2 -58.8L244.5 -75.5L217.9 31.2L202.8 68.3"/>
    <path class="hw" d="M-31.2 516.3L-74.7 509.4L-194.4 508.9"/>
    <path class="hw" d="M829.9 319.6L830.9 260L828.9 350.6M823.4 212.9L830.9 260L827.6 238.2"/>
    <path class="hw" d="M291 515.9L168.5 517"/>
    <path class="hw" d="M52.7 517.1L168.5 517"/>
    <path class="hw" d="M608.8 406.7L586.9 413L527.1 413.4L505.2 426.2L508.5 425.5M828.9 350.6L818.3 351.9L802.2 361.2L787.2 384.4L767.3 395.4L780.1 390.1M668.8 400.9L654.9 401L724.1 397.6L715 398.8M427.8 434L430.4 430.8L421.9 441.6L409.1 467.2L388.3 493.4L386.7 499M505.2 426.2L437.4 426.1L430.4 430.8"/>
    <path class="hw" d="M184.5 517.5L220.2 526L290.8 526.6"/>
    <path class="hw" d="M290.8 526.6L386.8 527.8"/>
    <path class="hw" d="M386.1 517.2L291 515.9"/>
    <path class="hw" d="M-275.4 515L-193.5 515.9"/>
  </g>
  <g class="layer" data-kind="road">
    <path class="rd" d="M312.5 1157.9L287.2 1119.8L283.4 1110.5L282.8 1062.6L274 1001.3L273.9 867.3L283.7 826.4L283.7 749.2L276.8 713L284.2 674.2L284.6 578.1"/>
    <path class="r2" d="M1433.1 -18.5L1419.4 -3.2L1413.5 -2.4L1404.4 -11.7L1395.2 -16.9L1394.4 -25.6L1388 -26.1L1382.5 -30.1L1366.8 -27L1353.7 -34.6L1333.3 -34.1L1314.9 -37.7L1308.7 -42.1L1299.4 -39.8L1286.8 -44.4L1266.7 -42.6L1253.1 -14.9L1230.4 -1.4L1206.1 1.6L1203.4 -1L1203 -7.6L1199.9 -9.2L1184.4 -2L1151.6 -2.8L1079.5 9.9L1045.8 -2.2L1021.8 -3.3L1005.8 -1.3L979 9.5"/>
    <path class="r2" d="M702.5 31.2L630.5 10.4L598.5 5L581.2 -14.2L546 -65.7L499.1 -114L440 -106.4L397.4 -131.2L318.9 -132.1L298.1 -139.4L272.4 -138.1M1197.5 309.8L1147.7 253.7L1128 235.9L1090.1 221L1042.7 197.4L930.3 173.9L859.9 116.2L865.6 122.7M859.9 116.2L852.7 94.4L809.8 67.4L788.3 61.9L749.4 44.7L706.4 41.4L695.2 29.2"/>
    <path class="rd" d="M1273.1 775.7L1281.6 776.5L1238.5 770.5L1197.5 757.7L1155.4 758.3L1044.2 742.6L1027.2 736.9L1012.5 737.5L828.9 709.6"/>
    <path class="rd" d="M865.6 122.7L876.1 102.5L903.9 64.9L981.1 3.6L993 -8.5L1019.8 -56.3L1026.4 -71.2L1029.4 -86.1L1027.6 -141.2L1032.8 -148.5L1058.3 -165.6L1069.1 -200.4L1066.9 -207.1L1052 -216.7L1048.8 -232.2"/>
    <path class="rd" d="M878.5 967.3L882.9 963.9L841.6 1003.9L828.4 1022.9L813.9 1067L766.7 1101L740.4 1103.3L693.6 1127.2L642.3 1140.1L556.5 1123.2L544.5 1123.9L556.5 1123.2M532.4 1118.8L543.7 1121.1L519.7 1115.4L457.6 1092.9L445.4 1092.3L395.2 1116.3L344.1 1151.9L326.3 1167.9M1263.2 809.3L1272.7 807.3L1154.2 827.9L1095.4 852.3L1104.8 848.2M1036.7 889.8L1039.2 888.2L988 925L884.9 962.7L887.7 961.4M1039.2 888.2L1095.4 852.3"/>
    <path class="rd" d="M257.1 263.5L423.4 261.6L436.2 257L451.7 241.7L464.5 238.2L475.1 240.2L488.3 248.5L498.2 251.1L671 254.3"/>
    <path class="r2" d="M-49.8 447.8L7.2 257.8L8.3 177.9L20 126.7L14.7 66.4"/>
    <path class="r2" d="M597.7 791.4L608.4 813.8L627.2 842.1L643.6 930.9L630.2 964.7L613.2 992.4L605.6 1011.1L598.7 1065.3L550.9 1105.1L543.7 1121.1L545.4 1121.8L547.1 1113.4"/>
    <path class="r2" d="M1282.8 320.8L1282.5 309.5L1276.6 297L1269.3 292.6L1255.2 291L1249.6 284.7L1248.5 236L1254.6 213.8L1235.6 183.1L1223.2 177.4L1223.3 166.9L1210.8 100.2L1203.7 87.8L1201.6 78.3L1202.3 66.1L1209.8 45.9L1209.8 35L1207.5 31.8L1195.3 26.8L1186.1 -2.4"/>
    <path class="rd" d="M292.4 392.9L286 384.3L270.1 379.3L256 362.9L257.1 224.7L252.4 211.8L236.3 192L231.6 161.7L224.6 156.7L207.9 154.6L201.1 146.8L202.8 68.3"/>
    <path class="r2" d="M283.7 822.8L216.8 823.8L211.1 814.6L164.4 814.6L98.5 816.6L90.7 824.2L-73.9 824"/>
    <path class="r2" d="M708.1 517.9L715.3 517.9L531.5 517.5L502.7 510.5L386.7 499M810.1 550.7L823.8 557.1L810.2 551.9L775.7 524.3L753.8 514.4L744.4 513.4L715.3 517.9"/>
    <path class="r2" d="M1053.4 377.7L1056.4 383.3L1046.9 369.9L1035.8 363.2L1009.2 363.1L998.2 359.7L979.4 336.4L917.2 303.1L905 299.4L971.6 332.2L983.1 340.6L990.5 354L997.9 360.6L1005.7 363L1026.2 362.4M770.6 258.6L760.1 255.1L744.6 254.4L760.1 254.3L770 257.6L791.9 283.6L799.8 289L814.1 293.1L851.5 293.1L867.4 298.3L849.9 293.8L800.8 290.7L791.3 284.8L781.1 269.9M744.6 254.4L672.6 254.3M905 299.4L867.4 298.3L882.5 298.2M679.9 254.3L719.9 253.9"/>
    <path class="rd" d="M673 198.1L672.9 129.8L672.2 261.9L667 276.6L653.8 288.6L667 276.6L670 266.9L672.6 254.3L673 198.1M607.2 325.9L603.2 340L595.3 350.9L603.1 337.8L612.8 308L622.5 299.1L637.5 294.1L624 297.3L614.9 304L607.8 315.9L607.2 325.9M591.7 355.5L595.4 352.3L583.2 366.1L581.3 377.6L601.3 409.2L582.3 377.7L583.8 367.1L592.5 356.1"/>
    <path class="r2" d="M1024.3 -3.1L1024.7 323.3"/>
    <path class="r2" d="M873.9 971.7L877 977.8L877.5 995.6L881.9 1008.5L897.6 1009.8L900.4 1012.9L901.2 1131L918.2 1132.7L920.3 1135.2L920.5 1190.4L914 1196.7L913.1 1256.9"/>
    <path class="r2" d="M730.1 -152L732.1 -136.2L722.8 -115.3L714.8 -105.5L715 -33.7L717.2 -16.8L674.3 127.7L678.3 110.3"/>
    <path class="r2" d="M870.5 966.1L873.3 970.7L859.3 917.9L877.1 781.7L879.9 719.6L878.8 729.8"/>
    <path class="r2" d="M-73.9 824L-69.9 678.4L-73 671.7L-77 669.1L-129.4 666.2L-130 636.8L-134.1 609.1"/>
    <path class="r2" d="M591.8 760.9L589.3 735.5L581.1 722.6L560.5 712.2L518.6 702.4L484.5 670.9L449.3 646.7L422.7 615L416.3 602"/>
    <path class="rd" d="M385.9 572L388.6 582L396.5 590.4L518.2 661.3L537.2 667.6L602.5 677.1L598.8 676.6M707.3 692.5L726.2 694.6L602.5 677.1M756.6 699.7L828.9 709.6L801.2 706.1M742.6 698L756.6 699.7L726.2 694.6L742.6 698"/>
    <path class="r2" d="M488.3 426.3L490 433.3L500 441.3L490.2 435L488 430.5L486.8 317.9L456 273.9L452 254.2L446.2 246"/>
    <path class="r2" d="M637.6 946.8L776.1 947.8L790.2 940.2L864.3 940.5"/>
    <path class="rd" d="M1273.1 935.7L1273 929.8L1274 1128.4L1273.8 1114.9M1280.2 628.7L1261.8 674.3L1258.6 688.4L1261.2 703.3L1272.7 736.9L1272.7 806.3L1273.1 795.6M1273.2 818.7L1273.6 808.2L1273.3 912.2L1273.4 905.6M1274 1128.4L1274.2 1167.3"/>
    <path class="r2" d="M150.9 -151.6L100 61.8"/>
    <path class="rd" d="M-126.1 458.2L-128.3 418.1L-127.3 301.6L-138.2 274.3L-142.3 255.5L-152.8 248.3"/>
    <path class="r2" d="M202.8 68.3L301.2 73.5L321.2 67.1L341.6 64.1L397 64.6L409.6 67.3L408.7 68.9L401.7 65.6"/>
    <path class="r2" d="M806.1 840.4L804.6 850.2L809.7 797L828.3 768.2L830.9 748.3L826.7 737.8L816 727.3L814.6 717.1L817.1 726.7L827.3 735.8L830.8 742.5L827.6 769.2"/>
    <path class="r2" d="M1037.5 152.2L1024.7 153.7L1045.1 150.9L1117 151L1153.5 137.1L1200.5 127.7L1213.7 121.8"/>
    <path class="r2" d="M673.7 400.9L673.6 284.4L671.1 279.4L665.8 276.2L671.5 281.2L673.6 288.8L673.4 347.6"/>
    <path class="r2" d="M1118.8 932.8L1118.8 942.7L1121.1 842.9L1118.7 758.9M1118 608.5L1117.9 596.4L1118.6 670.9L1114.8 732.5L1118.7 758.9L1118.7 752.8M1113.6 520.6L1114.3 568.4L1117.7 578.2L1117.9 596.4M1119.1 961.4L1118.9 949.2L1119.4 1010.1"/>
    <path class="r2" d="M389.1 261.5L394.1 146L407.2 125.2L409.1 69.7M412.4 68L408.9 53.5L411.7 28.9L424.6 1.9"/>
    <path class="r2" d="M678.3 110.3L682.5 114.3L683.7 125.8L689.7 130.3L800.2 130.8L832.7 133.9L855.6 143.5"/>
    <path class="r2" d="M741.7 428.2L744.4 419.4L757.1 407.1L759.7 381.9L771.2 369.8L785.1 341.1L784.2 329.7L774.6 318.8L771.5 311.4L771.1 284.4L767.1 270.1L770.6 258.6M741.7 498.6L741.1 428.2L741.4 433.7"/>
    <path class="r2" d="M610.1 517.7L610.1 608.5L616.2 615.8L636.4 616.5L641.3 620.5L644.7 683.2"/>
    <path class="rd" d="M542.5 1123L525.9 1187.7L532 1230L537.2 1235.4L564 1240.2L583.3 1254.2L592.8 1267.6"/>
    <path class="rd" d="M823.8 557.1L832 536.3L829.7 469.3L832.5 452.1L832 395.6L832.1 403.6M841.2 172.7L835.6 183.4L865.6 122.7M827.6 238.2L824.6 213.6L826.5 200.3L823.8 206.9L824.7 212.2M832 395.6L828.6 370.5L828.9 350.6"/>
    <path class="r2" d="M413.9 735.5L407.6 779.9L368.5 798.1L353.9 799.9L347.3 803.2L338.5 812.6L317.5 856.1"/>
    <path class="r2" d="M800.2 1077.2L803.9 1154.2L801.5 1171.5L802.9 1243.1"/>
    <path class="r2" d="M1204.6 301.9L1208.5 292.3L1204.6 301.9L1188.7 322.1L1186.5 388.1L1174.2 416.1L1171.3 435.2M1209.7 205.9L1222.1 183.1L1209.5 205.2L1208.5 292.3M1209.1 212L1208.8 251.7"/>
    <path class="rd" d="M817 697.2L816.3 707.1L818.2 572.5L823.8 557.1"/>
    <path class="r2" d="M1342.1 -99.2L1316.9 -115.5L1310.4 -126.3L1273.6 -135L1271.5 -138.8L1271.2 -158.4L1268.6 -162L1237.1 -161.5L1234.4 -165.4L1232.4 -179.9"/>
    <path class="r2" d="M1136.1 588.7L1153.9 605L1180.2 620.7L1277.2 656.7"/>
    <path class="r2" d="M1286.6 583.9L1278.8 578.7L1214.2 554.1L1152.9 525.8L1156.1 527.3"/>
    <path class="r2" d="M1147.7 523.3L1092.8 489.2L1054.2 470.9L1030.9 455L1038.3 460"/>
    <path class="r2" d="M1136.1 588.7L1122.9 580.7L1084.9 579.9L1015.3 549.8L1024.7 554.8M1012.9 549.4L972.6 550.6L951.3 558L923.6 558.3M908.2 558.2L923.6 558.3L888.4 558.1L893.5 558.1M859.2 557.8L862.8 557.8L823.8 557.1"/>
    <path class="rd" d="M1025.5 363L1024.1 325.8L1025.1 409.5L1024.6 404.1M1025.1 409.5L1025.1 468.3L1025.3 459.5M1025.1 468.3L1025.1 506.6L1025 493"/>
    <path class="r2" d="M562.5 -220.1L561.3 -189.2L525 -133.7L523.6 -121.6L501.4 -112.7"/>
    <path class="r2" d="M459.4 636.7L463.4 629.7L413.9 735.5"/>
    <path class="r2" d="M609.7 506.3L610.1 517.7L608.4 475.8L604.4 452.6L604.9 424.4L604.4 442M608.8 496.9L608.9 474.4L604.6 451.9"/>
    <path class="r2" d="M1149.5 408.1L1143 405.8L1154 411.1L1168.1 433.1L1179.8 438L1176.6 437L1188.4 435.2L1209 419.9L1220.4 416M1229.2 416.1L1220.4 416L1249.1 416.3L1277.8 426.2M1080 385.5L1065.9 389L1083.1 385.5L1102.6 391.6L1090.3 386.6M1144.3 405.8L1102.6 391.6M1065.9 389L1047.3 397.4L1024.9 396.2"/>
    <path class="rd" d="M1025.5 620.1L1026.4 728L1026.8 721M1025.1 572.9L1024.7 557.9L1025.5 620.1L1025.5 610.1M1025.7 543.1L1024.8 536.7L1024.7 557.9L1024.8 541.9"/>
    <path class="r2" d="M1026.7 810.5L1017.5 805.5L1097.2 851.3M1017.5 805.5L998.3 795.8L941.3 775"/>
    <path class="r2" d="M1025.2 451.6L958.6 414.6L952.1 404.9L938 406.6"/>
    <path class="rd" d="M292.4 392.9L291.3 494.3"/>
    <path class="r2" d="M1087.5 1108.8L1085.7 1103.3L1089.1 1115.1L1089.5 1196.1M1090.6 1011.7L1088.6 1015.9L1087.6 1100.9L1088.8 1094.2"/>
    <path class="r2" d="M1192.3 474.9L1191.8 464.3L1192.3 517.9L1192.5 482.3"/>
    <path class="r2" d="M531.2 517.5L532 600L526.4 609.8"/>
    <path class="r2" d="M-127 516.4L-127.7 568.7L-134.1 609.1"/>
    <path class="r2" d="M645.2 691L602.1 689.7L566.1 704.6L559.4 712"/>
    <path class="r2" d="M923.6 458.1L831.9 457.5"/>
    <path class="r2" d="M1218.7 211.9L1215.3 211.9L1303.4 209"/>
    <path class="rd" d="M284.6 578.1L290.3 564.1L291.3 494.3"/>
    <path class="r2" d="M252.2 -93L250.5 -88.8L265.2 -128.4L273.6 -140.4L277.8 -163.6"/>
    <path class="r2" d="M1026.8 750.8L1026 836.9M1025.9 839.8L1026 836.9L1024.8 897.2"/>
    <path class="r2" d="M1193.1 580.5L1193.1 563.4L1192.7 587.1L1186 622.9M1192.2 553.7L1192.9 556.8L1192.2 523.3L1192.1 535"/>
    <path class="rd" d="M830 350.5L858.2 349.3L887.7 358.3L872.6 353.5M949.4 385.4L957.6 389.2L929.1 374.5L937.3 378.9M962.8 393.3L957.6 389.2L966.8 395L979.6 395.7L963.3 392.3"/>
    <path class="r2" d="M526.4 609.8L476.3 611.8L469.6 616.2L463.4 629.7"/>
    <path class="r2" d="M502.7 510.5L506 449L503.9 443.1"/>
    <path class="rd" d="M-212.5 248.1L-277.8 263.3"/>
    <path class="r2" d="M1101.7 455.9L1102.6 391.6M1106.4 511.2L1101.3 502.9L1101.7 455.9L1101.6 458"/>
    <path class="r2" d="M923.6 458.1L924.3 427.6L927 414.4L930.4 409.1L938 406.6"/>
    <path class="rd" d="M-127 516.4L-126.1 458.2"/>
    <path class="rd" d="M386.1 515L385.9 572"/>
    <path class="r2" d="M-59.5 502.2L-59.6 481L-49.8 447.8"/>
    <path class="r2" d="M984.7 341L973.2 354.6L971.1 375.4L966.6 386.8L967.9 383.6"/>
    <path class="r2" d="M902.2 504L901.9 558.2"/>
    <path class="r2" d="M781.1 269.9L798.6 260.4L829.7 260.2"/>
    <path class="r2" d="M782.7 388.1L790.7 393.6L831.7 391.3"/>
    <path class="r2" d="M895.5 457.2L896.9 465.2L905 474L907.5 480.5L902.2 500.5"/>
    <path class="r2" d="M942.9 727.1L941.3 775"/>
    <path class="r2" d="M276.6 854.2L317.5 856.1"/>
  </g>
  <g class="layer" data-kind="rail">
    <path class="rl" d="M1223.4 770.1L756.5 701.5" data-dash="7 6"/>
    <path class="rl" d="M-112.8 519.9L-179.5 521.9L-225 533.9L-249.6 545.4L-391.6 628" data-dash="7 6"/>
    <path class="rl" d="M1187.1 650.5L1258.7 703.6L1374 769.2L1380.2 770.7L1403.6 765.4" data-dash="7 6"/>
    <path class="rl" d="M1402.9 765.1L1380.3 770.3L1374.9 769.3L1259.2 703.5L1187.9 650.3" data-dash="7 6"/>
    <path class="rl" d="M1241.1 772.7L1420.3 799.4L1434.2 805.7L1444.3 817.6" data-dash="7 6"/>
    <path class="rl" d="M756.5 701.5L547 670.7" data-dash="7 6"/>
    <path class="rl" d="M1026.6 548.7L834.5 461.1" data-dash="7 6"/>
    <path class="rl" d="M834.3 461.4L1026.4 549" data-dash="7 6"/>
    <path class="rl" d="M282.2 496.2L283.1 399.2L278.6 390.8L217.2 325.8" data-dash="7 6"/>
    <path class="rl" d="M442.4 619L334.4 556.1L289.5 545.8L283.8 540.6L281.7 533.6" data-dash="7 6"/>
    <path class="rl" d="M641.2 -137.1L540.6 -150.3L457.3 -165.3" data-dash="7 6"/>
    <path class="rl" d="M1185.8 648.7L1081.5 574.6L1034.6 552.5" data-dash="7 6"/>
  </g>
  <g class="layer" data-kind="labels">
    <text x="521" y="313.6" text-anchor="middle" class="lb lb-campus">Hillsboro Airport</text>
    <text x="734.2" y="304.7" text-anchor="middle" class="lb lb-campus">Intel Gordon Moore Park</text>
    <text x="448.3" y="142.5" text-anchor="middle" class="lb lb-water">Vanderzanden Reservoir</text>
    <text x="183.1" y="939" text-anchor="middle" class="lb lb-water">S I C Reservoir</text>
    <text x="959.4" y="106.3" text-anchor="middle" class="lb lb-water">Holcomb Lake</text>
    <text x="349.8" y="604.5" text-anchor="middle" class="lb lb-water">Teufel Reservoir</text>
    <text x="363.5" y="647.2" text-anchor="middle" class="lb lb-water">Salamander Slough</text>
    <text x="124.3" y="729.2" text-anchor="middle" class="lb lb-water">Tualatin River</text>
    <text x="872.1" y="402.3" text-anchor="middle" class="lb lb-water">Rock Creek</text>
    <text x="273.7" y="177.1" text-anchor="middle" class="lb lb-water">McKay Creek</text>
    <text x="849.6" y="808.8" text-anchor="middle" class="lb lb-water">Butternut Creek</text>
    <text x="612.1" y="408.9" text-anchor="middle" class="lb lb-water">Dawson Creek</text>
    <text x="381.6" y="275.2" text-anchor="middle" class="lb lb-water">Glencoe Swale</text>
    <text x="574.3" y="849.2" text-anchor="middle" class="lb lb-park">Meriwether National Golf Course</text>
    <text x="688.3" y="796.9" text-anchor="middle" class="lb lb-park">The Reserve</text>
    <text x="941.7" y="231.1" text-anchor="middle" class="lb lb-park">Rock Creek Country Club</text>
    <text x="188.1" y="475.6" text-anchor="middle" class="lb lb-park">McKay Creek Golf Course</text>
    <text x="74.1" y="45.4" text-anchor="middle" class="lb">Northwest Zion Church Road</text>
    <text x="220.2" y="517" text-anchor="middle" class="lb">Southwest Oak Street</text>
    <text x="386.8" y="518.8" text-anchor="middle" class="lb">Southeast Oak Street</text>
    <text x="273.9" y="858.3" text-anchor="middle" class="lb">Southwest Hillsboro Highway</text>
    <text x="464.5" y="229.2" text-anchor="middle" class="lb">Northeast Evergreen Road</text>
    <text x="518.2" y="652.3" text-anchor="middle" class="lb">Southeast Tualatin Valley Highway</text>
    <text x="832.5" y="443.1" text-anchor="middle" class="lb">Northeast Cornelius Pass Road</text>
    <text x="818.2" y="563.5" text-anchor="middle" class="lb">Southeast Cornelius Pass Road</text>
    <text x="290.3" y="555.1" text-anchor="middle" class="lb">South 1st Avenue</text>
    <text x="887.7" y="349.3" text-anchor="middle" class="lb">Northeast Cornell Road</text>
  </g>
  <g class="layer" data-kind="marker">
    <circle cx="296" cy="491.5" r="11" fill="none" stroke="rgba(52,87,213,.35)" stroke-width="1.5"/>
    <circle cx="296" cy="491.5" r="4.5" fill="#3457D5"/>
  </g>
</svg>
