<svg xmlns="http://www.w3.org/2000/svg" viewBox="0 0 1000 1000" preserveAspectRatio="xMidYMid slice" role="img" aria-label="Map of Richmond, Virginia">
  <!-- Generated from the Overpass API on 2026-07-23 — data © OpenStreetMap contributors, ODbL -->
  <style>
  text{font-family:Inter,system-ui,sans-serif;paint-order:stroke;stroke:rgba(255,255,255,.88);stroke-width:3px;letter-spacing:.02em}
  .wa{fill:#E3ECF8;stroke:#C9D8EF;stroke-width:1.4}
  .ww{fill:none;stroke:#BFD2ED;stroke-linecap:round;stroke-linejoin:round}
  .pk{fill:#E5EFE1;stroke:#BFD6B8;stroke-width:1.6}
  .cp{fill:#EEF0FA;stroke:#C3CAE4;stroke-width:1.8}
  .hw{fill:none;stroke:#AEB6C2;stroke-width:3.4;stroke-linecap:round;stroke-linejoin:round}
  .rd{fill:none;stroke:#C9CFD8;stroke-width:2.2;stroke-linecap:round;stroke-linejoin:round}
  .r2{fill:none;stroke:#DADFE6;stroke-width:1.5;stroke-linecap:round;stroke-linejoin:round}
  .rl{fill:none;stroke:#C6CBD4;stroke-width:1.4}
  .lb{font-size:12px;font-weight:500;fill:#98A0AB}
  .lb-water{fill:#8CA0C6;font-style:italic}
  .lb-park{fill:#85A07E}
  .lb-campus{fill:#767E92;font-weight:600}
  </style>
  <g class="layer" data-kind="waterarea">
    <path class="wa" d="M313.6 496.4L319.1 492.2L300.1 471.3L272.1 453.4L257.1 448.4L243.1 446.2L263.9 455.1L281 465.3L298.9 479.7L313.6 496.4Z" data-fill="1"/>
    <path class="wa" d="M244.5 444.8L257.2 447.5L275.5 454.4L301.4 471.5L319.9 491.6L325.2 487.5L310.1 469.3L280.8 451.4L266.9 446.4L243 444.1L244.5 444.8Z" data-fill="1"/>
    <path class="wa" d="M1143.3 516L1140.6 513.1L1141.5 511.9L1143.7 513.9L1155.2 515.2L1156.2 523.1L1160.3 523L1156 529.5L1167 526.3L1156.9 534.4L1157.3 541.6L1149.7 556.4L1143 550.5L1145.5 543.5L1149.4 539.9L1151.4 519L1145.4 518.2L1143.3 516Z" data-fill="1"/>
    <path class="wa" d="M-83.8 1086.8L-79.4 1098.2L-80.8 1100.4L-75 1104.7L-75.1 1124.9L-76.7 1127.4L-73.9 1132.7L-77.5 1133.6L-72.3 1135.9L-65.5 1126.8L-61.1 1125.1L-59.8 1121.6L-63.3 1123.8L-68 1121.7L-71.1 1103.7L-69.9 1100.2L-75.5 1097.1L-78.2 1082.8L-83.8 1086.8Z" data-fill="1"/>
    <path class="wa" d="M64.9 1038.9L57.4 1049.7L62.3 1055.2L65.4 1047.6L68.7 1047L69.5 1043.7L77.2 1039.8L76.4 1035L72.4 1031.1L71.5 1023.6L73.2 1021.6L71 1022.4L66.9 1030.6L63.1 1029.3L66.3 1035.1L64.9 1038.9Z" data-fill="1"/>
    <path class="wa" d="M-74.4 1173.6L-70.6 1175.4L-64.1 1168.1L-69.6 1152.8L-69.5 1147.7L-65 1140.3L-66 1132.4L-69.5 1142.8L-72.9 1145.4L-71.2 1151L-74.9 1165.5L-73.2 1168.9L-74.4 1173.6Z" data-fill="1"/>
    <path class="wa" d="M-137.8 411.4L-141.7 411.1L-142.2 417.1L-145.2 417L-142.9 419.3L-143.7 422.4L-149.7 425.2L-145 424.9L-143.2 427.6L-147.3 436L-147.5 440.9L-144.7 444.2L-148.3 447.4L-143.1 444.8L-139.3 449.4L-141.7 444.7L-141.9 437L-139.5 427.8L-135.3 426.4L-138.2 423.1L-137.8 411.4Z" data-fill="1"/>
    <path class="wa" d="M-299.8 73.9L-299.9 78.6L-292.9 77.7L-288.5 72.4L-288.3 64.8L-283.5 59.6L-279.7 61.3L-279.7 69.6L-273.1 66.7L-273.3 63.6L-277.9 60.8L-278.2 57.2L-286 56L-289.5 59.2L-294.6 71.5L-299.8 73.9Z" data-fill="1"/>
    <path class="wa" d="M491.6 -88.8L498 -81.2L496.5 -79.6L501.4 -75.5L515.2 -67.5L517.1 -68.5L513.8 -73.3L512.1 -72L511.4 -74.8L501.6 -79.5L483.5 -100.7L473 -99L464.3 -103.4L461.6 -106.2L461.7 -113L465.8 -120.9L450.4 -120L455.8 -118.8L464 -120.4L464.2 -118.3L460.7 -114L462.1 -103.6L474.4 -97.6L482.7 -99.7L491.6 -88.8Z" data-fill="1"/>
    <path class="wa" d="M805.2 1078.9L803.9 1069.4L816.6 1068.8L819.5 1080.2L811.8 1084.7L805.2 1078.9Z" data-fill="1"/>
    <path class="wa" d="M-231.3 -3.5L-224.7 -10.9L-213.4 -8.2L-221.5 6.1L-231.3 -3.5Z" data-fill="1"/>
    <path class="wa" d="M805.3 1041.6L801.7 1028.1L810.8 1031.2L813.6 1044L808.6 1051.9L806.5 1050.9L805.3 1041.6Z" data-fill="1"/>
    <path class="wa" d="M457.3 484.3L454.4 480.5L458.3 477.5L465 479.1L470.5 483.6L466.6 492.2L456.8 487.3L455.5 485.9L457.3 484.3Z" data-fill="1"/>
    <path class="wa" d="M1144.3 856.3L1137.6 857.4L1137.3 861.5L1148.9 864.2L1144.7 857.7L1145.5 847.1L1140.6 845.7L1137.5 854.3L1142.8 854.3L1144.3 856.3Z" data-fill="1"/>
    <path class="wa" d="M1240.1 533.3L1249.4 535.8L1245.8 546.4L1240.9 546.4L1244 541.9L1240.8 542L1240.5 538.5L1233.2 538L1236.1 533.3L1240.1 533.3Z" data-fill="1"/>
    <path class="wa" d="M114.7 653L108.4 652.4L110.9 655.9L99.3 658.7L96.4 661.4L97 664.2L103.4 663L107.7 664.6L114.6 661.9L114.7 653Z" data-fill="1"/>
    <path class="wa" d="M1209.2 602.3L1206.2 599.9L1195.5 598.1L1211.9 617.3L1212.9 614.2L1209.2 602.3Z" data-fill="1"/>
    <path class="wa" d="M1230.2 613.9L1222.8 608.6L1220.7 615.1L1222.8 617.6L1221.4 618L1222.2 620.2L1224.9 620.4L1226.4 623.7L1229.2 622.8L1231.7 625.1L1228.7 616.7L1236.9 628L1230.2 613.9Z" data-fill="1"/>
    <path class="wa" d="M1095.2 870.6L1093.3 871.3L1092.4 876.4L1096.8 874.1L1100.9 876.1L1104.1 869.5L1110.1 874.9L1114.6 872.7L1107.7 869.2L1105.4 862.9L1101.6 863.4L1099.7 868.9L1095.2 870.6Z" data-fill="1"/>
    <path class="wa" d="M1217 548.2L1219.4 551.1L1222 547.6L1219.6 545.3L1224.1 537.5L1222.6 536.5L1227.5 531.9L1218.5 530.7L1215.5 546.1L1217 548.2Z" data-fill="1"/>
    <path class="wa" d="M1264.3 82.4L1264.4 79.4L1261.5 80.9L1257.9 79.8L1258.8 74.5L1272.1 74.6L1287.1 82.6L1273.5 77.4L1268.5 77.8L1266.2 82.5L1274.4 85.2L1266.5 85.2L1264.3 82.4Z" data-fill="1"/>
    <path class="wa" d="M1123.8 852.9L1120.7 854.6L1120.6 860.8L1129.4 861.1L1129.1 850.5L1126.6 846.7L1122.8 847L1119.8 850.2L1119.6 852.2L1123 850.5L1123.8 852.9Z" data-fill="1"/>
    <path class="wa" d="M1136.1 -61.2L1137 -63L1138.9 -62.2L1136.9 -56.8L1138.6 -49.5L1151.6 -38.3L1154.9 -30.8L1150.7 -32L1146.2 -40.3L1136.7 -47.7L1136.1 -61.2Z" data-fill="1"/>
    <path class="wa" d="M-120.4 267L-114.3 264.8L-109.3 258.5L-109.6 255.2L-104.1 246.8L-105.3 247.4L-108.5 242.8L-106.7 246.6L-114.7 255L-115.8 262.6L-119.1 263.9L-123.9 261.2L-120.4 267Z" data-fill="1"/>
    <path class="wa" d="M461.8 545L467.4 546.6L475.3 531.6L470.1 531.2L466.9 538.5L462.6 540L461.8 545Z" data-fill="1"/>
    <path class="wa" d="M374.8 81.5L375.1 83.8L370.7 84.1L365.1 76.9L360.2 80L350.2 71.3L353.6 71.3L360.9 75.3L367.9 73L370.3 78.8L374.8 81.5Z" data-fill="1"/>
    <path class="wa" d="M774.8 776.6L776.6 770.2L777.7 771.8L778.3 768.8L786.4 767.3L787.4 774.5L784.3 781.5L782.9 780.8L783.2 776.8L779.6 775.4L777.5 772.1L777.6 774.7L774.8 776.6Z" data-fill="1"/>
  </g>
  <g class="layer" data-kind="waterway">
    <path class="ww" d="M-577.7 368.3L-560.1 382.9L-548.3 387.4L-489.3 387.1L-410.3 407.3L-373.4 404.9L-310.4 416.2L-281.3 416.6L-218.8 411.6L-168 390.6L-148.3 387.9L-94 393.3L-53 410.5L-27.1 413.9L-18.2 411.3L39.4 380.5L52.1 377.1L70.4 377.1L106 383.4L142.4 384.8L152.8 388.3L167.6 399.2L180.4 425L188.3 434.2L219.7 446L270.8 471L297.5 495.7L326.1 530.8L337.6 540.4L350.7 547.2L366.6 562.4L371.8 573.3L452.5 614.4L474.3 623.6L524.1 629.7L559.2 617.3L600.8 598.3L611 590.6L636 594.6L650.3 599.6L661 609.2L665.3 610.1L672.6 621.2L679.7 624.4L736.2 628.1L758.3 637.2L790.6 658.5L803.5 672.4L808.9 689.3L809.9 751L806.6 782L802.1 797.2L773.1 852L781.1 900.1L778.6 1042L795.2 1130.4L802 1184.2L801.5 1195.8L791.9 1231.8L754.9 1299.7L747.2 1319.3L746.8 1335L754.4 1366.7L774.8 1389.6L786.1 1397.9L797.3 1402.5L810.4 1404.8L828.5 1403.7L841.9 1400.8L874.1 1385.7L888.2 1383.7L913.6 1394.5L921.5 1403.2L932.2 1424.4L936.8 1443.4L944 1508L950.7 1538.5L959.3 1550.2L1007.3 1578.1L1014.1 1588.2L1012.6 1608.3L999.1 1653.1L1003.6 1672.7L1011.9 1681.5L1038.1 1690.7L1049.3 1691L1057.1 1687.3L1062.8 1683.1L1065.6 1676.5L1065.6 1651.5L1068.1 1640.4L1075 1631.8L1082.9 1626.9L1093.3 1625.5L1111.3 1630.7L1128.6 1639.6L1142.8 1649.7L1150.7 1661.6L1162.2 1688.6L1161.3 1709.3L1155.6 1727.9L1160.4 1736.6L1173.2 1735.2L1213.3 1721.1L1341 1722.7M219.7 446L213.7 433.9L211.1 417.9L219.3 407.2L218.9 399.9L214.1 391L206.3 383.9L195.7 377L170.6 369.1L142.4 384.8L156.2 383.3L162.4 386.8L164.5 397" style="stroke-width:4"/>
    <path class="ww" d="M-436.3 1049.3L-425.7 1065.4L-417 1069.8L-404.9 1084.7L-398.8 1102.5L-396.2 1121L-386.4 1129.4L-383.8 1128.3L-376.9 1135.5L-375 1142.2L-352.9 1140.6L-340.6 1133.8L-334.3 1141.8L-326.1 1138.8L-315 1142.1L-303.9 1153.1L-295.9 1154.5L-284.5 1166.8L-282.5 1173.7L-253.2 1194.4L-235.1 1191.3L-232.4 1185.7L-225.9 1183.2L-218.3 1175.3L-197.2 1169.2L-189.4 1164.2L-187.3 1159.8L-181 1159.6L-173.7 1164.6L-164.6 1161.2L-159.7 1162.5L-155.5 1167.7L-145.2 1160.8L-126.8 1166.5L-120.3 1175.1L-123.1 1183.6L-121.8 1186.7L-115.1 1187.5L-95 1181.5L-67.1 1186.5L-54.5 1210.3L-39.4 1210.3L-27.4 1213.6L-20.8 1219.7L-11.8 1222.4L-10.5 1227L5.7 1240.4L13.7 1240.2L19.6 1232L39.1 1222.3L57.6 1222L64.8 1223.6L65.9 1232L81 1233.3L83.5 1231L89.3 1235.9L101.1 1233.2L105.8 1242.6L115.8 1243.4L120.8 1248.7L127.9 1251.5L142.1 1243.7L149.6 1248L157.6 1244.4L165.9 1250.7L166.4 1260.1L169.8 1265.7L179 1254.2L178.7 1249.1L172.2 1244.2L177.1 1238.4L194.1 1239.9L191.8 1244.1L194 1248.7L197.2 1253.4L201.2 1254.5L199.7 1248.6L203.8 1243.3L205.3 1235.2L208.7 1232.3L212.9 1236.2L217.3 1236.1L228 1213.8L237.5 1220.4L239.7 1219.4L242.6 1208.6L245.8 1208.7L250.2 1201.3L271.1 1195L280.3 1196.7L283.8 1193.9L290.7 1194.8L293.5 1185.1L305.8 1183.6L310.1 1185.8L312.1 1196.4L329.9 1201.5L329.5 1193.1L333.5 1183.6L327.2 1177.3L333.3 1165.9L347.3 1160.9L346.1 1156.4L349.8 1145.2L357.8 1145.4L363.3 1159.1L366.5 1161.2L378.8 1156.5L390 1161L402.9 1150L404.7 1139.5L407.9 1136.5L414 1138L421.6 1147.1L427.3 1146.8L424.7 1129.5L429.9 1121.3L434.1 1122.3L443.4 1137.8L463.8 1126.5L468.8 1126.9L475.4 1132L480.2 1131.2L489.1 1115.2L513.7 1104.4L524.1 1106L522.8 1119.2L533.6 1124.9L543.1 1122.1L547.1 1111.3L554.4 1109.4L563.4 1125.2L554.7 1139.8L561.7 1154.9L561.3 1171.7L566.1 1177.7L575.5 1181.4L582.1 1192.5L586.5 1193.9L586.7 1197.3L581.8 1203.5L587.6 1209.9L601.2 1214.4L612.9 1214.4L618 1217.4L623.2 1212.6L629.1 1213.8L642.7 1224.9L644 1234.8L658.2 1247.7L663.5 1257.1L663.4 1265.6L657.7 1277L661.3 1283L676.7 1280.5L691.9 1271.1L694.1 1273.8L693.6 1280.7L696.1 1282.7L703.6 1280.1L717 1286.4L727.4 1283.7L731.4 1285L748.7 1300.8L751.5 1307.1" style="stroke-width:2.2"/>
    <path class="ww" d="M-148.3 387.9L-147.9 379.2L-142.3 368.7L-120.1 355L-90.2 365.6L-75.1 376.7L-53.9 378L-47 377.4L-21.2 364L39 350.5L81.3 349.2L95.7 341.2L107.7 338.9L126.9 346.1L136.6 355.9L161.3 357.8L180.2 367.7L195.6 368.8L221.3 394.1L231.1 429.9L237.5 440.2L277.8 448.2L304.6 463.4L315.5 473.1L328.2 488.7L331.1 495.8L330.5 515L335.3 526.3L356.7 529.7L373.9 550.8L407.1 561.4L408.9 566.8L416 573.8L438.4 586.9L460.6 594.6L479.8 607L494.1 611.2L523.7 607.1L552.3 611.9L557.4 609.2L569.2 593.4L598.3 576.5" style="stroke-width:2.2"/>
    <path class="ww" d="M786.1 -212.7L807.6 -146.8L818.3 -136.7L827.4 -134.1L829.8 -129.2L847.1 -121.1L850.9 -112.1L864.8 -105.8L871.7 -106.5L880.4 -97.1L880.6 -89.4L884.3 -82.3L884.1 -70.7L878.6 -62.9L876.8 -43.8L869 -33.4L860.6 -13.4L867.9 -0.2L882.8 15.8L884.9 21.5L880.7 40.8L888.9 55.3L893 56.6L906.4 49.5L912.8 49.8L932.9 79.1L946.2 81.5L958.8 94.6L964.4 108.8L977.6 106.4L985.3 108.1L1019.2 135L1048 137.9L1072.1 144.3L1095.8 164.2L1108.2 162.9L1131.5 177.9L1131.8 188.8L1135.1 192.3L1143.1 192.4L1146.4 199.7L1156.4 205.9L1156.5 211.7L1161.9 221L1167.9 219.1L1177.7 222.5L1180.9 229.1L1188.9 234.5L1192.6 233L1196 236.8L1196.7 234.9L1200.8 235.6L1205.2 238.2L1205 241.9L1224.4 246.9L1232.8 252.7L1248.6 252.8L1278.2 263.4L1281.5 259.1L1292.2 257.8L1301 265.2" style="stroke-width:4"/>
    <path class="ww" d="M-166.4 660.7L-161.1 655.9L-138.6 653.2L-131 656L-128.5 653.7L-124 657.8L-114.4 657.3L-105.2 651.1L-101.5 653.3L-95 649.9L-85.4 660.5L-73 669L-67.9 668.8L-64.5 665.2L-60.6 666.4L-51.6 678.4L-45.7 698.9L-51.1 710.9L-50.3 716.3L-39.9 729.2L-35 752.6L-29.1 761.2L-28.6 767.3L-24.4 771.5L-17.3 772.1L-6.3 799.5L1.5 797.7L15.2 800.6L35.4 793.8L42.2 794.3L63.5 785.7L81.7 769.5L86.7 758.3L94.2 753.9L112.7 726.7L117.6 711.9L130.8 690.2L130.2 680.5L143.3 676L150.3 680.1L151.3 675.3L162.6 664.8L164.7 658.7L162.3 656.9L162.1 651.4L169.8 637.5L179.8 636.4L180.4 631.9L188 629.2L188.6 624.9L192.8 621.4L222.1 612.8L234.7 590.4L236.4 594.7L240.6 596L253.5 589.2L259.8 591.5L277.4 579.7L306.8 569.4L316.8 559.2L318.7 547.8L332.5 536.2" style="stroke-width:2.2"/>
    <path class="ww" d="M-195.8 845.4L-190.4 847.4L-188.9 855.3L-190.6 857.1L-183.1 866.2L-184.6 869.2L-182.7 871.4L-163.9 880.4L-154.4 893.2L-135.8 898.4L-105.8 898.8L-103.3 905.4L-87.9 922.1L-77 929.1L-71.9 928.2L-72.3 932.2L-64.1 938.1L-58.5 955L-40.3 964L-33.1 973.9L-19.7 982.4L-1.1 1004.3L10.4 1024.2L27.7 1029.7L31.7 1040.1L42.4 1042.5L44.5 1050.6L53.4 1063.3L74 1064L82.4 1082.6L99.5 1096.8L117 1096.9L129.7 1088.4L141.5 1088.9L149.3 1093.4L142.1 1100.5L144.8 1106.3L142.6 1113.7L153.6 1118.7L167.4 1113.2L179.3 1115.9L202.7 1112.2L211.9 1113.4L216.2 1116.3L217.6 1121.9L222.3 1123.7L232.6 1115.8L239.1 1117.6L254.1 1114.3L276.7 1104L280.5 1094.2L283.1 1096.5L291.4 1093.8L296.3 1102L305.3 1094.5L309.2 1104L312.5 1104.9L325.5 1090" style="stroke-width:2.2"/>
    <path class="ww" d="M882.1 34L874.6 32.5L856.6 14L845.9 9.1L845.9 -1.3L827.9 -14L799.4 -16.9L787.3 -11.9L779.9 -4.2L745.1 -3.8L729.4 -15.4L715.5 -17.2L690.9 -31.2L683.8 -27.5L683 -23.8L678.4 -27.4L674.4 -24.7L660.2 -36.4L651.3 -40L635.6 -33.6L634.3 -28.8L629.9 -29.2L627.7 -18.5L622.9 -16.8L614.4 -4.6L596.7 -8.2L585.1 -15.6L570.2 -18.7L565.5 -24.1L558.6 -24.6L552.5 -20.7L550.6 -15.1L533.1 -12.2L536.6 -6.3L549.7 1.6L548.7 6.7L551.4 11.1L540.2 27.7L541.6 36.8L537 39.3L528.4 37.7L523.6 46.4L531 54.5L555.6 62.4L561.5 74.7L559.7 85L550 91.9L537.5 94.4L528.2 103.7L514.2 105.4L508.5 109.8" style="stroke-width:4"/>
    <path class="ww" d="M1143 550.5L1134.8 561.8L1131 562.4L1130.2 568.4L1126.3 566.1L1115.2 578.6L1111.6 577.5L1107 584.1L1103.1 582.9L1099.4 585.5L1097.5 590.3L1094.2 590.7L1094.3 594.2L1088 595.8L1090.7 601L1085.8 603.6L1080.5 602.3L1078.9 598.7L1076.4 604.3L1068.1 602.6L1056.5 611.8L1032.3 606.4L1025.6 609.4L1017.8 606.3L990.1 606.6L988.9 614.8L985.7 616.4L979.7 614.4L977.3 623.4L971.8 622.8L966 627.5L960.3 627L955.5 630.8L952.6 623.5L947.8 622.8L933.3 643.4L916.3 649.4L897.7 652L895.9 656.8L890.8 660.3L842.9 663.2L832.9 670.2L822.2 670.6L814.6 664.1L802.6 670.9" style="stroke-width:2.2"/>
    <path class="ww" d="M-464.9 334.9L-460 330.2L-439.1 339.4L-431.5 335L-391.1 355.7L-364.3 361.7L-355.5 367.2L-349.7 384.5L-297.1 387.6L-264.9 392L-253.9 396L-203.4 387.9L-192.3 377.7L-184.3 358.6L-162.4 358.4L-142.3 368.7" style="stroke-width:4"/>
    <path class="ww" d="M-149.7 -155.2L-155.2 -150.2L-157.5 -142.6L-154.5 -127.4L-156 -120.7L-160.5 -115.9L-159.2 -107L-165.3 -97.8L-170.2 -97.6L-173.8 -86.4L-175 -70.2L-192 -47.8L-219.6 10.2L-239.5 19.5L-246.1 19.5L-247.5 22.2L-259.2 21.1L-258.2 26.1L-264.4 37.6L-270.2 40.4L-274.8 48.2L-268.7 51.2L-273.4 60.7L-272.3 65.2L-279.3 65.5L-279.5 61.1L-285.7 59.1L-292.4 73.3L-300.8 76.9" style="stroke-width:2.2"/>
    <path class="ww" d="M569.1 -20.3L573.1 -26.9L571 -41.3L557.1 -56.2L544.1 -50.8L541.7 -53.8L542.1 -65.4L535 -67.1L525 -63.4L520.5 -64.5L502.7 -76.5L484.8 -99.1L481.3 -100.7L474.3 -98.4L463.3 -103.3L460.8 -109L464.6 -120.6L449.9 -119.8L443.9 -114.3L440.5 -118L448 -131.4L443.6 -145.3L450.4 -156L450.2 -167.2L457.8 -170.9L455.5 -182.6L459.9 -188.7" style="stroke-width:2.2"/>
    <path class="ww" d="M1042 811.6L1035 809.9L1024.4 812.8L960.6 807.1L925.9 790.3L908.8 774.5L895.9 770.4L892.4 775.1L886.5 771.4L873.9 776.6L866.1 776.2L836.4 785L823.8 799L811.1 805.4L798.8 803.6" style="stroke-width:2.2"/>
  </g>
  <g class="layer" data-kind="park">
    <path class="pk" d="M1274.3 1033.5L1294.8 1036.6L1297.5 1044.3L1297.4 1049.7L1293.3 1051.1L1292.4 1056.6L1296 1074.5L1295.7 1084.6L1293.4 1086.8L1293.1 1104L1295.9 1118L1303.6 1132L1308.1 1164.7L1301.3 1162.1L1299.4 1156.9L1297.6 1156.7L1287.5 1163.2L1263.5 1162L1260.7 1159.2L1252.7 1156.6L1242.6 1135.5L1242 1113.4L1244.1 1094.6L1242.3 1091.7L1236.9 1089.3L1233.8 1084.2L1232.1 1073.4L1227.7 1068.1L1226.8 1064L1242.5 1047.2L1247.8 1038.6L1249.7 1031.9L1274.3 1033.5Z" data-fill="1"/>
    <path class="pk" d="M446.1 120.7L451.6 104L456.7 105.9L493.6 107.8L517.8 103.7L519.1 121.6L499.8 172.7L493.2 176.6L468.4 182.2L458.5 181.3L449.9 176L444.7 168.2L443.8 160.3L436.9 145.1L424 130.9L446.1 120.7Z" data-fill="1"/>
    <path class="pk" d="M915.8 144.5L912.4 148.7L912.1 156.9L909.8 160.1L892.6 152.3L883.4 172.9L866.9 202.7L862.6 200L890.6 142.2L894.5 128.4L894.2 115.7L890.7 103.4L874.1 75.7L904.7 72.6L921.7 63.3L933.5 79.7L943.6 79.9L959.1 95.1L923.7 148.4L915.8 144.5Z" data-fill="1"/>
    <path class="pk" d="M483.7 550.1L492.5 505.7L468 494.9L474.5 480.4L460.4 476.3L453.2 479.1L447.7 489.6L441.2 488.4L436.3 490.5L433.7 502.2L427.8 515.8L425.2 514.7L424.1 517.1L407.3 526.2L402.4 534.1L404 550.2L407.4 557.2L413.3 565.3L425.5 568.1L429.2 559.7L431.9 558.9L437.2 545.1L439.6 546.3L457 505.3L465.6 506.7L452.1 538.8L455.9 539.4L459.8 545.7L463.7 547.9L471.3 546.9L483.7 550.1Z" data-fill="1"/>
    <path class="pk" d="M410.6 616.2L408.4 616L403.6 627.8L402 626.7L403.9 619.2L400.8 617.1L402.4 608.4L398.7 607.6L392.5 613.4L360.9 609.2L358.1 604.4L354.8 586.1L349.4 581.3L338.8 580.2L338.7 573.6L322.7 573.4L311.1 578.2L304.1 584.5L300 582.9L297.9 578.4L311 571.8L332 555.9L335.4 555.7L345.3 565.8L357.3 584.6L374.8 604.8L384.8 607L399.3 602.9L410.7 604.6L422.9 612.6L432.2 625.3L447.5 636.8L471.7 639.8L477.9 642.1L487.3 649.4L497.6 652.6L503.3 651.2L503.9 652.6L504.8 651.1L532.6 651L544.4 653.6L558.9 653.6L566.5 648.9L574.7 648.9L594.8 635.7L605.3 633L601.2 636.1L598.5 643L579.9 652.7L575.3 657.7L564.1 656.9L547.4 662.4L535.7 658.5L522.8 659.2L513.2 663.8L493.7 660.9L478.5 654.7L471 655.7L457.2 647.7L451.5 651.3L447.1 648.8L449.3 641.5L442.3 640.3L439.8 636.8L432.2 632.7L424.6 636.4L422.6 635.6L421.4 627L418.9 625.8L414.5 627L416.4 618.1L410.6 616.2Z" data-fill="1"/>
    <path class="pk" d="M-52.7 945.4L-32.8 927.8L10.2 956.7L8.8 964.4L4.2 967.2L4.5 970.3L-8.4 972.8L-17.3 978.1L-33.8 994.7L-59.7 1002.6L-60.3 1000.1L-49.3 994.6L-46.5 990.5L-32.1 980.3L-34.3 974.3L-39 974.7L-40.3 977.8L-53.9 988.7L-54.4 992.6L-77.3 1003.2L-81.5 1000.5L-88.2 990L-83 987.2L-80.3 988.6L-50.9 979L-49.1 968.7L-53.2 960.7L-52.7 945.4Z" data-fill="1"/>
    <path class="pk" d="M285.9 497.8L305.5 517.4L310.8 527.9L322.2 539.2L321.4 543L316.4 545.4L308.4 544.9L312.9 550.6L314.7 561L311.5 565.8L302.6 571.1L277.8 574.4L264.7 569.7L263.4 566.6L268 553.6L274 548.5L279.3 535.3L279.3 530.7L267.7 523.9L285.9 497.8Z" data-fill="1"/>
    <path class="pk" d="M107.5 284.7L130.8 275.7L139.5 277.6L142.6 286.4L135.7 293.8L138 307.3L151 305.1L150.6 300.5L182.5 298.8L188.5 322.4L172.6 327.6L169.8 323.9L148.6 326.9L117.7 327.9L111.7 300.2L107.8 293.5L107.5 284.7Z" data-fill="1"/>
    <path class="pk" d="M529.9 -103.2L507.9 -97.7L473.7 -134.6L470.2 -132.5L460.5 -111.8L461.7 -102.6L472.6 -98.1L480 -101.1L485.8 -98.1L500.9 -77L513.9 -71L521.3 -62.5L524.9 -62.4L540.7 -69.4L533.6 -82L533.6 -92L529.9 -103.2Z" data-fill="1"/>
    <path class="pk" d="M755.8 -49.1L760.2 -49.1L760.6 -45.2L757.1 -45.1L757.5 -37.7L760.9 -37.7L762.2 -25.9L768.8 -3.9L745.1 -4.1L729.3 -15.7L722.6 -15.1L715.2 -17.5L716.3 -55.9L754.2 -57.7L755.8 -49.1Z" data-fill="1"/>
    <path class="pk" d="M483.7 550.1L471.3 546.9L463.7 547.9L459.8 545.7L455.9 539.4L452.1 538.8L446.2 553.1L437.1 548.7L430.8 565.8L431 572.7L427.2 580.1L441.9 587.4L461.2 592.8L466.4 597.1L472 596.8L479.6 556.7L482.5 555.1L483.7 550.1Z" data-fill="1"/>
    <path class="pk" d="M524.4 -32.3L523.6 -38.5L519.4 -45.5L515 -48.9L504.7 -50.3L507 -55.8L534 -57.4L533.6 -62.7L540.8 -65.9L542.6 -64.7L541.6 -54.4L543.3 -51.4L545.6 -50.8L551.2 -55.4L556.3 -56.5L571.3 -40.1L574.4 -41.5L573.4 -35.8L532 -33.2L532.4 -10.3L548.4 2L547.4 7.3L549.7 10.7L540.9 24.5L528.5 22.9L522.6 -18.2L524.4 -32.3Z" data-fill="1"/>
    <path class="pk" d="M490.2 715.6L491 713.5L500 709.5L506.6 708.2L505.1 704.7L501.8 705.8L498.8 699.9L499.8 694L497.1 691L496.8 687.1L497.6 685.2L500.7 685.2L506.6 691.3L510.1 689.3L500.3 669.1L506.2 666L509.5 671.5L513.2 663.8L495.2 661.3L492.2 667.2L487.3 667.6L480 672.3L466.7 668.1L457.4 683.7L463.8 688.2L457 699.9L474.7 709.9L490.2 715.6Z" data-fill="1"/>
    <path class="pk" d="M552.2 -33.5L552.8 -22.2L551.1 -15.5L534.9 -13.8L533.2 -12L536.6 -9.6L536.1 -6.9L549.8 2.3L550.7 4.3L548.4 7.1L550.7 12.2L542.5 24.7L528.5 22.9L522.6 -18.4L523.2 -31L531.8 -32L533.7 -17.9L548.2 -19L547.9 -33.2L552.2 -33.5Z" data-fill="1"/>
  </g>
  <g class="layer" data-kind="campus">
    <path class="cp" d="M1458.8 740.7L1475.5 745L1463.1 822.7L1463.8 830.8L1467.2 839L1501.3 892.5L1501 899.4L1455.9 888.8L1451.9 898.8L1434.2 893.4L1433.2 894.8L1294.1 862.7L1261.8 836.2L1286.1 747L1280.5 703.3L1261.5 706.2L1261.6 700.1L1274.4 698.4L1316 685L1350.9 668.8L1379.1 662.2L1379.7 664.4L1386.6 666.2L1387.3 663.8L1401.7 666.2L1396.3 688.1L1405.7 697.9L1413.2 699.9L1422 729.1L1437.7 732.5L1453.5 730.4L1458.8 737.6L1458.8 740.7Z" data-fill="1"/>
    <path class="cp" d="M115 327.8L44.2 297L48.8 283.8L48.9 273.9L72.5 245.4L79.5 239.7L77 227.3L96 220.6L114.3 221.1L125.5 216.8L130.5 226L119.9 232.6L118.7 236.4L121.7 256.4L106 278.6L106.5 287.3L111.7 300.1L115.5 320.3L115 327.8Z" data-fill="1"/>
    <path class="cp" d="M743.5 1210.8L745.9 1199.7L736.8 1189.9L744.7 1180.6L702.7 1144.9L690.3 1142.2L689.6 1139.5L686.8 1142.6L686.4 1173.7L688.4 1176.1L688.6 1201.9L693.7 1215.1L693.7 1229.5L717.3 1230.2L721.9 1228.3L733.2 1233.6L735.7 1209.6L743.5 1210.8Z" data-fill="1"/>
    <path class="cp" d="M685.4 1015.2L734.8 1011.7L745 1073.9L713.4 1077.2L685 1071.2L685.4 1015.2Z" data-fill="1"/>
  </g>
  <g class="layer" data-kind="highway">
    <path class="hw" d="M383.1 417.3L375 478.5L379.6 505.5L376.1 517L371.1 523.5L306.7 573L278.7 582L253.3 598.9L222.5 605.2L178.5 624.1L168.5 630.9L129.9 672.8L110.5 724L96.1 745.9L53 781.1L8.3 799.9L-9.3 814.2L-49.1 886.1L-80.5 931.7L-47.5 885.5L-6.4 812.2L7.7 801L55.1 778.9L99.1 741.4L110.3 722.7L130.7 665.6L143.7 647.9L182.5 617.5L195.2 610.2L254.1 595.6L274.4 582.7L303.2 573.4L362 531.2L371.6 519.6L374.1 511.8L373 472.6L384.6 399.4M-253.8 1088.2L-275.2 1092.2L-195.3 1080.4L-181.5 1074.9L-171.4 1067.1L-130.1 1008.7L-105.9 963.9L-80.5 931.7L-105.3 964.3L-131.1 1012.2L-172.5 1069.7L-195.2 1081.5L-254.8 1089.5"/>
    <path class="hw" d="M1340 609.9L1289 606.9L1174.8 590.5L1142.6 594.9L1094.7 611.4L1079.4 611.8L1057.8 607.9L1036.2 593.1L1005.1 557.3L956.1 510.6L923.9 472.2L908.5 447.2L897.2 437.1L855.4 421.8L819.5 399L799.8 395.3L790.4 398.1L780.8 404.6L763.3 425.6L761.7 430.7L773.2 414.4L786.1 402L799.8 395.3L809.7 395L822.7 398.8L859.9 424.4L895.5 438.1L906.8 447.9L951.3 508.3L1011.1 563.6L1040.7 595L1061.9 609.7L1081.6 613.9L1096.8 613.2L1143.3 596.9L1173.5 592.8L1293.4 609.3M-111.3 -158L-64 -125.1L57.5 -51.6L67.5 -41.9L84 -15.9L98.5 1L112.3 13.3L139.3 30.7L162.3 40.9L184.9 47.1L240.4 55.6L298.1 60.3L312.1 69.4L327.3 94L339.8 105.1L351.2 109.5L402.4 120.1L415.3 126.7L433.3 144.7L450 177.4L459.3 182.6L485.8 186L497.2 193.7L503.1 206L503.8 231.2M500.7 225.9L496.2 207.3L491.4 199.3L485.1 195L462 189.8L449.3 180.9L428.3 140.3L401.7 119.8L350.1 107.8L339.9 103.4L328.4 92.6L313.3 68.1L299 58.8L239.2 53.9L185.9 45.7L160 38.3L136.8 27.6L99.6 -0.1L60.4 -51.5L-42.7 -114.6L-112.6 -164.6M687.5 457L715.3 471.9L730.4 471.4L740.5 463.6L760.6 429.7L745.8 455.7L735.5 464L719.1 468L703.4 462.7"/>
    <path class="hw" d="M765.5 1246.8L773.9 1231.5L776.8 1214.5L764.2 1159.1L763.1 1096.7L759.9 1084.5L749.3 1064.7L749.3 1066.6L745.9 1055.1L724.5 935.1L720 895.1L724.3 878.8L743.1 844.7L755.8 785L744 844.6L724.7 880.3L719.7 903.8L743.4 1048.7L762 1097.6L762 1153.6L774.2 1205.9M624.4 16.8L595 42.3L562.1 86.5L537.4 99.7L524.1 114.7L501.8 172.9L499.2 189.5L499.8 219.3L502.4 230.9L509.1 243.9L523.2 257.3L507.9 239.9L501.2 222.1L500.6 184.1L507 161.3L529.4 108.7L540.4 99.3L563.4 86.9L594.6 44.4L609.5 30.9M726.7 478.7L741.6 492.1L745.6 504.5L737.6 488.8L714 470.4L686.5 455.8L660.7 446.5L644 433.9L626.1 411.9L598.6 393L591.7 374.7L596.3 321.7L592.6 311L585.6 303L593.1 309.7L597.3 321.1L592.6 374.2L594.3 383.9L600 393L626.9 413.8L641.2 432.6L660.7 447.7L703.4 462.7L726.7 478.7M754.6 535.3L753.3 524L745.6 504.5L752.8 527L753.2 537.6L754.5 536.2L737 567.6L736.1 600L766.4 735.3L766 746.6L757.4 782.4L765.2 735.9L736.3 610.7L735.4 575.8L738.1 567.9M553.8 283.6L524.2 256.3L556 285.4L587 302.8L553.6 282.1"/>
    <path class="hw" d="M1327.8 232.4L1310.2 222.4L1294.6 209.4L1179.6 88.6L1160.9 65.1L1136.4 19.9L1095 -99.8L1078.8 -122.8L1054.8 -136.7L919.9 -173.8M1291.7 212.5L1181.7 98.2L1153.6 61.4L1130.1 17L1090.7 -97.2L1077.3 -118.1L1063.5 -129.2L1049.1 -135.8L918.3 -171.3"/>
    <path class="hw" d="M405.5 443.6L422.6 451.5L436.2 465.6L465 476.8L506.2 481.9L581.1 515.1L624.8 518.9L654.2 544.1L620.1 517.1L582.5 513.8L506.9 480.5L467.8 476L436.4 462.2L421.8 449.8L407.8 443.4M721.8 589.2L693.4 573.4L655.1 543.2L690.9 571.5L724.3 591.1"/>
    <path class="hw" d="M232.3 987.1L250.6 1033.7L267.9 1058.7L278.6 1068.6L257.2 1042.9L244.7 1018.7L176.8 822.9L232.8 985.1M80.5 509L83.9 509.4L35.3 493.1L22.9 493.8L0.8 500.9L-11 499.8L-73.3 459.9L-10.9 500.8L1.4 501.7L22.2 494.9L33.9 493.9L81.1 508.3M175 817.4L160.5 765.9L157.5 740L157.8 713.9L161.6 765.8L177.8 822.2L175.6 819.3M353.3 1151.4L337.6 1116L327.3 1104.3L316.1 1097.7L328.4 1106.7L336.6 1116.4L365.7 1169.8L380.1 1183.5L396.5 1192.6M154 612.7L156.6 668L154.9 598.8L154 612.7M150.7 550.3L133 535.7L151.4 553.5L153.4 588.5L153.7 558.9L150.7 550.3"/>
    <path class="hw" d="M-134.9 798.5L-120.1 808.3L-77.9 849.6L-54.7 861.7L-32.7 866L-52.8 862.4L-73.1 850.7L-97.8 831.2L-134.5 796.5L-135.8 797.9L-170 782.8L-218.2 778.5L-254.3 782.7L-218.2 778.5L-185.6 781L-150.3 786L-135.5 795.7M61.7 848.3L57.9 849.4L116.3 833.9L61.7 848.3M14 861.8L7.6 863.6L57.9 849.4L14 861.8M167.1 823.7L150 826.2L179.8 819.4L167.1 823.7M131.2 832L151 827.4L121.7 832.6L131.2 832M-30 864.8L-32.7 866L-9.3 868.5L-6 866.5L-30 864.8"/>
    <path class="hw" d="M1015.5 1131.8L1009.8 1134.2L1178.2 1008.6L1196.3 992.6L1014.6 1130.5M1289 993.4L1233.8 980.2L1214.6 983.1L1196.3 992.6L1216.8 984.2L1237.4 981.8L1303.1 998.9M976.7 1162.5L1010.7 1135.5L929.5 1197.3"/>
    <path class="hw" d="M407.8 443.4L391.9 436.3L385.6 430.4L383 422.6L385.2 406L396.7 383.2L458.8 310L461.3 297.7L457.6 278.9L458.2 268.4L457.1 274.5L461.3 297.7L457 309.6L391.9 385.8L381.8 405.7L378.9 422L381.4 430.6L388.1 436.7L405.5 443.6M473.2 211.9L477.6 230.2L476.9 239.1L459.9 260.5L458.2 268.4L460.6 261.4L477.8 240L478.9 231.1L475.5 214.2"/>
    <path class="hw" d="M609.5 30.9L641.2 1L649.2 -14L653.8 -32.8L649.2 -62.7L623.5 -125.8L622.8 -123L649.8 -65.5L654.2 -40.8L645.3 -8.4L637.5 3.8L624.4 16.8M607.4 -168.3L621.8 -125.4L609.6 -165.5"/>
    <path class="hw" d="M893.3 339.4L850.6 422.2L922.9 285.3L893.3 339.4M1188.5 17.5L1198.8 14.4L1235.8 14.4L1281.6 3.8L1236.9 13L1199.8 12.9L1188.2 16.1M962.3 214L962.2 216.3L996.9 157.3L962.3 214M1014.8 128.7L1033 110.9L1010.3 132.4L995.8 156.7L1014.8 128.7M960.3 219.7L961.6 217.4L936 261.1L960.3 219.7M1181.8 21.2L1188.2 16.1L1157 34.3L1181.8 21.2"/>
    <path class="hw" d="M132.9 1065L213.2 1001.2L236.2 987L210.6 1003.1L132.2 1063.8M12.7 1156.5L87.4 1099.6L16.2 1152.2M95.1 1092L86.4 1098.7L113.8 1079.6L95.1 1092"/>
    <path class="hw" d="M5.9 -83.8L-5.7 -74.4L-26.9 -44.8L-40.4 -13.4L-28.7 -41.6L-16.6 -59.2L-2.4 -77.9L11.8 -86.7M-102.7 176L-97.1 167.6L-76.1 155.3L-97.5 169L-102 178.2L-96.6 196.1L-83.1 224L-102.2 184.8L-102.7 176M-99.9 264.4L-122.6 295.3L-84.8 242.6L-81.5 233.3L-82.6 222.9L-83.7 238.6L-100.6 263.9M-56.8 53.8L-52.8 82L-57.9 44.4L-47.5 2.6L-57.3 39.7L-56.8 53.8M-53.2 98.3L-51.8 90.5L-53.7 81.2L-53 94.9L-61.7 119.2L-53.2 98.3M-61.7 119.2L-73.1 151.4L-60.9 119.4"/>
    <path class="hw" d="M1109.9 50.2L1066.4 86.6L1043.5 101.9L1066 88.5L1098.7 59.3L1112.8 50.2"/>
    <path class="hw" d="M-132.3 343.1L-126.8 363.8L-95.7 396.3L-92 404.9L-91.7 414.1L-90.8 407.4L-93.9 397.6L-124.7 365.3L-129.6 355.2L-131.4 343"/>
    <path class="hw" d="M365.8 526.4L372.9 518.3L381.8 495.8L397.1 481.6L422.9 465.8L432.3 465.6L447.9 470M376.1 517L386.6 491.8L414.8 468.8L430.9 462.9L449.7 468.5"/>
    <path class="hw" d="M276.4 581.8L256.8 595.6L220.6 603.4L193.1 612.3L181.5 618.7"/>
  </g>
  <g class="layer" data-kind="road">
    <path class="rd" d="M616.7 81.1L615.2 59.7L633.3 23.7L642 -27.1L677.9 -63.6L702.6 -110.7L757.1 -189.6L769.5 -201.5L756.1 -190.3L700.3 -109L617.3 56L615.5 71.2L627 157.4"/>
    <path class="rd" d="M999.2 1125.5L995.6 1107.7L1001.6 1095.2L1039.2 1061.9L1080.4 1035.4L1170.9 949.7L1176.9 937.2L1186.9 886.3L1201 857.1L1205.5 841.2L1202.3 856.7L1187.6 887.8L1178 936.7L1172 949.7L1080.2 1034.3L1039.8 1060.3L1001.2 1094.2L995.7 1106.1L997.5 1114.6M1204 700.2L1196.1 673.2L1207.4 713.4L1208.6 803.4L1208.5 714.8L1204 700.2M1131.4 585.7L1138.7 594.2L1126.9 580.3L1088.9 506.2L1131.4 585.7M1159.5 618.2L1138.7 594.2L1187.3 650.9L1189 655.7L1159.5 618.2M1207.8 816.3L1204.5 841L1209.6 804.2L1207.8 816.3M1193.4 668.4L1196.1 673.2L1189.8 655.2L1195.3 670.6"/>
    <path class="r2" d="M-126.8 -124L-133.4 -131.8L-109.3 -106.1L-103.5 -71.4L-85.7 -45.2L-82.3 -31.1L-71.6 -11.6L-45 17.2L-25.3 71.1L57.2 99.9L74.3 109.9L109.7 116.9L135.5 137.2L138 149.7L134.4 189L140.2 220.4L145.6 229L158.7 237.2L165.3 245.8L170.2 271.7L179.2 285.4L190 322.2M-136.2 -139.4L-138.1 -141.5L-132.8 -132.4L-142.1 -149.4L-155.5 -160.9"/>
    <path class="rd" d="M25.9 140.6L27.8 140.7L4.5 139.1L78.2 143.4L124 149.7L246.5 253.5L136.7 159L118.9 147.6L27.8 140.7M254.6 260.5L353.7 324.4L246.5 253.5L255 259.9M-97.5 132.1L-3.2 138.5L-102 131L-97.5 132.1M-138.8 128.5L-140.6 129.2L-102 131L-197.4 124.5L-140.6 129.2M-282.2 118.7L-197.4 124.5L-284.7 119.3M353.7 324.4L386 345.1"/>
    <path class="r2" d="M99.9 321.2L116.4 329.9L47.9 298L28.3 293.4L7.6 298.8L-12.4 315L-24.1 320.3L-64.1 322.4L-86.1 320.7L-103.5 315L-115.5 308L-138 301.6L-156.1 286.8L-178.3 279.8L-208.9 261.5L-239.4 249.1L-305.3 204.8L-326.4 198.8L-348 188.2L-360 186.2"/>
    <path class="r2" d="M1042.5 696.3L1042.2 705.4L1070.9 730.8L1090.8 738.1L1169 779.4L1210.3 803.7L1230.2 820.5L1259.7 835.4L1433.1 979.2L1472 1000.1"/>
    <path class="r2" d="M450.1 957.4L487.2 990.9L495.5 1014.2L500.8 1020.5L555.5 1042.8L564.2 1043.9L574.5 1041.2L555.7 1042L499.4 1018.1L487 989.3L443 949.5L435.1 919.6L402 897.3L387.9 881L401.9 895.7L434.4 919.9L437.6 926.5L441.2 947.6L450.1 957.4M387.4 879.1L372.2 872.1L360.7 863L334 855.3L287.8 851.9L267.7 843.3L242.4 843.8L232.8 839.3L227.1 830.9L233.1 838.5L242.4 843L267.9 842.4L288 851.1L333.6 854.5L358.8 861.6L384.1 876.5L387.9 881L387.4 879.1"/>
    <path class="rd" d="M645.3 207.6L471.7 214.4L703.9 205.5L645.3 207.6"/>
    <path class="rd" d="M1277.2 458L1266.9 459.6L1252 455.8L1232.1 455.9L1216.1 451.1L1206.1 451.8L1164.3 473.6L1097.8 500L1088.5 505.5L1066.9 525.6L1053.8 530.3L1030 530.4L971.9 508L954.8 506.5L940.2 507.7L912.9 522.4L851.1 532.6L853.6 533M1071.5 522.1L1094.2 501.1L1120.2 490.6M979.9 511.7L959.2 505.7L938.6 508.7"/>
    <path class="r2" d="M253.5 679.1L241.9 681.3L216.2 694L193.5 710.3L177 715.2L149.4 711.7L134.8 700.5L124 696.4L148.6 712.1L181.1 715L195.3 710.2L220.4 691.6L249.6 679.6L294.2 688.6L310.5 695L343.5 690L355.6 684.8L372.8 664.2M109.8 696.1L40 702.5L26.4 700.5L1.3 706.3"/>
    <path class="rd" d="M649.7 961.1L642.5 875.2L658.6 1086.2L649.7 961.1M635 790.7L629.9 735.6L636.5 807.2L635 790.7M641 857.7L635.6 807.8L641.5 875.2L641 857.7M662.8 1125L658.6 1086.2L661.8 1124.5M625.4 698.9L629 736.4L626.3 698.1"/>
    <path class="r2" d="M1501.9 1191.8L1491.7 1186.9L1471.4 1166.4L1417.8 1133.3L1365.9 1096.3L1335.8 1082.4L1311.4 1050.9L1298 1037.7L1288.1 1033.8L1247.5 1031.1L1237.5 1027.4L1170.5 965.2M1154.3 952.7L1170.5 965.2L1154.3 952.7L1119.5 939.4L1106.4 931.8L1082.8 900.4L1037.5 861.5L1033.8 852.7L1031.8 820.1L1007.1 786L932 724.5"/>
    <path class="rd" d="M197.3 -12.5L208.1 16L176.7 -55.9L110.9 -131.9L90.1 -144.3L115.4 -126.6L175.5 -59.2L196.8 -13.7M327.5 194L265.1 130.3L371.3 239.2L327.5 194M435.6 307.2L450.5 323L370.9 239.8L435.6 307.2M632.4 469.9L585.6 436.4L665.5 494.8L634.3 471.3M496.7 369.9L499.2 370.5L483 357.4L450.5 323L490.6 365.4L522.9 389.6L499.2 370.5M250.7 115L240.1 100.6L233.1 65.2L226.4 49.7L236 80.4L240 102.9L264.4 130.9L250.7 115"/>
    <path class="rd" d="M-119.9 -152.4L-126.5 -140.1L-149.8 -114.4L-159.2 -99.2L-180.9 -29.3L-200.5 5L-205.3 20.1L-199.5 4.6L-182.2 -26.2L-159.8 -99.8L-149.9 -115.6L-128.3 -139.8L-117.6 -158.6M-232.2 122.1L-215.7 94.3L-205.3 20.1L-208.8 40.2"/>
    <path class="r2" d="M104.6 836.6L117 887L121.9 936.6L150 966.5L191.4 1073.1L251.8 1153.9L257.2 1164.8"/>
    <path class="rd" d="M627 157.4L646.3 299.2L615.9 81.2M662.1 397.6L661.5 381.2L652.7 353.7L646.3 299.2L654 363.1L660.9 383L661.2 407.6L662.1 397.6M666.8 427.1L661.2 407.6L666 423.2L659.2 435.9L665 427.3L671.6 450.9L671 448.3"/>
    <path class="r2" d="M568 -111.9L623.1 -124.5L695.2 -122.8L708.9 -118.6L741.9 -95.6L752.8 -81.8L758 -69.7L762.6 -28.7L772.7 6.6L772.1 21.7L764.9 43.7L766.1 73.1"/>
    <path class="rd" d="M586.6 1036.5L660.1 1030.8L694.3 1036.1L700.1 1038L704.5 1044.2L703.4 1068.9L707.4 1076.3L713.4 1078.4L746.9 1074.3L714.8 1077.4L708.6 1075.7L704.3 1068.6L705.5 1043.9L698.1 1036.2L660 1029.9L622.1 1033.7"/>
    <path class="rd" d="M-284.8 648.3L-268.1 639.5L-228.5 594.1L-218.1 587.7L-201.3 584.8L-149.4 594.9L-133.8 593.9L-155.6 593.8L-206.9 585L-216.1 587L-230 595.4L-262.5 634.5L-277.7 644.5M-2.6 521.8L6.9 507.2L-5.5 525.4L-21.4 540.5L-64.5 570L-92.3 580L-75 574.9M-106.6 584.5L-134 593.1L-92.2 580.8L-106.6 584.5"/>
    <path class="rd" d="M141.9 -133.2L190.9 -123.2L232.1 -124.6L249.6 -129.3L274.4 -144.4L249.6 -130.3L233.3 -125.7L190.4 -123.3L138.5 -134.3L114.4 -126.1L127.5 -132.8L141.9 -133.2M298.6 -156.3L274.4 -144.4L284.4 -149.6"/>
    <path class="rd" d="M1075.2 1164.1L1064.2 1153.7L1004.3 1074.5L980.9 1049.2L964.6 996.6L955.1 978.9L935.9 948.6L897 912.3L888.1 896.3"/>
    <path class="rd" d="M1181.7 699.9L1102.8 693.9L1002.8 698L982.2 704L939.8 724.6L866.6 723.8L871.8 723.8M1248.1 700.2L1206.6 704.8L1256.1 700.1L1248.1 700.2M1194.5 701L1181.7 699.9L1206.6 704.8L1194.2 701.8M1283.4 694.1L1257.6 700L1281.3 695.6"/>
    <path class="rd" d="M586.6 1036.5L576.4 1006.6L557.1 989.1L551.7 977L539.6 965.8L534.9 953L510.4 909.4L494.3 885.4L506.3 900.8L541.4 966.6L552.8 977.4L559.6 992.8L572.7 1002.1M435.9 787.6L407.9 775.8L401.7 765.9L403.3 772.3L407.3 776.2L468.7 803.3L435.9 787.6M498.6 840.2L469 803.6L498.3 840.8"/>
    <path class="r2" d="M-43.2 555.7L3 711.8L11.6 757L34.8 797.4L52.8 815.8L54.8 822.1L52.7 834.4L58.3 850.7"/>
    <path class="rd" d="M236.7 808.1L205.1 813.6L309.4 792L354.8 779.1L337.2 785.9L236.1 806.7M442.6 762.3L412.8 763.7L442.6 762.3L582.6 732.9M354.8 779.1L391.3 768.6L354.6 778.1M185.5 818.1L179.8 819.4L205.1 813.6L185.5 818.1M412.8 763.7L390.9 768.1L412.8 764.2"/>
    <path class="r2" d="M538 63L555.7 64.6L586.6 84.4L592 84.3L587.1 83.7L558.5 64.9L546.7 62L490.4 68.3L380.5 67.6L371.1 70.3L394.8 67.8"/>
    <path class="rd" d="M549.6 247.4L544.4 210.9L534.8 183.7L534.4 164L521.1 128.2L519.1 102.9L519.7 124.1L535.2 163.9L535.6 183.4L543.1 203L548.7 247.5"/>
    <path class="r2" d="M306.3 1051.6L308.6 1050.7L288.9 1066.2L274.9 1071.3L240.1 1071.9L197.2 1064.1L158 1093.1L99.4 1131.5L66.5 1135.4L56.7 1134.8L48 1129.7L50.1 1132.8L56.7 1134.8M516.2 1066.4L497 1054.6L489.2 1053.2L512.2 1062.7L540.9 1084.9L614 1121.6L626.5 1124L662.3 1119.3M308.6 1050.7L354.5 1034.5L397 1046.8L423 1051.3L376.4 1040.4M428.5 1052.3L424.5 1051.6L465.8 1045.5L489.2 1053.2"/>
    <path class="rd" d="M389 418.5L378.6 412.4L579.1 503.2L623.1 503.9L645.8 520.6"/>
    <path class="r2" d="M722 740.5L728.9 770.2L731.7 807.7L728.8 830.7L717.9 847.4L710.4 868.5L714.1 864L719.2 847.1L729.5 831.8L732.7 807.7L729.3 766.1L723.5 741.8L715 727.3L722 740.5L721.3 737.1M739.6 1034.4L713.4 872.3M702.9 713.8L694.6 703.9L690.7 687.4L694.7 705.9L714.1 727.9L702.9 713.8M743.7 1056.7L739.6 1034.4L745.5 1074.5L743.7 1056.7"/>
    <path class="r2" d="M-280.8 693.8L-222.8 716.8L-200.8 736.3L-173.3 767.5L-157 777.1L-173.1 769.1L-201.6 736.7L-223.5 717.3L-277.7 694.3M-146.4 792L-144.9 783.6L-157 777.1L-144.3 785.3"/>
    <path class="rd" d="M538.8 696.5L498.5 717.1L585.7 674L628.1 646.3L595.9 668.9L538.8 696.5M631.1 643.9L642.1 635.2L627.6 645.6L631.1 643.9"/>
    <path class="r2" d="M1022.5 -113.6L1071.7 -120.3L1042.2 -114.1L1022.5 -113.6L999.3 -104L931.8 -40.9L908.6 -15.6L875 7.2M771 199.7L789.5 286.1L804.9 315.3"/>
    <path class="r2" d="M1059.6 -88.9L1030.7 -145.5L1083.9 -41.7L1094.3 7.2L1079.7 54L1082 61.3"/>
    <path class="r2" d="M1314.3 84.2L1311.1 74.5L1302.7 63.3L1295 42.2L1270.7 22.2L1265.6 -64L1250.6 -94.6L1251.8 -102.6L1272.4 -154.8L1283.7 -174.7"/>
    <path class="rd" d="M-244.9 1003.4L-244.6 990L-253.2 958.8L-243.1 912.7L-251.5 938.4L-254 959.9L-244 988.7L-245.6 1023.6L-237.5 1050L-245.4 1025.2L-244.9 1003.4M-215.2 1128.9L-214 1134L-215.7 1119.3L-224.5 1099.5L-227 1087.8L-226.2 1098L-217.5 1117.2L-215.2 1128.9M-231.7 1065L-227 1087.8L-230.9 1065.3M-204.2 1149.8L-213.2 1133.7L-201.9 1153.9"/>
    <path class="r2" d="M618.1 261.4L622.3 298.8L620.7 273.8L603.8 160.6L618.1 261.4L618.5 259.1M625.1 346L628.5 368.9L621.5 297.6L625.1 346M628.5 368.9L632.1 392.2L653.9 426.9L653.3 422.5L632.7 391.3L629.2 368.3M603.8 160.6L597.7 117.6L603.1 160.7M595.2 100.4L596.9 117.7L592.9 85L594.4 100.5M670 442.6L653.1 426.5L659.5 433.8"/>
    <path class="rd" d="M500.1 -5.9L505 22.2L511.8 33.9L519.1 102.9L512.7 33.9L505.6 21.8L495.1 -29.7L500.1 -5.9"/>
    <path class="rd" d="M431.2 1018.2L442.1 973.1L466.5 928.2L481.1 913.7L464.3 931.2L447 960.2L437.9 985.4L427.4 1028.2L431.2 1018.2M500.5 864.9L498.3 840.8L496.3 848.4L499 869L494.3 885.4L500.5 864.9M482.1 909.7L480.1 912.9L487.2 904L495.7 885.3L482.1 909.7M427.4 1028.2L423 1051.3L425.1 1049.9L428.7 1028.5"/>
    <path class="r2" d="M875 7.2L832.3 36.1L807.6 56.4L788.9 61.8L780.4 67.1L754.1 109.9L751.2 116.8L747.8 147.5L771 199.7M767.4 85.4L774.1 73.1L783.4 63.7L809.6 55.5L820.7 46.6"/>
    <path class="rd" d="M574 -55.4L576.4 -34.1L575.4 -19.4L577.2 -17L564.3 -164.1L569 -104.5M592.1 80.2L592.9 85L586.6 49.9L575.5 20.9L575.3 -17.6L577.2 -15.3L577.2 22.8L588.7 58.6"/>
    <path class="r2" d="M-237.4 901.3L-244.4 902.7L-223.5 900.9L-210 903.8L-184.2 916.4L-175.5 925.9L-148.5 932.1L-130.9 940.8L-96.6 977.5L-81.6 1000.9L-50 1026.4"/>
    <path class="r2" d="M1076.3 64.5L1095.8 85.8L1131.7 101.5L1144.7 104.5L1173.4 106L1249.8 94.9L1285 93.9L1311.2 85.7"/>
    <path class="rd" d="M392.2 886.3L366.4 906.3L349 926.1L303.6 959.2L349.8 924.5L366.5 905.5L402.1 878.3M292.5 966.4L236.2 987L272.2 975L303.6 959.2L292.5 966.4"/>
    <path class="rd" d="M467.3 443.5L514.3 336.1L466.7 443.2M528.1 302.9L522.1 318.1L549.8 255L528.9 303.4M514.3 336.1L521.7 317.8L513.2 336.9"/>
    <path class="rd" d="M625.4 698.9L627.6 697.1L467.4 824.2L493.8 803.9M402.1 878.3L451.6 837.2L391.5 885.3M627.6 697.1L706.1 633.8M463.2 827.8L452.1 837.8L467.1 825.9L463.2 827.8"/>
    <path class="r2" d="M92.8 -120.4L99.4 -83L102.3 115.2"/>
    <path class="rd" d="M5.9 -83.8L59.1 -117.8L76 -121.6L101.2 -120.9L113.9 -126.8L101.4 -120.1L76 -120.8L55.9 -116.7L11.8 -86.7"/>
    <path class="r2" d="M1174.1 41.5L1171.7 51.3L1184.5 71.4L1192.6 78.7L1214.9 90L1221.1 99.9L1216 89.6L1188 74L1172.7 51.5L1177.5 34.2L1189.5 23.1L1189.1 15.7L1188.3 23.4L1177.4 32.5L1174.1 41.5"/>
    <path class="rd" d="M399.4 1118.1L389.8 1086.2L390.2 1078.8L400.1 1067.8L424.5 1051.6L417.8 1059.5L394.5 1070.9L389 1078L389 1088.5L400.1 1115.6L403.6 1133.7L407.2 1138.7L399.9 1120M408.7 1150.2L409 1143.1L406.2 1139.7L407.8 1148.4L401.1 1173.2L401.7 1217.3L395.2 1232.9"/>
    <path class="r2" d="M46.9 852.5L46.5 909L29.7 951.8L22.2 960.7L10 969L-8.3 973.3L-17.9 979L-41.8 1004.1L-50 1026.4"/>
    <path class="rd" d="M802.6 649.1L803.8 651.1L799.6 627.5L650.7 514.3M829.4 704.3L827.1 694.9L819.6 688.7L818.5 677.4L812.9 665.1L805.2 655.9L816.8 674.7L819.5 689.1"/>
    <path class="r2" d="M50.8 104.4L54.3 95.1L62.9 84.4L61.9 68.3L61.9 86.7L50.8 104.4L51.7 103L0.4 224.4M144.3 54.5L156.7 56.5L141.6 54.9L128.1 57.9L101.3 58.5L82.7 55.8L66 60.2L75.3 56L101.3 58.5L144.3 54.5M235.8 78.8L181.8 79.2L175.8 77.1L169 68.8L175.4 77.9L181.8 79.2M157.7 56L168.4 69.3L164.4 61.4L157.7 56"/>
    <path class="rd" d="M190 322.2L243.2 331.8L378.6 412.4"/>
    <path class="rd" d="M1079.4 489.1L1087.8 506.2L1078.8 481L1080.2 431.8L1069.8 407.4L1079.9 436.7L1080.8 451.3L1079.9 448.9L1077.6 477.6L1079.4 489.1M1056.9 381.1L1058 383.5L1026.3 317.1L1016.2 302.3L1056.9 381.1M1066.4 400.3L1058 383.5L1068.8 407.9L1066.4 400.3"/>
    <path class="rd" d="M576.3 -35.2L436.8 -25.3L369.1 -7.8M358.8 -6.4L369.1 -7.8L343.2 -6L358.8 -6.4"/>
    <path class="rd" d="M467.3 443.5L579.1 493.4L623.2 494.2L650.7 514.3"/>
    <path class="r2" d="M1083 -123.5L1071.7 -120.3L1136.6 -132.5L1167.4 -150.7L1136.1 -133.2L1083 -123.5"/>
    <path class="r2" d="M356.5 1070.5L357.2 1072.2L362.1 1064.4L383.4 1049.4L386.6 1043L382.2 1049.4L358.8 1066.7L355.4 1075L356.3 1090.4L353.5 1098.2L344.6 1108.7L333 1115L343.2 1109.9L352.4 1098.4L357.2 1072.2M291.4 1158.9L299.6 1152.6L315.6 1124.7L333 1115L321 1119.4L315.6 1124.7"/>
    <path class="r2" d="M975.9 -82.9L974.9 -93.4L979.4 -69.9L1013.5 -33.8L1062.4 33.8L1076.3 64.5M985.3 -151.1L981.9 -121.8L974.9 -93.4"/>
    <path class="r2" d="M300.8 261.9L293.1 264.1L284.3 270.7L274.2 272.6L306.4 258.6L321.9 240.1L325.8 226.2L343.1 210L325 225.9L320.9 239.4L313.6 251L306.5 260L300.8 261.9"/>
    <path class="r2" d="M937.3 468.4L970.1 463.6L980.1 459.4L1003.9 431.6L1005.3 418.5L1022.9 395.4L1036.1 383.2L1055.6 378.4L1035.8 382.5L1022.9 395.4M1158.7 338.4L1209.9 317.7L1260.8 279.4L1292.7 270.8L1300.1 266.1M1055.6 378.4L1085.8 372.1L1158.7 338.4L1134.3 349.7"/>
    <path class="r2" d="M99.8 -57.3L154.4 -62.1L163.5 -65.8L206.7 -116.9L210.8 -125.2L212.5 -141.6L209.7 -121.2L198.5 -105.9"/>
    <path class="r2" d="M-57.2 565.4L-44.2 575.5L-27.4 577.6L-8.3 593L25.6 598.6L68.3 594.2L113.3 566.3L111.1 567.7M218.5 555.6L251.3 567L205.8 550.7L159.5 555.4L171.4 553.7M278.4 584.7L279.9 586.2L275.7 578.9L290.3 602.9L308.7 614.7L340.2 642.4M370.2 662.4L340.6 642.7L383 670.1L370.2 662.4M406.2 680.5L433.2 686.8L475.7 710.9M141.7 557.8L144.6 556.5L128 559.1L129.5 559.9L113.9 564.9L125.6 559.5L141.7 557.8"/>
    <path class="rd" d="M1251.6 933.5L1249.3 922.7L1257.2 874.1L1257.7 885.4L1248.5 926.1L1264.2 965.3L1262.4 954.6L1251.6 933.5M1275.3 793.3L1258.7 857.8L1275 798.2"/>
    <path class="r2" d="M256.4 224.3L300 167.6L244.8 239.5L257.1 224.9M219.8 274L244.8 239.5L219.8 274L207.4 324.2"/>
    <path class="r2" d="M602.7 297.5L622.3 298.8L597 295.3L584.8 278.3L561.5 265.6L549.6 255.5L559.7 265.6L583.4 278.5L594.2 294.4L602.7 297.5"/>
    <path class="r2" d="M637.9 77.4L766.1 73.1L773.1 76.2L766.1 72.4L735.7 74.3M623.7 79L637.9 77.4L616.7 81.1L622.2 79.2"/>
    <path class="rd" d="M869.3 231.9L880.4 238.7L928.9 257.7L874.8 234.9L857.3 215.5L869.3 231.9M763.2 200.1L759 200.3L824.7 204.2L763.2 200.1M750.3 201.7L759 200.3L703.7 206.5L750.3 201.7M978.9 281.5L929.4 256.9L963.4 273.9M1002.4 292.7L978.9 281.5L1015.1 302.5L1011.5 297.7L1002.4 292.7M854 213.6L856.6 216.1L850.1 209.6L839.3 205.7L854 213.6"/>
    <path class="rd" d="M165.4 71.7L163.8 74.1L190.9 51.1L230.8 24.7L198.3 45.2L165.8 72.7M277.5 -3.6L274.3 -3.5L338.1 -5.7L277.5 -3.6M234.4 22.2L257.4 1.1L274.3 -2.5L265.9 -2.9L256.7 0.4L244 13.8L230 23.7L234.4 22.2M150.5 110.8L135.1 136.7L148.7 115.1L154.7 94.1L149.8 110.4M154.7 94.1L158.2 80.3L163.5 73.2L157.7 79.3L153.9 93.9"/>
    <path class="r2" d="M-210.9 -77.1L-236.9 -90.7L-251 -93.8L-267.3 -90.8L-288.9 -78.2L-266.7 -90.2L-251.3 -93L-237.4 -90.1L-211.3 -76.4M-176 -58.7L-210.9 -77.1L-172.8 -56.2L-176 -58.7"/>
    <path class="r2" d="M467 -53.3L457.6 -71.4L424.1 -119.6L420.2 -138.9L405.8 -165L380.6 -193.4"/>
    <path class="r2" d="M507.1 1151.3L509.8 1131.7L526.2 1115.9L529.1 1107.8L527 1102L517.9 1096L501.8 1071.3L502.1 1063.1L508.5 1045.5L507.1 1021L509.5 1010.9L508.7 1013.7M509.5 1010.9L509.2 988.6L518 956.3L529.4 933L529.8 915.7L527.5 922L528.5 938.6L517.9 957.2M569.8 833.4L547.5 866.5L529.8 915.7M513.7 1088.8L505.1 1078L502.5 1070.5L508.5 1045.5"/>
    <path class="r2" d="M644.3 894.8L644.5 896.5L696.3 891.7L702 887.2L711.5 869.2L701.2 886.1L696.3 890L644.3 894.8"/>
    <path class="rd" d="M389.4 692.4L391.2 677L387.9 689.9L392.1 703.6L386.4 732.7L397.3 751.7L387.6 735.1L393 703.9L389.4 692.4M402.9 637.9L396.9 655.8L410.2 613.4M392.1 677.1L397.9 656.4L391.4 675.7"/>
    <path class="rd" d="M879.5 846.7L875.5 838.6L857.7 819.1L835.5 770.3L826.3 755.7L825.6 739.9L829.4 704.3"/>
    <path class="rd" d="M606.3 633L604.4 641.9L621.4 587.8L622.9 568.4L620.3 587.5L606.3 633"/>
    <path class="r2" d="M612.6 390L624.3 375.4L571.2 445.6L553.4 482M628.5 369.5L650.8 339"/>
    <path class="rd" d="M360.1 56.7L357.4 52.6L358.6 56.7L372.1 69.8L377.8 86.1L373.5 116.9L377.1 80.9L372.1 69.8L360.1 56.7M369 180.3L373.1 207.9L367.9 225.3L362.8 230.4L373.1 207.9L372.7 190.9L366.8 177.4L369 180.3M299.4 -89.1L305.6 -68.4L315.6 -55L306.3 -69.5L296.2 -100.2L299.4 -89.1M339.1 -15.4L332.4 -30.7L341.7 -9.6L345.2 10.9L346.1 2L339.1 -15.4M346 18.7L357.4 52.6L346.5 26.7L344.9 15.5L346 18.7M364.6 149.6L365.3 141.9L363.6 159.8L366.8 177.4L363.7 162.5L364.6 149.6"/>
    <path class="r2" d="M-50 1026.4L-22.3 1061.1L-10.9 1080.9L2 1115.4L23.3 1126.9L36.2 1126.1L32.3 1126.7"/>
    <path class="r2" d="M1253.3 562.6L1249.4 578.1L1240 593.9L1237.5 604.3L1243.5 630.2L1243 663.4L1248.2 700.9"/>
    <path class="r2" d="M237.1 92L302.6 86.5L328.9 81.5L349.2 87.7L377.8 85.3"/>
    <path class="r2" d="M132.2 1110.1L128.7 1143L77.4 1201.2L67.6 1208.9L63.5 1222"/>
    <path class="r2" d="M176.2 764.9L208.9 775L214.8 783.1L220.4 803.5L215.6 782.7L210 774.7L176.2 764.1"/>
    <path class="r2" d="M816 366.2L824.4 374.2L825.7 388.6L832.2 399.5L840.1 404L859.3 407.2L840.1 402.7L832.7 397.9L826.9 387.5L825.9 374L820.1 368.8"/>
    <path class="rd" d="M815.1 648L843.3 667.5L849.7 681.4L844.4 668.9L803.2 642.5L815.1 648M848.6 679.7L850.6 698L857 716.3L867.3 724.9L857.8 716.1L851.5 698L849.7 681.4"/>
    <path class="rd" d="M354.2 397.6L420 290.5"/>
    <path class="r2" d="M-208.8 40.2L-234 41L-139.4 40.4M-76.9 65.4L-66.4 74.8L-71.6 67.3L-92 57.2L-76.9 65.4M-132.5 41.4L-139.4 40.4L-116.5 46.7L-92 57.2"/>
    <path class="r2" d="M856.8 646.6L856.5 640.7L763.9 569.9"/>
    <path class="r2" d="M945 722.4L939.2 709.8L919.7 685.5L890.4 654.8L856.8 646.6"/>
    <path class="r2" d="M-53.9 -184.3L-33 -169.1L-21 -147.4L26.8 -96.6"/>
    <path class="r2" d="M796.9 645.3L802.2 652.5L790 635.6L769 617.4L737.4 593.8L728.6 592.8L719.2 585.9"/>
    <path class="rd" d="M771.1 475.4L779.5 476.8L808.5 468.2L826.6 470.2L807.3 469.4L782.8 475.9L771.1 475.4"/>
    <path class="rd" d="M674.7 577L648 612.1L643.6 626.1L647.3 615.1L675.9 577.8"/>
    <path class="r2" d="M757.8 420.2L818.8 322.8"/>
    <path class="r2" d="M498.6 840.2L506.5 825L527 805.9L538.3 790.5L537.9 741.9"/>
    <path class="r2" d="M1047.4 531.3L1057.1 584.1L1052.4 643.2"/>
    <path class="r2" d="M1337.6 492.6L1259.9 554.9L1253.3 562.6"/>
    <path class="r2" d="M655.9 300.8L634.7 299.6L719.4 304.7"/>
    <path class="rd" d="M788.7 530L794 533.2L785.5 528.3L759.7 527.4L744.7 520L760.1 528.2L788.7 530"/>
    <path class="rd" d="M458.7 463.3L466.7 443.2L447.5 489.1L458.7 463.3L457.2 464.6"/>
    <path class="rd" d="M749.1 589.2L777.4 551.6L775.6 498.9L772.4 496.3"/>
    <path class="rd" d="M-285.9 872.4L-259.2 889.2L-244.4 902.7L-257.3 889.4L-281.4 873.9"/>
    <path class="rd" d="M772.4 496.3L769.8 494L769.4 483.5L770.1 547.1L758.7 565.9"/>
    <path class="rd" d="M845.3 433.5L851.3 422.7L814 497.6"/>
    <path class="rd" d="M420 290.5L430.8 280.1L480.2 256.2L454.6 268.7"/>
    <path class="r2" d="M18.1 286.4L19.4 294.4L13.1 253.9L0.3 233L0.4 224.4L-1.2 230.4L2.4 236.9"/>
    <path class="rd" d="M743.2 554.3L717.7 535.2L763 569.2M707.1 527.3L718.2 534.6L686.4 510.7L707.1 527.3M686.4 510.7L665.5 494.8L685.9 511.4"/>
    <path class="rd" d="M645.8 520.6L721 577.2"/>
    <path class="rd" d="M660.4 650.6L671.2 662.5L643.6 626.1L660.4 650.6"/>
    <path class="rd" d="M621.7 543.2L622.9 568.4L623.3 522.4L621.7 543.2M622.5 519.9L624.2 494.6L622.3 523.6L622.5 519.9"/>
    <path class="rd" d="M87.7 336.8L85.3 337.4L91.8 335.5L77 342.5L68.7 354.6L60.9 404.4M94.8 333.9L91.6 334.9L107.2 330.8L131.4 329.7L94.8 333.9"/>
    <path class="r2" d="M756.6 429L730.3 463.4L717.6 475.1L728.9 466L737.5 454.6"/>
    <path class="r2" d="M719.4 304.7L754.1 306.9L804.1 316.4"/>
    <path class="r2" d="M562.7 294.6L535.6 285.4L574.2 300.7L562.7 294.6M589.9 302.8L584 304L574.2 300.7L586.6 304.9L597.2 299.8L598.8 296.1L589.9 302.8"/>
    <path class="rd" d="M666.6 1167.9L662.8 1125L665.3 1165"/>
    <path class="r2" d="M-61.7 -173.6L-102.6 -119.7L-113.7 -111"/>
    <path class="rd" d="M466.7 443.2L392.4 410.2"/>
    <path class="r2" d="M485.5 402.2L421.3 373.5L416.5 364.7"/>
    <path class="r2" d="M389.1 387.2L402 394.6L368 374L389.1 387.2M474.6 426.9L402 394.6"/>
    <path class="r2" d="M549.8 255L491 252.6L472.5 260.4M488.5 246L488.7 240.1L483.6 239.1L482.6 244.5L487.7 250.2L503.1 254.8L515.9 255"/>
    <path class="r2" d="M636.1 803.6L587.6 809.5L569.8 833.4"/>
    <path class="r2" d="M1037 104.7L1074.8 65.6L1093.2 56.7"/>
    <path class="r2" d="M-235.8 134.9L-232.3 123.2L-236.9 135L-250.6 144.7L-255.1 150.9L-235.8 134.9M-275.2 192.9L-263.3 168.9L-280 201.3"/>
    <path class="rd" d="M727.9 510.5L731.7 511.9L702 490.3L728.4 509.9"/>
    <path class="rd" d="M60.9 404.4L56.9 421.3L25.7 468M20.9 477.5L12.3 496.2L25.7 468L24 471.3"/>
    <path class="r2" d="M937.3 468.4L923.9 470.6L911.5 478.1L874.2 477.6L878.2 477.8M872.4 477.6L874.3 478L847 476.2L852.3 476.4"/>
    <path class="r2" d="M-262 1031.5L-244.4 1024.2L-270.1 1035.4L-276.5 1035.9L-270.5 1036.4L-262 1031.5"/>
    <path class="rd" d="M426.5 515.1L436.2 521.2L440.3 538L431.9 559.7L428.9 576.7"/>
    <path class="r2" d="M1188.6 881.8L1255.1 897"/>
    <path class="r2" d="M524.4 468.9L540.7 432.3L554.9 413.4"/>
    <path class="rd" d="M649.6 450.5L652.7 444.5L633.3 470.6L649.6 450.5M626.3 482.1L633.3 470.6L624.6 487L624.2 494.6L623.4 487.5L626.3 482.1"/>
    <path class="rd" d="M676.2 668.8L670.5 663L690 687.9L676.2 668.8"/>
    <path class="r2" d="M-249.9 41.4L-234 41.9L-280.8 42.1"/>
    <path class="r2" d="M623.3 523.7L629.8 526.3L673.3 561.3"/>
    <path class="r2" d="M822.2 571L818.9 575.2L849.7 533.6L848.4 536.5M818.9 575.2L786.7 617.6"/>
    <path class="rd" d="M190 322.2L167.5 329.6L131.4 329.7"/>
    <path class="r2" d="M392.4 410.2L403.4 385.3L424.2 361.1"/>
    <path class="rd" d="M446.5 488.7L440.7 487.7L435.7 490.3L427.6 515.6L431.9 502"/>
    <path class="rd" d="M687.8 562.2L675.9 577.8L698.3 550"/>
    <path class="r2" d="M-105.3 894L-125.7 944.8"/>
    <path class="rd" d="M616.4 676.8L615.2 674.4L626.3 698.1L616.4 676.8M612.5 671.2L614.2 674.8L605.3 654.3L612.5 671.2"/>
    <path class="r2" d="M843.8 669.4L851 665.2L875.5 662.5L888.2 663.7L895.8 660.7"/>
    <path class="r2" d="M-105.3 894L-83.4 844.8"/>
    <path class="r2" d="M1052.4 643.2L1042.5 696.3"/>
    <path class="rd" d="M701.8 523.3L734.4 480.4"/>
    <path class="r2" d="M813.1 319L819.2 323.2L824.6 343.9L818.2 353.9L816 366.2"/>
    <path class="rd" d="M608.2 81.4L592 84.3L616.7 81.1L608.2 81.4"/>
    <path class="r2" d="M176.2 764.1L179.6 723.7L176.7 714.4"/>
    <path class="rd" d="M888.1 896.3L879.5 846.7"/>
    <path class="rd" d="M728.1 565L739.7 551L723.9 569.5L727.5 564.6"/>
    <path class="rd" d="M847.8 532.5L849.5 532.5L812.4 505.9"/>
    <path class="rd" d="M472.6 755.8L466.6 726.6L475.7 710.9"/>
    <path class="rd" d="M490.1 212.7L489.8 242.4L487.5 249.8L480.2 256.2"/>
    <path class="rd" d="M719.6 477.9L691.3 515.4"/>
    <path class="r2" d="M677.8 555L641.1 527.1"/>
    <path class="rd" d="M814 497.6L812.1 506.6L794 533.2"/>
    <path class="r2" d="M-46.1 80.9L-52.9 81.1L-43.5 80.2L-25.3 71.1L-28.7 72.6"/>
    <path class="r2" d="M221.2 811.5L226.2 831L221.8 809.9"/>
    <path class="r2" d="M826.6 471.6L847 476.2L827.2 470.3"/>
  </g>
  <g class="layer" data-kind="rail">
    <path class="rl" d="M-1120.8 980L-1053.6 953.5L-1024.2 933.1L-967.4 881.3L-948.9 871.2L-870.8 841L-797.2 817.4L-610.1 749L-588.4 750.7L-542.6 773.6L-529 774.9L-516 772.1L-504.4 766.3L-496 758.3L-484.2 735.2L-472.3 723.3L-424.3 691.6L-390.3 688.3L-284.4 650.3L-252.9 645.8L-165 651.7L-137.7 651.1L-104.7 641.9L-62.6 648.2L-41.9 660.3L-15.4 658.4L-8.1 654.6L5.4 640.8L156 596.6L203.1 595.6L233.6 581.9L251.8 586L272.2 586.7L327 570.9L337.6 571.4L348.9 577L356.1 585.6L362.6 600.1L372.9 607.8L382.7 609L398.9 603.8L409.5 605.5L417.2 611.6L430.1 628.5L450.6 638.7L469.1 643.8L489.8 655.1L501.1 657.3L565.3 654.5L603.4 635.6L646.9 622.4L659.8 624.2L670.7 633.9L676.9 634.3L682.4 630.4L710.5 594.8L716.1 591.7L755.3 613.6L777.1 633.1L790 634.9L807.2 649.2L834.9 659.6L844.7 660.4L912.5 652.4L931.6 647L998.3 618.2L1014.9 615.4L1056.1 614.3L1073.3 610.4L1089.8 602.3L1124.1 578.3L1148 572.7L1249.3 575.4L1278.1 578.4L1725.9 671.1L1876 669.3L1984.1 653.7" data-dash="7 6"/>
    <path class="rl" d="M339.7 618.9L371.3 746.1L481.9 875.8L611.5 1102.3L616 1122.2L610.4 1167.5L616.2 1122.3L611.7 1102.2L481.7 875L371.9 746.6L339.5 616.1L339.4 606.7L343 595.8L378.5 529.4L373.8 477.4L385.8 399.3L394.3 384.3L462.5 304.8L395.1 383.7L385.6 400.7L374.1 475.7L378.4 528.7L342 597.2L339 608.3L339.7 618.9" data-dash="7 6"/>
    <path class="rl" d="M760.4 543.9L762.8 526.9L760.6 494.7L754.6 473.7L753.2 455.2L730.1 428.4L722.8 424.6L706.5 421.7L677.1 428.1L647.2 427.4L620.2 402.8L578.6 382.4L549.5 359.9L579.5 382.5L619.7 402L644.7 426L663.8 428.9L690.1 426.8L705.6 422.1L722 424.7L732.6 431L750.1 450.3L753.3 456.9L760.2 545.7L731.7 586.6L726.5 603.8L727.5 658.1L746.4 742.4L749.9 788.5L748.7 805.1L737.9 848.6L696.5 915.6L688.3 938.1L685 958.7L683.7 1207.9L689 1226.5L706.3 1258.3L710.3 1282L706.6 1258.2L689.2 1226.4L684 1207.9L685.1 965.4L686.9 945.7L692.7 925.1L721.1 876.2" data-dash="7 6"/>
    <path class="rl" d="M751.4 605L736.2 597.5L636.7 577.8L613.3 576.1L593.5 579.3L567.1 595.7L559 608.3L551.6 612.8L524.4 608.3L499.5 612.2L482 608.5L452.4 592.6L436.9 587.1L373.9 552.1L357.7 535.2L335.1 527.6L314.6 497.9L294.4 476.1L271.6 459.7L244.2 447.2L236.7 441L230.3 429.8L220.7 395.8L212.7 384.9L197.2 373L179.9 368.3L158.5 358.7L45.1 350.8L-21.9 365.4L-47 378.3L-67.2 379.2L-77.7 376.7L-114.6 358L-135 350.5L-348.9 345.9L-368.2 341.9L-391.4 326.4L-405.2 321.8L-441.5 321.1L-477.4 323.7M53 350.6L157 358.7L201.4 375.6L219.6 394.1L230 429.8L236.5 441.2L244.1 447.4L274.6 461.9L294.2 476.3L314.3 498L335 527.8L357.4 535.4L374.5 552.8L436.8 587.6L452.8 593.3L484.5 609.8L502.1 612.4L524.4 608.6L551.7 613.1L559.3 608.5L567.3 595.9L593.6 579.6L613.2 575.8L636.6 578.1L736.1 597.8L745.7 601.5L757.1 610" data-dash="7 6"/>
    <path class="rl" d="M327.5 -647.9L319 -605.7L278.6 -235.6L284.1 -202.2L336 -59L284.8 -201L278.9 -235L319.5 -607.8L327.8 -647.9" data-dash="7 6"/>
    <path class="rl" d="M473.8 292.2L463.2 304.5L482.5 280.3L485.1 270.5L484 256.4L535.4 344.7L549.5 359.9L536.1 345.3L484 256.4L486.3 275.1L473.8 292.2L481.7 281.3L484.8 269.9L482.6 257.6L475.8 246.6L483.7 255.9L410.3 130.3L388.2 81.6L401.3 115.4L399.8 112.4L336 -59L388.2 81.6L386 77.2M499 283.9L450.4 208.3L434.2 172.7L400.7 112.2L336.7 -59.2M475.1 246.1L448.1 205.8L432.7 171.2L401.6 114.9L433.7 172.5L448 204.7L475.8 246.6" data-dash="7 6"/>
    <path class="rl" d="M760.6 498.6L765.9 454.6L765.6 436.7L770.5 423.9L818.9 368.1L847.5 349.4L855.2 334.3L856.4 323.1L853.1 303.5L835.4 270.6L832.4 255.5L841.1 206.6L855.7 183.4L861.2 167.3L866.6 121.4L862.1 106.7L844.7 77.8L836.3 57.6L833.1 38.8L836.6 28.5L844.2 19.3L918 -29.8L929 -42.6L937.4 -72.1L938.5 -86L922.1 -147.9L924.2 -168.2L921.4 -150.2L926.4 -131.1" data-dash="7 6"/>
    <path class="rl" d="M1285.7 861.8L1062.1 810.6L987.5 805.7L1060.3 810L1291.9 862.9M830.2 700.4L830.2 687.9L830.3 701.7L831.1 700.3L839.5 733.3L843.9 742.2L851.7 749.5L910 770.3L938.1 790.5L962 801.4L987.5 805.7L975.3 805.9L956.3 801.7L936.8 792.8L907.2 772L844.5 754.3L837.3 747.3L832.3 737.1L830.3 701.7M760.6 499.7L763.8 546.3L740.1 580L739.2 590.3L744.3 599.1L799 643.9L757.1 610M830 686.9L823 668.9L798.8 644.1L823.3 668.7L827.9 677.6L829.3 686.9" data-dash="7 6"/>
  </g>
  <g class="layer" data-kind="labels">
    <text x="98.3" y="264.2" text-anchor="middle" class="lb lb-campus">University of Richmond</text>
    <text x="460.2" y="483.9" text-anchor="middle" class="lb lb-water">Boat Lake</text>
    <text x="106.7" y="658.8" text-anchor="middle" class="lb lb-water">Lake Page</text>
    <text x="466.6" y="539.7" text-anchor="middle" class="lb lb-water">Shields Lake</text>
    <text x="365.8" y="78" text-anchor="middle" class="lb lb-water">Staples Millpond</text>
    <text x="773.1" y="843" text-anchor="middle" class="lb lb-water">James River</text>
    <text x="277.8" y="439.2" text-anchor="middle" class="lb lb-water">Kanawha Canal</text>
    <text x="81.7" y="760.5" text-anchor="middle" class="lb lb-water">Powhite Creek</text>
    <text x="892.4" y="766.1" text-anchor="middle" class="lb lb-water">Almond Creek</text>
    <text x="465.6" y="142.4" text-anchor="middle" class="lb lb-park">Bryan Park</text>
    <text x="905.1" y="129.3" text-anchor="middle" class="lb lb-park">Vawter Street Park</text>
    <text x="441.2" y="623.9" text-anchor="middle" class="lb lb-park">James River Park System Main Area</text>
    <text x="293.6" y="543.2" text-anchor="middle" class="lb lb-park">Willow Oaks Country Club</text>
    <text x="141.3" y="302.2" text-anchor="middle" class="lb lb-park">The Country Club of Virginia - Westhampton</text>
    <text x="492.7" y="688.7" text-anchor="middle" class="lb lb-park">Forest Hill Park</text>
    <text x="763.3" y="416.6" text-anchor="middle" class="lb">I 64</text>
    <text x="720" y="886.1" text-anchor="middle" class="lb">Richmond-Petersburg Turnpike</text>
    <text x="654.2" y="535.1" text-anchor="middle" class="lb">Downtown Expressway</text>
    <text x="458.2" y="259.4" text-anchor="middle" class="lb">Beltline Expressway</text>
    <text x="922.9" y="276.3" text-anchor="middle" class="lb">Mechanicsville Turnpike</text>
    <text x="220.6" y="594.4" text-anchor="middle" class="lb">E-ZPass Only (Powhite Parkway)</text>
    <text x="124" y="140.7" text-anchor="middle" class="lb">Patterson Avenue</text>
    <text x="703.9" y="196.5" text-anchor="middle" class="lb">West Laburnum Avenue</text>
    <text x="646.3" y="290.2" text-anchor="middle" class="lb">Chamberlayne Avenue</text>
    <text x="510.4" y="900.4" text-anchor="middle" class="lb">East Belt Boulevard</text>
    <text x="354.8" y="770.1" text-anchor="middle" class="lb">Midlothian Turnpike</text>
    <text x="519.1" y="93.9" text-anchor="middle" class="lb">Hermitage Road</text>
    <text x="628.1" y="637.3" text-anchor="middle" class="lb">Semmes Avenue</text>
    <text x="303.6" y="950.2" text-anchor="middle" class="lb">Hull Street Road</text>
    <text x="514.3" y="327.1" text-anchor="middle" class="lb">North Arthur Ashe Boulevard</text>
    <text x="467.4" y="815.2" text-anchor="middle" class="lb">Hull Street</text>
    <text x="799.6" y="618.5" text-anchor="middle" class="lb">East Main Street</text>
    <text x="623.2" y="485.2" text-anchor="middle" class="lb">West Main Street</text>
    <text x="874.8" y="225.9" text-anchor="middle" class="lb">East Laburnum Avenue</text>
    <text x="386.4" y="723.7" text-anchor="middle" class="lb">Westover Hills Boulevard</text>
    <text x="844.4" y="659.9" text-anchor="middle" class="lb">Williamsburg Avenue</text>
    <text x="826.6" y="461.2" text-anchor="middle" class="lb">Fairfield Way</text>
    <text x="392.4" y="401.2" text-anchor="middle" class="lb">Ellwood Avenue</text>
    <text x="56.9" y="412.3" text-anchor="middle" class="lb">North Huguenot Road</text>
    <text x="690" y="678.9" text-anchor="middle" class="lb">Commerce Road</text>
    <text x="849.5" y="523.5" text-anchor="middle" class="lb">Fairmount Avenue</text>
  </g>
  <g class="layer" data-kind="marker">
    <circle cx="711.8" cy="529.5" r="11" fill="none" stroke="rgba(52,87,213,.35)" stroke-width="1.5"/>
    <circle cx="711.8" cy="529.5" r="4.5" fill="#3457D5"/>
  </g>
</svg>
